G75*
G70*
%OFA0B0*%
%FSLAX24Y24*%
%IPPOS*%
%LPD*%
%AMOC8*
5,1,8,0,0,1.08239X$1,22.5*
%
%ADD10C,0.0640*%
%ADD11C,0.0084*%
%ADD12C,0.0085*%
%ADD13C,0.0083*%
%ADD14C,0.0830*%
%ADD15OC8,0.0830*%
%ADD16C,0.0714*%
%ADD17C,0.0084*%
%ADD18C,0.0820*%
%ADD19R,0.0820X0.0820*%
%ADD20C,0.0760*%
%ADD21C,0.1380*%
%ADD22C,0.0080*%
%ADD23C,0.0081*%
D10*
X020204Y005893D02*
X020764Y005893D01*
X020764Y006893D02*
X020204Y006893D01*
X020204Y007893D02*
X020764Y007893D01*
X020764Y008893D02*
X020204Y008893D01*
X020204Y009893D02*
X020764Y009893D01*
X020764Y010893D02*
X020204Y010893D01*
X020204Y011893D02*
X020764Y011893D01*
X020764Y012893D02*
X020204Y012893D01*
X020204Y013893D02*
X020764Y013893D01*
X020764Y014893D02*
X020204Y014893D01*
X020204Y015893D02*
X020764Y015893D01*
X020764Y016893D02*
X020204Y016893D01*
X020204Y017893D02*
X020764Y017893D01*
X020764Y018893D02*
X020204Y018893D01*
X020204Y019893D02*
X020764Y019893D01*
X020764Y020893D02*
X020204Y020893D01*
X020204Y021893D02*
X020764Y021893D01*
X020764Y022893D02*
X020204Y022893D01*
X020204Y023893D02*
X020764Y023893D01*
X020764Y024893D02*
X020204Y024893D01*
X026204Y024893D02*
X026764Y024893D01*
X026764Y023893D02*
X026204Y023893D01*
X026204Y022893D02*
X026764Y022893D01*
X026764Y021893D02*
X026204Y021893D01*
X026204Y020893D02*
X026764Y020893D01*
X026764Y019893D02*
X026204Y019893D01*
X026204Y018893D02*
X026764Y018893D01*
X026764Y017893D02*
X026204Y017893D01*
X026204Y016893D02*
X026764Y016893D01*
X026764Y015893D02*
X026204Y015893D01*
X026204Y014893D02*
X026764Y014893D01*
X026764Y013893D02*
X026204Y013893D01*
X026204Y012893D02*
X026764Y012893D01*
X026764Y011893D02*
X026204Y011893D01*
X026204Y010893D02*
X026764Y010893D01*
X026764Y009893D02*
X026204Y009893D01*
X026204Y008893D02*
X026764Y008893D01*
X026764Y007893D02*
X026204Y007893D01*
X026204Y006893D02*
X026764Y006893D01*
X026764Y005893D02*
X026204Y005893D01*
D11*
X007326Y014745D02*
X007326Y015221D01*
X008202Y015221D01*
X008202Y014745D01*
X007326Y014745D01*
X007326Y014828D02*
X008202Y014828D01*
X008202Y014911D02*
X007326Y014911D01*
X007326Y014994D02*
X008202Y014994D01*
X008202Y015077D02*
X007326Y015077D01*
X007326Y015160D02*
X008202Y015160D01*
X007326Y015655D02*
X007326Y016131D01*
X008202Y016131D01*
X008202Y015655D01*
X007326Y015655D01*
X007326Y015738D02*
X008202Y015738D01*
X008202Y015821D02*
X007326Y015821D01*
X007326Y015904D02*
X008202Y015904D01*
X008202Y015987D02*
X007326Y015987D01*
X007326Y016070D02*
X008202Y016070D01*
X007326Y016565D02*
X007326Y017041D01*
X008202Y017041D01*
X008202Y016565D01*
X007326Y016565D01*
X007326Y016648D02*
X008202Y016648D01*
X008202Y016731D02*
X007326Y016731D01*
X007326Y016814D02*
X008202Y016814D01*
X008202Y016897D02*
X007326Y016897D01*
X007326Y016980D02*
X008202Y016980D01*
X004326Y006541D02*
X004326Y006065D01*
X004326Y006541D02*
X005202Y006541D01*
X005202Y006065D01*
X004326Y006065D01*
X004326Y006148D02*
X005202Y006148D01*
X005202Y006231D02*
X004326Y006231D01*
X004326Y006314D02*
X005202Y006314D01*
X005202Y006397D02*
X004326Y006397D01*
X004326Y006480D02*
X005202Y006480D01*
X004326Y005631D02*
X004326Y005155D01*
X004326Y005631D02*
X005202Y005631D01*
X005202Y005155D01*
X004326Y005155D01*
X004326Y005238D02*
X005202Y005238D01*
X005202Y005321D02*
X004326Y005321D01*
X004326Y005404D02*
X005202Y005404D01*
X005202Y005487D02*
X004326Y005487D01*
X004326Y005570D02*
X005202Y005570D01*
X004326Y004721D02*
X004326Y004245D01*
X004326Y004721D02*
X005202Y004721D01*
X005202Y004245D01*
X004326Y004245D01*
X004326Y004328D02*
X005202Y004328D01*
X005202Y004411D02*
X004326Y004411D01*
X004326Y004494D02*
X005202Y004494D01*
X005202Y004577D02*
X004326Y004577D01*
X004326Y004660D02*
X005202Y004660D01*
D12*
X006773Y004687D02*
X006773Y006099D01*
X007635Y006099D01*
X007635Y004687D01*
X006773Y004687D01*
X006773Y004771D02*
X007635Y004771D01*
X007635Y004855D02*
X006773Y004855D01*
X006773Y004939D02*
X007635Y004939D01*
X007635Y005023D02*
X006773Y005023D01*
X006773Y005107D02*
X007635Y005107D01*
X007635Y005191D02*
X006773Y005191D01*
X006773Y005275D02*
X007635Y005275D01*
X007635Y005359D02*
X006773Y005359D01*
X006773Y005443D02*
X007635Y005443D01*
X007635Y005527D02*
X006773Y005527D01*
X006773Y005611D02*
X007635Y005611D01*
X007635Y005695D02*
X006773Y005695D01*
X006773Y005779D02*
X007635Y005779D01*
X007635Y005863D02*
X006773Y005863D01*
X006773Y005947D02*
X007635Y005947D01*
X007635Y006031D02*
X006773Y006031D01*
X009773Y015187D02*
X009773Y016599D01*
X010635Y016599D01*
X010635Y015187D01*
X009773Y015187D01*
X009773Y015271D02*
X010635Y015271D01*
X010635Y015355D02*
X009773Y015355D01*
X009773Y015439D02*
X010635Y015439D01*
X010635Y015523D02*
X009773Y015523D01*
X009773Y015607D02*
X010635Y015607D01*
X010635Y015691D02*
X009773Y015691D01*
X009773Y015775D02*
X010635Y015775D01*
X010635Y015859D02*
X009773Y015859D01*
X009773Y015943D02*
X010635Y015943D01*
X010635Y016027D02*
X009773Y016027D01*
X009773Y016111D02*
X010635Y016111D01*
X010635Y016195D02*
X009773Y016195D01*
X009773Y016279D02*
X010635Y016279D01*
X010635Y016363D02*
X009773Y016363D01*
X009773Y016447D02*
X010635Y016447D01*
X010635Y016531D02*
X009773Y016531D01*
D13*
X011690Y016483D02*
X011690Y015973D01*
X011690Y016483D02*
X012278Y016483D01*
X012278Y015973D01*
X011690Y015973D01*
X011690Y016055D02*
X012278Y016055D01*
X012278Y016137D02*
X011690Y016137D01*
X011690Y016219D02*
X012278Y016219D01*
X012278Y016301D02*
X011690Y016301D01*
X011690Y016383D02*
X012278Y016383D01*
X012278Y016465D02*
X011690Y016465D01*
X011690Y015813D02*
X011690Y015303D01*
X011690Y015813D02*
X012278Y015813D01*
X012278Y015303D01*
X011690Y015303D01*
X011690Y015385D02*
X012278Y015385D01*
X012278Y015467D02*
X011690Y015467D01*
X011690Y015549D02*
X012278Y015549D01*
X012278Y015631D02*
X011690Y015631D01*
X011690Y015713D02*
X012278Y015713D01*
X012278Y015795D02*
X011690Y015795D01*
X013690Y015813D02*
X013690Y015303D01*
X013690Y015813D02*
X014278Y015813D01*
X014278Y015303D01*
X013690Y015303D01*
X013690Y015385D02*
X014278Y015385D01*
X014278Y015467D02*
X013690Y015467D01*
X013690Y015549D02*
X014278Y015549D01*
X014278Y015631D02*
X013690Y015631D01*
X013690Y015713D02*
X014278Y015713D01*
X014278Y015795D02*
X013690Y015795D01*
X013690Y015973D02*
X013690Y016483D01*
X014278Y016483D01*
X014278Y015973D01*
X013690Y015973D01*
X013690Y016055D02*
X014278Y016055D01*
X014278Y016137D02*
X013690Y016137D01*
X013690Y016219D02*
X014278Y016219D01*
X014278Y016301D02*
X013690Y016301D01*
X013690Y016383D02*
X014278Y016383D01*
X014278Y016465D02*
X013690Y016465D01*
X015394Y016187D02*
X015904Y016187D01*
X015904Y015599D01*
X015394Y015599D01*
X015394Y016187D01*
X015394Y015681D02*
X015904Y015681D01*
X015904Y015763D02*
X015394Y015763D01*
X015394Y015845D02*
X015904Y015845D01*
X015904Y015927D02*
X015394Y015927D01*
X015394Y016009D02*
X015904Y016009D01*
X015904Y016091D02*
X015394Y016091D01*
X015394Y016173D02*
X015904Y016173D01*
X016063Y016187D02*
X016573Y016187D01*
X016573Y015599D01*
X016063Y015599D01*
X016063Y016187D01*
X016063Y015681D02*
X016573Y015681D01*
X016573Y015763D02*
X016063Y015763D01*
X016063Y015845D02*
X016573Y015845D01*
X016573Y015927D02*
X016063Y015927D01*
X016063Y016009D02*
X016573Y016009D01*
X016573Y016091D02*
X016063Y016091D01*
X016063Y016173D02*
X016573Y016173D01*
X017394Y016599D02*
X017904Y016599D01*
X017394Y016599D02*
X017394Y017187D01*
X017904Y017187D01*
X017904Y016599D01*
X017904Y016681D02*
X017394Y016681D01*
X017394Y016763D02*
X017904Y016763D01*
X017904Y016845D02*
X017394Y016845D01*
X017394Y016927D02*
X017904Y016927D01*
X017904Y017009D02*
X017394Y017009D01*
X017394Y017091D02*
X017904Y017091D01*
X017904Y017173D02*
X017394Y017173D01*
X018063Y016599D02*
X018573Y016599D01*
X018063Y016599D02*
X018063Y017187D01*
X018573Y017187D01*
X018573Y016599D01*
X018573Y016681D02*
X018063Y016681D01*
X018063Y016763D02*
X018573Y016763D01*
X018573Y016845D02*
X018063Y016845D01*
X018063Y016927D02*
X018573Y016927D01*
X018573Y017009D02*
X018063Y017009D01*
X018063Y017091D02*
X018573Y017091D01*
X018573Y017173D02*
X018063Y017173D01*
X016573Y017599D02*
X016063Y017599D01*
X016063Y018187D01*
X016573Y018187D01*
X016573Y017599D01*
X016573Y017681D02*
X016063Y017681D01*
X016063Y017763D02*
X016573Y017763D01*
X016573Y017845D02*
X016063Y017845D01*
X016063Y017927D02*
X016573Y017927D01*
X016573Y018009D02*
X016063Y018009D01*
X016063Y018091D02*
X016573Y018091D01*
X016573Y018173D02*
X016063Y018173D01*
X015904Y017599D02*
X015394Y017599D01*
X015394Y018187D01*
X015904Y018187D01*
X015904Y017599D01*
X015904Y017681D02*
X015394Y017681D01*
X015394Y017763D02*
X015904Y017763D01*
X015904Y017845D02*
X015394Y017845D01*
X015394Y017927D02*
X015904Y017927D01*
X015904Y018009D02*
X015394Y018009D01*
X015394Y018091D02*
X015904Y018091D01*
X015904Y018173D02*
X015394Y018173D01*
X017690Y013983D02*
X017690Y013473D01*
X017690Y013983D02*
X018278Y013983D01*
X018278Y013473D01*
X017690Y013473D01*
X017690Y013555D02*
X018278Y013555D01*
X018278Y013637D02*
X017690Y013637D01*
X017690Y013719D02*
X018278Y013719D01*
X018278Y013801D02*
X017690Y013801D01*
X017690Y013883D02*
X018278Y013883D01*
X018278Y013965D02*
X017690Y013965D01*
X017690Y013313D02*
X017690Y012803D01*
X017690Y013313D02*
X018278Y013313D01*
X018278Y012803D01*
X017690Y012803D01*
X017690Y012885D02*
X018278Y012885D01*
X018278Y012967D02*
X017690Y012967D01*
X017690Y013049D02*
X018278Y013049D01*
X018278Y013131D02*
X017690Y013131D01*
X017690Y013213D02*
X018278Y013213D01*
X018278Y013295D02*
X017690Y013295D01*
X017278Y006983D02*
X017278Y006473D01*
X016690Y006473D01*
X016690Y006983D01*
X017278Y006983D01*
X017278Y006555D02*
X016690Y006555D01*
X016690Y006637D02*
X017278Y006637D01*
X017278Y006719D02*
X016690Y006719D01*
X016690Y006801D02*
X017278Y006801D01*
X017278Y006883D02*
X016690Y006883D01*
X016690Y006965D02*
X017278Y006965D01*
X017278Y006313D02*
X017278Y005803D01*
X016690Y005803D01*
X016690Y006313D01*
X017278Y006313D01*
X017278Y005885D02*
X016690Y005885D01*
X016690Y005967D02*
X017278Y005967D01*
X017278Y006049D02*
X016690Y006049D01*
X016690Y006131D02*
X017278Y006131D01*
X017278Y006213D02*
X016690Y006213D01*
X016690Y006295D02*
X017278Y006295D01*
X016790Y004183D02*
X016790Y003673D01*
X016790Y004183D02*
X017378Y004183D01*
X017378Y003673D01*
X016790Y003673D01*
X016790Y003755D02*
X017378Y003755D01*
X017378Y003837D02*
X016790Y003837D01*
X016790Y003919D02*
X017378Y003919D01*
X017378Y004001D02*
X016790Y004001D01*
X016790Y004083D02*
X017378Y004083D01*
X017378Y004165D02*
X016790Y004165D01*
X016790Y003513D02*
X016790Y003003D01*
X016790Y003513D02*
X017378Y003513D01*
X017378Y003003D01*
X016790Y003003D01*
X016790Y003085D02*
X017378Y003085D01*
X017378Y003167D02*
X016790Y003167D01*
X016790Y003249D02*
X017378Y003249D01*
X017378Y003331D02*
X016790Y003331D01*
X016790Y003413D02*
X017378Y003413D01*
X017378Y003495D02*
X016790Y003495D01*
X010190Y004803D02*
X010190Y005313D01*
X010778Y005313D01*
X010778Y004803D01*
X010190Y004803D01*
X010190Y004885D02*
X010778Y004885D01*
X010778Y004967D02*
X010190Y004967D01*
X010190Y005049D02*
X010778Y005049D01*
X010778Y005131D02*
X010190Y005131D01*
X010190Y005213D02*
X010778Y005213D01*
X010778Y005295D02*
X010190Y005295D01*
X010190Y005473D02*
X010190Y005983D01*
X010778Y005983D01*
X010778Y005473D01*
X010190Y005473D01*
X010190Y005555D02*
X010778Y005555D01*
X010778Y005637D02*
X010190Y005637D01*
X010190Y005719D02*
X010778Y005719D01*
X010778Y005801D02*
X010190Y005801D01*
X010190Y005883D02*
X010778Y005883D01*
X010778Y005965D02*
X010190Y005965D01*
X008690Y005983D02*
X008690Y005473D01*
X008690Y005983D02*
X009278Y005983D01*
X009278Y005473D01*
X008690Y005473D01*
X008690Y005555D02*
X009278Y005555D01*
X009278Y005637D02*
X008690Y005637D01*
X008690Y005719D02*
X009278Y005719D01*
X009278Y005801D02*
X008690Y005801D01*
X008690Y005883D02*
X009278Y005883D01*
X009278Y005965D02*
X008690Y005965D01*
X008690Y005313D02*
X008690Y004803D01*
X008690Y005313D02*
X009278Y005313D01*
X009278Y004803D01*
X008690Y004803D01*
X008690Y004885D02*
X009278Y004885D01*
X009278Y004967D02*
X008690Y004967D01*
X008690Y005049D02*
X009278Y005049D01*
X009278Y005131D02*
X008690Y005131D01*
X008690Y005213D02*
X009278Y005213D01*
X009278Y005295D02*
X008690Y005295D01*
X005173Y007199D02*
X004663Y007199D01*
X004663Y007787D01*
X005173Y007787D01*
X005173Y007199D01*
X005173Y007281D02*
X004663Y007281D01*
X004663Y007363D02*
X005173Y007363D01*
X005173Y007445D02*
X004663Y007445D01*
X004663Y007527D02*
X005173Y007527D01*
X005173Y007609D02*
X004663Y007609D01*
X004663Y007691D02*
X005173Y007691D01*
X005173Y007773D02*
X004663Y007773D01*
X004504Y007199D02*
X003994Y007199D01*
X003994Y007787D01*
X004504Y007787D01*
X004504Y007199D01*
X004504Y007281D02*
X003994Y007281D01*
X003994Y007363D02*
X004504Y007363D01*
X004504Y007445D02*
X003994Y007445D01*
X003994Y007527D02*
X004504Y007527D01*
X004504Y007609D02*
X003994Y007609D01*
X003994Y007691D02*
X004504Y007691D01*
X004504Y007773D02*
X003994Y007773D01*
X003573Y005687D02*
X003063Y005687D01*
X003573Y005687D02*
X003573Y005099D01*
X003063Y005099D01*
X003063Y005687D01*
X003063Y005181D02*
X003573Y005181D01*
X003573Y005263D02*
X003063Y005263D01*
X003063Y005345D02*
X003573Y005345D01*
X003573Y005427D02*
X003063Y005427D01*
X003063Y005509D02*
X003573Y005509D01*
X003573Y005591D02*
X003063Y005591D01*
X003063Y005673D02*
X003573Y005673D01*
X002904Y005687D02*
X002394Y005687D01*
X002904Y005687D02*
X002904Y005099D01*
X002394Y005099D01*
X002394Y005687D01*
X002394Y005181D02*
X002904Y005181D01*
X002904Y005263D02*
X002394Y005263D01*
X002394Y005345D02*
X002904Y005345D01*
X002904Y005427D02*
X002394Y005427D01*
X002394Y005509D02*
X002904Y005509D01*
X002904Y005591D02*
X002394Y005591D01*
X002394Y005673D02*
X002904Y005673D01*
X005294Y016187D02*
X005804Y016187D01*
X005804Y015599D01*
X005294Y015599D01*
X005294Y016187D01*
X005294Y015681D02*
X005804Y015681D01*
X005804Y015763D02*
X005294Y015763D01*
X005294Y015845D02*
X005804Y015845D01*
X005804Y015927D02*
X005294Y015927D01*
X005294Y016009D02*
X005804Y016009D01*
X005804Y016091D02*
X005294Y016091D01*
X005294Y016173D02*
X005804Y016173D01*
X005963Y016187D02*
X006473Y016187D01*
X006473Y015599D01*
X005963Y015599D01*
X005963Y016187D01*
X005963Y015681D02*
X006473Y015681D01*
X006473Y015763D02*
X005963Y015763D01*
X005963Y015845D02*
X006473Y015845D01*
X006473Y015927D02*
X005963Y015927D01*
X005963Y016009D02*
X006473Y016009D01*
X006473Y016091D02*
X005963Y016091D01*
X005963Y016173D02*
X006473Y016173D01*
X006994Y018387D02*
X007504Y018387D01*
X007504Y017799D01*
X006994Y017799D01*
X006994Y018387D01*
X006994Y017881D02*
X007504Y017881D01*
X007504Y017963D02*
X006994Y017963D01*
X006994Y018045D02*
X007504Y018045D01*
X007504Y018127D02*
X006994Y018127D01*
X006994Y018209D02*
X007504Y018209D01*
X007504Y018291D02*
X006994Y018291D01*
X006994Y018373D02*
X007504Y018373D01*
X007663Y018387D02*
X008173Y018387D01*
X008173Y017799D01*
X007663Y017799D01*
X007663Y018387D01*
X007663Y017881D02*
X008173Y017881D01*
X008173Y017963D02*
X007663Y017963D01*
X007663Y018045D02*
X008173Y018045D01*
X008173Y018127D02*
X007663Y018127D01*
X007663Y018209D02*
X008173Y018209D01*
X008173Y018291D02*
X007663Y018291D01*
X007663Y018373D02*
X008173Y018373D01*
X012490Y023103D02*
X012490Y023613D01*
X013078Y023613D01*
X013078Y023103D01*
X012490Y023103D01*
X012490Y023185D02*
X013078Y023185D01*
X013078Y023267D02*
X012490Y023267D01*
X012490Y023349D02*
X013078Y023349D01*
X013078Y023431D02*
X012490Y023431D01*
X012490Y023513D02*
X013078Y023513D01*
X013078Y023595D02*
X012490Y023595D01*
X012490Y023773D02*
X012490Y024283D01*
X013078Y024283D01*
X013078Y023773D01*
X012490Y023773D01*
X012490Y023855D02*
X013078Y023855D01*
X013078Y023937D02*
X012490Y023937D01*
X012490Y024019D02*
X013078Y024019D01*
X013078Y024101D02*
X012490Y024101D01*
X012490Y024183D02*
X013078Y024183D01*
X013078Y024265D02*
X012490Y024265D01*
X012290Y026403D02*
X012290Y026913D01*
X012878Y026913D01*
X012878Y026403D01*
X012290Y026403D01*
X012290Y026485D02*
X012878Y026485D01*
X012878Y026567D02*
X012290Y026567D01*
X012290Y026649D02*
X012878Y026649D01*
X012878Y026731D02*
X012290Y026731D01*
X012290Y026813D02*
X012878Y026813D01*
X012878Y026895D02*
X012290Y026895D01*
X012290Y027073D02*
X012290Y027583D01*
X012878Y027583D01*
X012878Y027073D01*
X012290Y027073D01*
X012290Y027155D02*
X012878Y027155D01*
X012878Y027237D02*
X012290Y027237D01*
X012290Y027319D02*
X012878Y027319D01*
X012878Y027401D02*
X012290Y027401D01*
X012290Y027483D02*
X012878Y027483D01*
X012878Y027565D02*
X012290Y027565D01*
X014378Y027583D02*
X014378Y027073D01*
X013790Y027073D01*
X013790Y027583D01*
X014378Y027583D01*
X014378Y027155D02*
X013790Y027155D01*
X013790Y027237D02*
X014378Y027237D01*
X014378Y027319D02*
X013790Y027319D01*
X013790Y027401D02*
X014378Y027401D01*
X014378Y027483D02*
X013790Y027483D01*
X013790Y027565D02*
X014378Y027565D01*
X014378Y026913D02*
X014378Y026403D01*
X013790Y026403D01*
X013790Y026913D01*
X014378Y026913D01*
X014378Y026485D02*
X013790Y026485D01*
X013790Y026567D02*
X014378Y026567D01*
X014378Y026649D02*
X013790Y026649D01*
X013790Y026731D02*
X014378Y026731D01*
X014378Y026813D02*
X013790Y026813D01*
X013790Y026895D02*
X014378Y026895D01*
X015090Y025983D02*
X015090Y025473D01*
X015090Y025983D02*
X015678Y025983D01*
X015678Y025473D01*
X015090Y025473D01*
X015090Y025555D02*
X015678Y025555D01*
X015678Y025637D02*
X015090Y025637D01*
X015090Y025719D02*
X015678Y025719D01*
X015678Y025801D02*
X015090Y025801D01*
X015090Y025883D02*
X015678Y025883D01*
X015678Y025965D02*
X015090Y025965D01*
X015090Y025313D02*
X015090Y024803D01*
X015090Y025313D02*
X015678Y025313D01*
X015678Y024803D01*
X015090Y024803D01*
X015090Y024885D02*
X015678Y024885D01*
X015678Y024967D02*
X015090Y024967D01*
X015090Y025049D02*
X015678Y025049D01*
X015678Y025131D02*
X015090Y025131D01*
X015090Y025213D02*
X015678Y025213D01*
X015678Y025295D02*
X015090Y025295D01*
X015394Y022599D02*
X015904Y022599D01*
X015394Y022599D02*
X015394Y023187D01*
X015904Y023187D01*
X015904Y022599D01*
X015904Y022681D02*
X015394Y022681D01*
X015394Y022763D02*
X015904Y022763D01*
X015904Y022845D02*
X015394Y022845D01*
X015394Y022927D02*
X015904Y022927D01*
X015904Y023009D02*
X015394Y023009D01*
X015394Y023091D02*
X015904Y023091D01*
X015904Y023173D02*
X015394Y023173D01*
X016063Y022599D02*
X016573Y022599D01*
X016063Y022599D02*
X016063Y023187D01*
X016573Y023187D01*
X016573Y022599D01*
X016573Y022681D02*
X016063Y022681D01*
X016063Y022763D02*
X016573Y022763D01*
X016573Y022845D02*
X016063Y022845D01*
X016063Y022927D02*
X016573Y022927D01*
X016573Y023009D02*
X016063Y023009D01*
X016063Y023091D02*
X016573Y023091D01*
X016573Y023173D02*
X016063Y023173D01*
X017394Y023599D02*
X017904Y023599D01*
X017394Y023599D02*
X017394Y024187D01*
X017904Y024187D01*
X017904Y023599D01*
X017904Y023681D02*
X017394Y023681D01*
X017394Y023763D02*
X017904Y023763D01*
X017904Y023845D02*
X017394Y023845D01*
X017394Y023927D02*
X017904Y023927D01*
X017904Y024009D02*
X017394Y024009D01*
X017394Y024091D02*
X017904Y024091D01*
X017904Y024173D02*
X017394Y024173D01*
X018063Y023599D02*
X018573Y023599D01*
X018063Y023599D02*
X018063Y024187D01*
X018573Y024187D01*
X018573Y023599D01*
X018573Y023681D02*
X018063Y023681D01*
X018063Y023763D02*
X018573Y023763D01*
X018573Y023845D02*
X018063Y023845D01*
X018063Y023927D02*
X018573Y023927D01*
X018573Y024009D02*
X018063Y024009D01*
X018063Y024091D02*
X018573Y024091D01*
X018573Y024173D02*
X018063Y024173D01*
X028494Y022599D02*
X029004Y022599D01*
X028494Y022599D02*
X028494Y023187D01*
X029004Y023187D01*
X029004Y022599D01*
X029004Y022681D02*
X028494Y022681D01*
X028494Y022763D02*
X029004Y022763D01*
X029004Y022845D02*
X028494Y022845D01*
X028494Y022927D02*
X029004Y022927D01*
X029004Y023009D02*
X028494Y023009D01*
X028494Y023091D02*
X029004Y023091D01*
X029004Y023173D02*
X028494Y023173D01*
X029163Y022599D02*
X029673Y022599D01*
X029163Y022599D02*
X029163Y023187D01*
X029673Y023187D01*
X029673Y022599D01*
X029673Y022681D02*
X029163Y022681D01*
X029163Y022763D02*
X029673Y022763D01*
X029673Y022845D02*
X029163Y022845D01*
X029163Y022927D02*
X029673Y022927D01*
X029673Y023009D02*
X029163Y023009D01*
X029163Y023091D02*
X029673Y023091D01*
X029673Y023173D02*
X029163Y023173D01*
X030494Y023599D02*
X031004Y023599D01*
X030494Y023599D02*
X030494Y024187D01*
X031004Y024187D01*
X031004Y023599D01*
X031004Y023681D02*
X030494Y023681D01*
X030494Y023763D02*
X031004Y023763D01*
X031004Y023845D02*
X030494Y023845D01*
X030494Y023927D02*
X031004Y023927D01*
X031004Y024009D02*
X030494Y024009D01*
X030494Y024091D02*
X031004Y024091D01*
X031004Y024173D02*
X030494Y024173D01*
X031163Y023599D02*
X031673Y023599D01*
X031163Y023599D02*
X031163Y024187D01*
X031673Y024187D01*
X031673Y023599D01*
X031673Y023681D02*
X031163Y023681D01*
X031163Y023763D02*
X031673Y023763D01*
X031673Y023845D02*
X031163Y023845D01*
X031163Y023927D02*
X031673Y023927D01*
X031673Y024009D02*
X031163Y024009D01*
X031163Y024091D02*
X031673Y024091D01*
X031673Y024173D02*
X031163Y024173D01*
X029573Y019599D02*
X029063Y019599D01*
X029063Y020187D01*
X029573Y020187D01*
X029573Y019599D01*
X029573Y019681D02*
X029063Y019681D01*
X029063Y019763D02*
X029573Y019763D01*
X029573Y019845D02*
X029063Y019845D01*
X029063Y019927D02*
X029573Y019927D01*
X029573Y020009D02*
X029063Y020009D01*
X029063Y020091D02*
X029573Y020091D01*
X029573Y020173D02*
X029063Y020173D01*
X028904Y019599D02*
X028394Y019599D01*
X028394Y020187D01*
X028904Y020187D01*
X028904Y019599D01*
X028904Y019681D02*
X028394Y019681D01*
X028394Y019763D02*
X028904Y019763D01*
X028904Y019845D02*
X028394Y019845D01*
X028394Y019927D02*
X028904Y019927D01*
X028904Y020009D02*
X028394Y020009D01*
X028394Y020091D02*
X028904Y020091D01*
X028904Y020173D02*
X028394Y020173D01*
X028394Y014599D02*
X028904Y014599D01*
X028394Y014599D02*
X028394Y015187D01*
X028904Y015187D01*
X028904Y014599D01*
X028904Y014681D02*
X028394Y014681D01*
X028394Y014763D02*
X028904Y014763D01*
X028904Y014845D02*
X028394Y014845D01*
X028394Y014927D02*
X028904Y014927D01*
X028904Y015009D02*
X028394Y015009D01*
X028394Y015091D02*
X028904Y015091D01*
X028904Y015173D02*
X028394Y015173D01*
X029063Y014599D02*
X029573Y014599D01*
X029063Y014599D02*
X029063Y015187D01*
X029573Y015187D01*
X029573Y014599D01*
X029573Y014681D02*
X029063Y014681D01*
X029063Y014763D02*
X029573Y014763D01*
X029573Y014845D02*
X029063Y014845D01*
X029063Y014927D02*
X029573Y014927D01*
X029573Y015009D02*
X029063Y015009D01*
X029063Y015091D02*
X029573Y015091D01*
X029573Y015173D02*
X029063Y015173D01*
X030394Y012599D02*
X030904Y012599D01*
X030394Y012599D02*
X030394Y013187D01*
X030904Y013187D01*
X030904Y012599D01*
X030904Y012681D02*
X030394Y012681D01*
X030394Y012763D02*
X030904Y012763D01*
X030904Y012845D02*
X030394Y012845D01*
X030394Y012927D02*
X030904Y012927D01*
X030904Y013009D02*
X030394Y013009D01*
X030394Y013091D02*
X030904Y013091D01*
X030904Y013173D02*
X030394Y013173D01*
X031063Y012599D02*
X031573Y012599D01*
X031063Y012599D02*
X031063Y013187D01*
X031573Y013187D01*
X031573Y012599D01*
X031573Y012681D02*
X031063Y012681D01*
X031063Y012763D02*
X031573Y012763D01*
X031573Y012845D02*
X031063Y012845D01*
X031063Y012927D02*
X031573Y012927D01*
X031573Y013009D02*
X031063Y013009D01*
X031063Y013091D02*
X031573Y013091D01*
X031573Y013173D02*
X031063Y013173D01*
X029573Y011599D02*
X029063Y011599D01*
X029063Y012187D01*
X029573Y012187D01*
X029573Y011599D01*
X029573Y011681D02*
X029063Y011681D01*
X029063Y011763D02*
X029573Y011763D01*
X029573Y011845D02*
X029063Y011845D01*
X029063Y011927D02*
X029573Y011927D01*
X029573Y012009D02*
X029063Y012009D01*
X029063Y012091D02*
X029573Y012091D01*
X029573Y012173D02*
X029063Y012173D01*
X028904Y011599D02*
X028394Y011599D01*
X028394Y012187D01*
X028904Y012187D01*
X028904Y011599D01*
X028904Y011681D02*
X028394Y011681D01*
X028394Y011763D02*
X028904Y011763D01*
X028904Y011845D02*
X028394Y011845D01*
X028394Y011927D02*
X028904Y011927D01*
X028904Y012009D02*
X028394Y012009D01*
X028394Y012091D02*
X028904Y012091D01*
X028904Y012173D02*
X028394Y012173D01*
X030394Y010599D02*
X030904Y010599D01*
X030394Y010599D02*
X030394Y011187D01*
X030904Y011187D01*
X030904Y010599D01*
X030904Y010681D02*
X030394Y010681D01*
X030394Y010763D02*
X030904Y010763D01*
X030904Y010845D02*
X030394Y010845D01*
X030394Y010927D02*
X030904Y010927D01*
X030904Y011009D02*
X030394Y011009D01*
X030394Y011091D02*
X030904Y011091D01*
X030904Y011173D02*
X030394Y011173D01*
X031063Y010599D02*
X031573Y010599D01*
X031063Y010599D02*
X031063Y011187D01*
X031573Y011187D01*
X031573Y010599D01*
X031573Y010681D02*
X031063Y010681D01*
X031063Y010763D02*
X031573Y010763D01*
X031573Y010845D02*
X031063Y010845D01*
X031063Y010927D02*
X031573Y010927D01*
X031573Y011009D02*
X031063Y011009D01*
X031063Y011091D02*
X031573Y011091D01*
X031573Y011173D02*
X031063Y011173D01*
X029573Y009599D02*
X029063Y009599D01*
X029063Y010187D01*
X029573Y010187D01*
X029573Y009599D01*
X029573Y009681D02*
X029063Y009681D01*
X029063Y009763D02*
X029573Y009763D01*
X029573Y009845D02*
X029063Y009845D01*
X029063Y009927D02*
X029573Y009927D01*
X029573Y010009D02*
X029063Y010009D01*
X029063Y010091D02*
X029573Y010091D01*
X029573Y010173D02*
X029063Y010173D01*
X028904Y009599D02*
X028394Y009599D01*
X028394Y010187D01*
X028904Y010187D01*
X028904Y009599D01*
X028904Y009681D02*
X028394Y009681D01*
X028394Y009763D02*
X028904Y009763D01*
X028904Y009845D02*
X028394Y009845D01*
X028394Y009927D02*
X028904Y009927D01*
X028904Y010009D02*
X028394Y010009D01*
X028394Y010091D02*
X028904Y010091D01*
X028904Y010173D02*
X028394Y010173D01*
X030394Y008599D02*
X030904Y008599D01*
X030394Y008599D02*
X030394Y009187D01*
X030904Y009187D01*
X030904Y008599D01*
X030904Y008681D02*
X030394Y008681D01*
X030394Y008763D02*
X030904Y008763D01*
X030904Y008845D02*
X030394Y008845D01*
X030394Y008927D02*
X030904Y008927D01*
X030904Y009009D02*
X030394Y009009D01*
X030394Y009091D02*
X030904Y009091D01*
X030904Y009173D02*
X030394Y009173D01*
X031063Y008599D02*
X031573Y008599D01*
X031063Y008599D02*
X031063Y009187D01*
X031573Y009187D01*
X031573Y008599D01*
X031573Y008681D02*
X031063Y008681D01*
X031063Y008763D02*
X031573Y008763D01*
X031573Y008845D02*
X031063Y008845D01*
X031063Y008927D02*
X031573Y008927D01*
X031573Y009009D02*
X031063Y009009D01*
X031063Y009091D02*
X031573Y009091D01*
X031573Y009173D02*
X031063Y009173D01*
X029573Y007599D02*
X029063Y007599D01*
X029063Y008187D01*
X029573Y008187D01*
X029573Y007599D01*
X029573Y007681D02*
X029063Y007681D01*
X029063Y007763D02*
X029573Y007763D01*
X029573Y007845D02*
X029063Y007845D01*
X029063Y007927D02*
X029573Y007927D01*
X029573Y008009D02*
X029063Y008009D01*
X029063Y008091D02*
X029573Y008091D01*
X029573Y008173D02*
X029063Y008173D01*
X028904Y007599D02*
X028394Y007599D01*
X028394Y008187D01*
X028904Y008187D01*
X028904Y007599D01*
X028904Y007681D02*
X028394Y007681D01*
X028394Y007763D02*
X028904Y007763D01*
X028904Y007845D02*
X028394Y007845D01*
X028394Y007927D02*
X028904Y007927D01*
X028904Y008009D02*
X028394Y008009D01*
X028394Y008091D02*
X028904Y008091D01*
X028904Y008173D02*
X028394Y008173D01*
X030394Y006599D02*
X030904Y006599D01*
X030394Y006599D02*
X030394Y007187D01*
X030904Y007187D01*
X030904Y006599D01*
X030904Y006681D02*
X030394Y006681D01*
X030394Y006763D02*
X030904Y006763D01*
X030904Y006845D02*
X030394Y006845D01*
X030394Y006927D02*
X030904Y006927D01*
X030904Y007009D02*
X030394Y007009D01*
X030394Y007091D02*
X030904Y007091D01*
X030904Y007173D02*
X030394Y007173D01*
X031063Y006599D02*
X031573Y006599D01*
X031063Y006599D02*
X031063Y007187D01*
X031573Y007187D01*
X031573Y006599D01*
X031573Y006681D02*
X031063Y006681D01*
X031063Y006763D02*
X031573Y006763D01*
X031573Y006845D02*
X031063Y006845D01*
X031063Y006927D02*
X031573Y006927D01*
X031573Y007009D02*
X031063Y007009D01*
X031063Y007091D02*
X031573Y007091D01*
X031573Y007173D02*
X031063Y007173D01*
X029573Y005599D02*
X029063Y005599D01*
X029063Y006187D01*
X029573Y006187D01*
X029573Y005599D01*
X029573Y005681D02*
X029063Y005681D01*
X029063Y005763D02*
X029573Y005763D01*
X029573Y005845D02*
X029063Y005845D01*
X029063Y005927D02*
X029573Y005927D01*
X029573Y006009D02*
X029063Y006009D01*
X029063Y006091D02*
X029573Y006091D01*
X029573Y006173D02*
X029063Y006173D01*
X028904Y005599D02*
X028394Y005599D01*
X028394Y006187D01*
X028904Y006187D01*
X028904Y005599D01*
X028904Y005681D02*
X028394Y005681D01*
X028394Y005763D02*
X028904Y005763D01*
X028904Y005845D02*
X028394Y005845D01*
X028394Y005927D02*
X028904Y005927D01*
X028904Y006009D02*
X028394Y006009D01*
X028394Y006091D02*
X028904Y006091D01*
X028904Y006173D02*
X028394Y006173D01*
D14*
X007984Y013393D03*
X005984Y003393D03*
D15*
X005984Y001393D03*
X007984Y011393D03*
D16*
X034803Y008893D03*
X035590Y008893D03*
X036377Y008893D03*
X037165Y008893D03*
X037165Y003893D03*
X036377Y003893D03*
X035590Y003893D03*
X034803Y003893D03*
X034803Y014393D03*
X035590Y014393D03*
X036377Y014393D03*
X037165Y014393D03*
D17*
X036782Y017995D02*
X036782Y018291D01*
X036782Y017995D02*
X036186Y017995D01*
X036186Y018291D01*
X036782Y018291D01*
X036782Y018078D02*
X036186Y018078D01*
X036186Y018161D02*
X036782Y018161D01*
X036782Y018244D02*
X036186Y018244D01*
X036782Y019495D02*
X036782Y019791D01*
X036782Y019495D02*
X036186Y019495D01*
X036186Y019791D01*
X036782Y019791D01*
X036782Y019578D02*
X036186Y019578D01*
X036186Y019661D02*
X036782Y019661D01*
X036782Y019744D02*
X036186Y019744D01*
X036782Y021495D02*
X036782Y021791D01*
X036782Y021495D02*
X036186Y021495D01*
X036186Y021791D01*
X036782Y021791D01*
X036782Y021578D02*
X036186Y021578D01*
X036186Y021661D02*
X036782Y021661D01*
X036782Y021744D02*
X036186Y021744D01*
X036782Y022995D02*
X036782Y023291D01*
X036782Y022995D02*
X036186Y022995D01*
X036186Y023291D01*
X036782Y023291D01*
X036782Y023078D02*
X036186Y023078D01*
X036186Y023161D02*
X036782Y023161D01*
X036782Y023244D02*
X036186Y023244D01*
X036782Y024995D02*
X036782Y025291D01*
X036782Y024995D02*
X036186Y024995D01*
X036186Y025291D01*
X036782Y025291D01*
X036782Y025078D02*
X036186Y025078D01*
X036186Y025161D02*
X036782Y025161D01*
X036782Y025244D02*
X036186Y025244D01*
X036782Y026495D02*
X036782Y026791D01*
X036782Y026495D02*
X036186Y026495D01*
X036186Y026791D01*
X036782Y026791D01*
X036782Y026578D02*
X036186Y026578D01*
X036186Y026661D02*
X036782Y026661D01*
X036782Y026744D02*
X036186Y026744D01*
X036782Y028495D02*
X036782Y028791D01*
X036782Y028495D02*
X036186Y028495D01*
X036186Y028791D01*
X036782Y028791D01*
X036782Y028578D02*
X036186Y028578D01*
X036186Y028661D02*
X036782Y028661D01*
X036782Y028744D02*
X036186Y028744D01*
X036782Y029995D02*
X036782Y030291D01*
X036782Y029995D02*
X036186Y029995D01*
X036186Y030291D01*
X036782Y030291D01*
X036782Y030078D02*
X036186Y030078D01*
X036186Y030161D02*
X036782Y030161D01*
X036782Y030244D02*
X036186Y030244D01*
X038782Y030291D02*
X038782Y029995D01*
X038186Y029995D01*
X038186Y030291D01*
X038782Y030291D01*
X038782Y030078D02*
X038186Y030078D01*
X038186Y030161D02*
X038782Y030161D01*
X038782Y030244D02*
X038186Y030244D01*
X038782Y028791D02*
X038782Y028495D01*
X038186Y028495D01*
X038186Y028791D01*
X038782Y028791D01*
X038782Y028578D02*
X038186Y028578D01*
X038186Y028661D02*
X038782Y028661D01*
X038782Y028744D02*
X038186Y028744D01*
X038782Y026791D02*
X038782Y026495D01*
X038186Y026495D01*
X038186Y026791D01*
X038782Y026791D01*
X038782Y026578D02*
X038186Y026578D01*
X038186Y026661D02*
X038782Y026661D01*
X038782Y026744D02*
X038186Y026744D01*
X038782Y025291D02*
X038782Y024995D01*
X038186Y024995D01*
X038186Y025291D01*
X038782Y025291D01*
X038782Y025078D02*
X038186Y025078D01*
X038186Y025161D02*
X038782Y025161D01*
X038782Y025244D02*
X038186Y025244D01*
X038782Y023291D02*
X038782Y022995D01*
X038186Y022995D01*
X038186Y023291D01*
X038782Y023291D01*
X038782Y023078D02*
X038186Y023078D01*
X038186Y023161D02*
X038782Y023161D01*
X038782Y023244D02*
X038186Y023244D01*
X038782Y021791D02*
X038782Y021495D01*
X038186Y021495D01*
X038186Y021791D01*
X038782Y021791D01*
X038782Y021578D02*
X038186Y021578D01*
X038186Y021661D02*
X038782Y021661D01*
X038782Y021744D02*
X038186Y021744D01*
X038782Y019791D02*
X038782Y019495D01*
X038186Y019495D01*
X038186Y019791D01*
X038782Y019791D01*
X038782Y019578D02*
X038186Y019578D01*
X038186Y019661D02*
X038782Y019661D01*
X038782Y019744D02*
X038186Y019744D01*
X038782Y018291D02*
X038782Y017995D01*
X038186Y017995D01*
X038186Y018291D01*
X038782Y018291D01*
X038782Y018078D02*
X038186Y018078D01*
X038186Y018161D02*
X038782Y018161D01*
X038782Y018244D02*
X038186Y018244D01*
D18*
X015484Y001893D03*
X014484Y001893D03*
X013484Y001893D03*
X012484Y001893D03*
X011484Y001893D03*
X010484Y001893D03*
X009484Y001893D03*
X009484Y003893D03*
X010484Y003893D03*
X011484Y003893D03*
X002684Y010793D03*
X001684Y010793D03*
X001484Y014893D03*
X002484Y014893D03*
X003484Y014893D03*
X002984Y017393D03*
X001984Y017393D03*
X004484Y020393D03*
X005484Y020393D03*
X006484Y020393D03*
X012184Y030593D03*
X013184Y030593D03*
D19*
X007484Y020393D03*
X016484Y001893D03*
D20*
X009484Y022553D02*
X009484Y023233D01*
X008484Y023233D02*
X008484Y022553D01*
X007484Y022553D02*
X007484Y023233D01*
X004484Y023233D02*
X004484Y022553D01*
X003484Y022553D02*
X003484Y023233D01*
X002484Y023233D02*
X002484Y022553D01*
D21*
X002984Y002893D03*
X003484Y029793D03*
X008484Y029793D03*
X002984Y037893D03*
X042984Y037893D03*
X042984Y002893D03*
D22*
X017949Y026523D02*
X017949Y026763D01*
X017949Y026523D02*
X017079Y026523D01*
X017079Y026763D01*
X017949Y026763D01*
X017949Y026602D02*
X017079Y026602D01*
X017079Y026681D02*
X017949Y026681D01*
X017949Y026760D02*
X017079Y026760D01*
X017949Y027023D02*
X017949Y027263D01*
X017949Y027023D02*
X017079Y027023D01*
X017079Y027263D01*
X017949Y027263D01*
X017949Y027102D02*
X017079Y027102D01*
X017079Y027181D02*
X017949Y027181D01*
X017949Y027260D02*
X017079Y027260D01*
X017949Y027523D02*
X017949Y027763D01*
X017949Y027523D02*
X017079Y027523D01*
X017079Y027763D01*
X017949Y027763D01*
X017949Y027602D02*
X017079Y027602D01*
X017079Y027681D02*
X017949Y027681D01*
X017949Y027760D02*
X017079Y027760D01*
X017949Y028023D02*
X017949Y028263D01*
X017949Y028023D02*
X017079Y028023D01*
X017079Y028263D01*
X017949Y028263D01*
X017949Y028102D02*
X017079Y028102D01*
X017079Y028181D02*
X017949Y028181D01*
X017949Y028260D02*
X017079Y028260D01*
X015889Y028263D02*
X015889Y028023D01*
X015019Y028023D01*
X015019Y028263D01*
X015889Y028263D01*
X015889Y028102D02*
X015019Y028102D01*
X015019Y028181D02*
X015889Y028181D01*
X015889Y028260D02*
X015019Y028260D01*
X015889Y027763D02*
X015889Y027523D01*
X015019Y027523D01*
X015019Y027763D01*
X015889Y027763D01*
X015889Y027602D02*
X015019Y027602D01*
X015019Y027681D02*
X015889Y027681D01*
X015889Y027760D02*
X015019Y027760D01*
X015889Y027263D02*
X015889Y027023D01*
X015019Y027023D01*
X015019Y027263D01*
X015889Y027263D01*
X015889Y027102D02*
X015019Y027102D01*
X015019Y027181D02*
X015889Y027181D01*
X015889Y027260D02*
X015019Y027260D01*
X015889Y026763D02*
X015889Y026523D01*
X015019Y026523D01*
X015019Y026763D01*
X015889Y026763D01*
X015889Y026602D02*
X015019Y026602D01*
X015019Y026681D02*
X015889Y026681D01*
X015889Y026760D02*
X015019Y026760D01*
D23*
X013792Y025964D02*
X013792Y025570D01*
X013242Y025570D01*
X013242Y025964D01*
X013792Y025964D01*
X013792Y025650D02*
X013242Y025650D01*
X013242Y025730D02*
X013792Y025730D01*
X013792Y025810D02*
X013242Y025810D01*
X013242Y025890D02*
X013792Y025890D01*
X013792Y025216D02*
X013792Y024822D01*
X013242Y024822D01*
X013242Y025216D01*
X013792Y025216D01*
X013792Y024902D02*
X013242Y024902D01*
X013242Y024982D02*
X013792Y024982D01*
X013792Y025062D02*
X013242Y025062D01*
X013242Y025142D02*
X013792Y025142D01*
X012926Y025196D02*
X012926Y025590D01*
X012926Y025196D02*
X012376Y025196D01*
X012376Y025590D01*
X012926Y025590D01*
X012926Y025276D02*
X012376Y025276D01*
X012376Y025356D02*
X012926Y025356D01*
X012926Y025436D02*
X012376Y025436D01*
X012376Y025516D02*
X012926Y025516D01*
X013692Y028022D02*
X013692Y028416D01*
X013692Y028022D02*
X013142Y028022D01*
X013142Y028416D01*
X013692Y028416D01*
X013692Y028102D02*
X013142Y028102D01*
X013142Y028182D02*
X013692Y028182D01*
X013692Y028262D02*
X013142Y028262D01*
X013142Y028342D02*
X013692Y028342D01*
X013692Y028770D02*
X013692Y029164D01*
X013692Y028770D02*
X013142Y028770D01*
X013142Y029164D01*
X013692Y029164D01*
X013692Y028850D02*
X013142Y028850D01*
X013142Y028930D02*
X013692Y028930D01*
X013692Y029010D02*
X013142Y029010D01*
X013142Y029090D02*
X013692Y029090D01*
X012826Y028790D02*
X012826Y028396D01*
X012276Y028396D01*
X012276Y028790D01*
X012826Y028790D01*
X012826Y028476D02*
X012276Y028476D01*
X012276Y028556D02*
X012826Y028556D01*
X012826Y028636D02*
X012276Y028636D01*
X012276Y028716D02*
X012826Y028716D01*
M02*
