G75*
G70*
%OFA0B0*%
%FSLAX24Y24*%
%IPPOS*%
%LPD*%
%AMOC8*
5,1,8,0,0,1.08239X$1,22.5*
%
%ADD10C,0.0560*%
%ADD11C,0.0750*%
%ADD12OC8,0.0750*%
%ADD13C,0.0634*%
%ADD14C,0.0740*%
%ADD15R,0.0740X0.0740*%
%ADD16C,0.0680*%
%ADD17C,0.0500*%
%ADD18C,0.0436*%
%ADD19C,0.0160*%
D10*
X020204Y005893D02*
X020764Y005893D01*
X020764Y006893D02*
X020204Y006893D01*
X020204Y007893D02*
X020764Y007893D01*
X020764Y008893D02*
X020204Y008893D01*
X020204Y009893D02*
X020764Y009893D01*
X020764Y010893D02*
X020204Y010893D01*
X020204Y011893D02*
X020764Y011893D01*
X020764Y012893D02*
X020204Y012893D01*
X020204Y013893D02*
X020764Y013893D01*
X020764Y014893D02*
X020204Y014893D01*
X020204Y015893D02*
X020764Y015893D01*
X020764Y016893D02*
X020204Y016893D01*
X020204Y017893D02*
X020764Y017893D01*
X020764Y018893D02*
X020204Y018893D01*
X020204Y019893D02*
X020764Y019893D01*
X020764Y020893D02*
X020204Y020893D01*
X020204Y021893D02*
X020764Y021893D01*
X020764Y022893D02*
X020204Y022893D01*
X020204Y023893D02*
X020764Y023893D01*
X020764Y024893D02*
X020204Y024893D01*
X026204Y024893D02*
X026764Y024893D01*
X026764Y023893D02*
X026204Y023893D01*
X026204Y022893D02*
X026764Y022893D01*
X026764Y021893D02*
X026204Y021893D01*
X026204Y020893D02*
X026764Y020893D01*
X026764Y019893D02*
X026204Y019893D01*
X026204Y018893D02*
X026764Y018893D01*
X026764Y017893D02*
X026204Y017893D01*
X026204Y016893D02*
X026764Y016893D01*
X026764Y015893D02*
X026204Y015893D01*
X026204Y014893D02*
X026764Y014893D01*
X026764Y013893D02*
X026204Y013893D01*
X026204Y012893D02*
X026764Y012893D01*
X026764Y011893D02*
X026204Y011893D01*
X026204Y010893D02*
X026764Y010893D01*
X026764Y009893D02*
X026204Y009893D01*
X026204Y008893D02*
X026764Y008893D01*
X026764Y007893D02*
X026204Y007893D01*
X026204Y006893D02*
X026764Y006893D01*
X026764Y005893D02*
X026204Y005893D01*
D11*
X007984Y013393D03*
X005984Y003393D03*
D12*
X005984Y001393D03*
X007984Y011393D03*
D13*
X034803Y008893D03*
X035590Y008893D03*
X036377Y008893D03*
X037165Y008893D03*
X037165Y003893D03*
X036377Y003893D03*
X035590Y003893D03*
X034803Y003893D03*
X034803Y014393D03*
X035590Y014393D03*
X036377Y014393D03*
X037165Y014393D03*
D14*
X015484Y001893D03*
X014484Y001893D03*
X013484Y001893D03*
X012484Y001893D03*
X011484Y001893D03*
X010484Y001893D03*
X009484Y001893D03*
X009484Y003893D03*
X010484Y003893D03*
X011484Y003893D03*
X002684Y010793D03*
X001684Y010793D03*
X001484Y014893D03*
X002484Y014893D03*
X003484Y014893D03*
X002984Y017393D03*
X001984Y017393D03*
X004484Y020393D03*
X005484Y020393D03*
X006484Y020393D03*
X012184Y030593D03*
X013184Y030593D03*
D15*
X007484Y020393D03*
X016484Y001893D03*
D16*
X009484Y022553D02*
X009484Y023233D01*
X008484Y023233D02*
X008484Y022553D01*
X007484Y022553D02*
X007484Y023233D01*
X004484Y023233D02*
X004484Y022553D01*
X003484Y022553D02*
X003484Y023233D01*
X002484Y023233D02*
X002484Y022553D01*
D17*
X013984Y017693D03*
X010484Y007093D03*
D18*
X011984Y004893D03*
X014484Y007893D03*
X013484Y008893D03*
X012484Y009893D03*
X016384Y014693D03*
X017984Y014693D03*
X016684Y016893D03*
X015684Y021593D03*
X014884Y024093D03*
X014584Y025893D03*
X017684Y025093D03*
X021784Y023893D03*
X022484Y022893D03*
X024984Y025693D03*
X024084Y026193D03*
X022484Y026693D03*
X021784Y030093D03*
X011484Y026693D03*
X007484Y027293D03*
X002484Y023993D03*
X006284Y009493D03*
X018184Y005793D03*
X028684Y013893D03*
X024984Y016893D03*
X024084Y017893D03*
X030484Y019893D03*
X033384Y019693D03*
X034984Y022893D03*
X032584Y023893D03*
X033384Y025693D03*
X032584Y027493D03*
X034984Y028293D03*
X034084Y012893D03*
X036484Y009893D03*
X037984Y010893D03*
X038884Y011893D03*
X036384Y006893D03*
X035684Y005893D03*
X033484Y008893D03*
X030484Y003893D03*
D19*
X030484Y019893D01*
X030862Y019894D02*
X032784Y019894D01*
X032784Y020052D02*
X030827Y020052D01*
X030804Y020107D02*
X030698Y020214D01*
X030559Y020271D01*
X030409Y020271D01*
X030270Y020214D01*
X030163Y020107D01*
X030106Y019968D01*
X030106Y019818D01*
X030163Y019679D01*
X030244Y019598D01*
X030244Y004593D01*
X015984Y004593D01*
X014724Y005853D01*
X014724Y007598D01*
X014804Y007679D01*
X014862Y007818D01*
X014862Y007968D01*
X014804Y008107D01*
X014698Y008214D01*
X014559Y008271D01*
X014409Y008271D01*
X014270Y008214D01*
X014163Y008107D01*
X014106Y007968D01*
X014106Y007818D01*
X014163Y007679D01*
X014244Y007598D01*
X014244Y006333D01*
X013724Y006853D01*
X013724Y008598D01*
X013804Y008679D01*
X013862Y008818D01*
X013862Y008968D01*
X013804Y009107D01*
X013698Y009214D01*
X013559Y009271D01*
X013409Y009271D01*
X013270Y009214D01*
X013163Y009107D01*
X013106Y008968D01*
X013106Y008818D01*
X013163Y008679D01*
X013244Y008598D01*
X013244Y007333D01*
X012724Y007853D01*
X012724Y009598D01*
X012804Y009679D01*
X012862Y009818D01*
X012862Y009968D01*
X012804Y010107D01*
X012698Y010214D01*
X012559Y010271D01*
X012409Y010271D01*
X012270Y010214D01*
X012163Y010107D01*
X012106Y009968D01*
X012106Y009818D01*
X012163Y009679D01*
X012244Y009598D01*
X012244Y008333D01*
X012145Y008432D01*
X012124Y009397D01*
X012124Y009441D01*
X012123Y009443D01*
X012123Y009446D01*
X012104Y009488D01*
X012087Y009529D01*
X012085Y009531D01*
X012084Y009533D01*
X012051Y009565D01*
X011487Y010129D01*
X011420Y010196D01*
X011384Y010211D01*
X011384Y019193D01*
X011284Y019193D01*
X018584Y026493D01*
X021544Y026493D01*
X021544Y024188D01*
X021463Y024107D01*
X021406Y023968D01*
X021406Y023818D01*
X021463Y023679D01*
X021570Y023573D01*
X021709Y023515D01*
X021859Y023515D01*
X021998Y023573D01*
X022104Y023679D01*
X022162Y023818D01*
X022162Y023968D01*
X022104Y024107D01*
X022024Y024188D01*
X022024Y026493D01*
X022157Y026493D01*
X022163Y026479D01*
X022244Y026398D01*
X022244Y023188D01*
X022163Y023107D01*
X022106Y022968D01*
X022106Y022818D01*
X022163Y022679D01*
X022270Y022573D01*
X022409Y022515D01*
X022559Y022515D01*
X022698Y022573D01*
X022804Y022679D01*
X022862Y022818D01*
X022862Y022968D01*
X022804Y023107D01*
X022724Y023188D01*
X022724Y026398D01*
X022804Y026479D01*
X022810Y026493D01*
X023849Y026493D01*
X023763Y026407D01*
X023706Y026268D01*
X023706Y026118D01*
X023763Y025979D01*
X023844Y025898D01*
X023844Y018188D01*
X023763Y018107D01*
X023706Y017968D01*
X023706Y017818D01*
X023763Y017679D01*
X023870Y017573D01*
X024009Y017515D01*
X024159Y017515D01*
X024298Y017573D01*
X024404Y017679D01*
X024462Y017818D01*
X024462Y017968D01*
X024404Y018107D01*
X024324Y018188D01*
X024324Y025898D01*
X024404Y025979D01*
X024462Y026118D01*
X024462Y026268D01*
X024404Y026407D01*
X024318Y026493D01*
X029684Y026493D01*
X032207Y023970D01*
X032206Y023968D01*
X032206Y023818D01*
X032263Y023679D01*
X032370Y023573D01*
X032509Y023515D01*
X032659Y023515D01*
X032661Y023516D01*
X032784Y023393D01*
X032784Y004593D01*
X030724Y004593D01*
X030724Y019598D01*
X030804Y019679D01*
X030862Y019818D01*
X030862Y019968D01*
X030804Y020107D01*
X030701Y020211D02*
X032784Y020211D01*
X032784Y020370D02*
X025224Y020370D01*
X025224Y020528D02*
X025946Y020528D01*
X025955Y020520D02*
X026116Y020453D01*
X026851Y020453D01*
X027013Y020520D01*
X027137Y020644D01*
X027204Y020806D01*
X027204Y020981D01*
X027137Y021142D01*
X027013Y021266D01*
X026851Y021333D01*
X026116Y021333D01*
X025955Y021266D01*
X025831Y021142D01*
X025764Y020981D01*
X025764Y020806D01*
X025831Y020644D01*
X025955Y020520D01*
X025813Y020687D02*
X025224Y020687D01*
X025224Y020845D02*
X025764Y020845D01*
X025773Y021004D02*
X025224Y021004D01*
X025224Y021162D02*
X025851Y021162D01*
X026087Y021321D02*
X025224Y021321D01*
X025224Y021479D02*
X026053Y021479D01*
X026116Y021453D02*
X025955Y021520D01*
X025831Y021644D01*
X025764Y021806D01*
X025764Y021981D01*
X025831Y022142D01*
X025955Y022266D01*
X026116Y022333D01*
X026851Y022333D01*
X027013Y022266D01*
X027137Y022142D01*
X027204Y021981D01*
X027204Y021806D01*
X027137Y021644D01*
X027013Y021520D01*
X026851Y021453D01*
X026116Y021453D01*
X025837Y021638D02*
X025224Y021638D01*
X025224Y021796D02*
X025768Y021796D01*
X025764Y021955D02*
X025224Y021955D01*
X025224Y022114D02*
X025819Y022114D01*
X025969Y022272D02*
X025224Y022272D01*
X025224Y022431D02*
X032784Y022431D01*
X032784Y022589D02*
X027082Y022589D01*
X027137Y022644D02*
X027204Y022806D01*
X027204Y022981D01*
X027137Y023142D01*
X027013Y023266D01*
X026851Y023333D01*
X026116Y023333D01*
X025955Y023266D01*
X025831Y023142D01*
X025764Y022981D01*
X025764Y022806D01*
X025831Y022644D01*
X025955Y022520D01*
X026116Y022453D01*
X026851Y022453D01*
X027013Y022520D01*
X027137Y022644D01*
X027180Y022748D02*
X032784Y022748D01*
X032784Y022906D02*
X027204Y022906D01*
X027169Y023065D02*
X032784Y023065D01*
X032784Y023223D02*
X027056Y023223D01*
X027013Y023520D02*
X026851Y023453D01*
X026116Y023453D01*
X025955Y023520D01*
X025831Y023644D01*
X025764Y023806D01*
X025764Y023981D01*
X025831Y024142D01*
X025955Y024266D01*
X026116Y024333D01*
X026851Y024333D01*
X027013Y024266D01*
X027137Y024142D01*
X027204Y023981D01*
X027204Y023806D01*
X027137Y023644D01*
X027013Y023520D01*
X027033Y023540D02*
X032447Y023540D01*
X032255Y023699D02*
X027160Y023699D01*
X027204Y023857D02*
X032206Y023857D01*
X032161Y024016D02*
X027189Y024016D01*
X027104Y024175D02*
X032002Y024175D01*
X031844Y024333D02*
X025224Y024333D01*
X025224Y024175D02*
X025863Y024175D01*
X025778Y024016D02*
X025224Y024016D01*
X025224Y023857D02*
X025764Y023857D01*
X025808Y023699D02*
X025224Y023699D01*
X025224Y023540D02*
X025934Y023540D01*
X025912Y023223D02*
X025224Y023223D01*
X025224Y023065D02*
X025799Y023065D01*
X025764Y022906D02*
X025224Y022906D01*
X025224Y022748D02*
X025788Y022748D01*
X025885Y022589D02*
X025224Y022589D01*
X024744Y022589D02*
X024324Y022589D01*
X024324Y022431D02*
X024744Y022431D01*
X024744Y022272D02*
X024324Y022272D01*
X024324Y022114D02*
X024744Y022114D01*
X024744Y021955D02*
X024324Y021955D01*
X024324Y021796D02*
X024744Y021796D01*
X024744Y021638D02*
X024324Y021638D01*
X024324Y021479D02*
X024744Y021479D01*
X024744Y021321D02*
X024324Y021321D01*
X024324Y021162D02*
X024744Y021162D01*
X024744Y021004D02*
X024324Y021004D01*
X024324Y020845D02*
X024744Y020845D01*
X024744Y020687D02*
X024324Y020687D01*
X024324Y020528D02*
X024744Y020528D01*
X024744Y020370D02*
X024324Y020370D01*
X024324Y020211D02*
X024744Y020211D01*
X024744Y020052D02*
X024324Y020052D01*
X024324Y019894D02*
X024744Y019894D01*
X024744Y019735D02*
X024324Y019735D01*
X024324Y019577D02*
X024744Y019577D01*
X024744Y019418D02*
X024324Y019418D01*
X024324Y019260D02*
X024744Y019260D01*
X024744Y019101D02*
X024324Y019101D01*
X024324Y018943D02*
X024744Y018943D01*
X024744Y018784D02*
X024324Y018784D01*
X024324Y018626D02*
X024744Y018626D01*
X024744Y018467D02*
X024324Y018467D01*
X024324Y018308D02*
X024744Y018308D01*
X024744Y018150D02*
X024362Y018150D01*
X024452Y017991D02*
X024744Y017991D01*
X024744Y017833D02*
X024462Y017833D01*
X024400Y017674D02*
X024744Y017674D01*
X024744Y017516D02*
X024161Y017516D01*
X024007Y017516D02*
X021003Y017516D01*
X021013Y017520D02*
X021137Y017644D01*
X021204Y017806D01*
X021204Y017981D01*
X021137Y018142D01*
X021013Y018266D01*
X020851Y018333D01*
X020116Y018333D01*
X019955Y018266D01*
X019831Y018142D01*
X019764Y017981D01*
X019764Y017806D01*
X019831Y017644D01*
X019955Y017520D01*
X020116Y017453D01*
X020851Y017453D01*
X021013Y017520D01*
X021149Y017674D02*
X023768Y017674D01*
X023706Y017833D02*
X021204Y017833D01*
X021199Y017991D02*
X023715Y017991D01*
X023806Y018150D02*
X021129Y018150D01*
X020911Y018308D02*
X023844Y018308D01*
X023844Y018467D02*
X020885Y018467D01*
X020851Y018453D02*
X021013Y018520D01*
X021137Y018644D01*
X021204Y018806D01*
X021204Y018981D01*
X021137Y019142D01*
X021013Y019266D01*
X020851Y019333D01*
X020116Y019333D01*
X019955Y019266D01*
X019831Y019142D01*
X019764Y018981D01*
X019764Y018806D01*
X019831Y018644D01*
X019955Y018520D01*
X020116Y018453D01*
X020851Y018453D01*
X021119Y018626D02*
X023844Y018626D01*
X023844Y018784D02*
X021195Y018784D01*
X021204Y018943D02*
X023844Y018943D01*
X023844Y019101D02*
X021154Y019101D01*
X021019Y019260D02*
X023844Y019260D01*
X023844Y019418D02*
X011509Y019418D01*
X011350Y019260D02*
X019948Y019260D01*
X019814Y019101D02*
X011384Y019101D01*
X011384Y018943D02*
X019764Y018943D01*
X019773Y018784D02*
X011384Y018784D01*
X011384Y018626D02*
X019849Y018626D01*
X020083Y018467D02*
X011384Y018467D01*
X011384Y018308D02*
X020057Y018308D01*
X019838Y018150D02*
X011384Y018150D01*
X011384Y017991D02*
X019768Y017991D01*
X019764Y017833D02*
X011384Y017833D01*
X011384Y017674D02*
X019818Y017674D01*
X019965Y017516D02*
X011384Y017516D01*
X011384Y017357D02*
X024744Y017357D01*
X024744Y017199D02*
X021080Y017199D01*
X021137Y017142D02*
X021013Y017266D01*
X020851Y017333D01*
X020116Y017333D01*
X019955Y017266D01*
X019831Y017142D01*
X019764Y016981D01*
X019764Y016806D01*
X019831Y016644D01*
X019955Y016520D01*
X020116Y016453D01*
X020851Y016453D01*
X021013Y016520D01*
X021137Y016644D01*
X021204Y016806D01*
X021204Y016981D01*
X021137Y017142D01*
X021179Y017040D02*
X024635Y017040D01*
X024663Y017107D02*
X024606Y016968D01*
X024606Y016818D01*
X024663Y016679D01*
X024770Y016573D01*
X024909Y016515D01*
X025059Y016515D01*
X025198Y016573D01*
X025304Y016679D01*
X025362Y016818D01*
X025362Y016968D01*
X025304Y017107D01*
X025224Y017188D01*
X025224Y025398D01*
X025304Y025479D01*
X025362Y025618D01*
X025362Y025768D01*
X025304Y025907D01*
X025198Y026014D01*
X025059Y026071D01*
X024909Y026071D01*
X024770Y026014D01*
X024663Y025907D01*
X024606Y025768D01*
X024606Y025618D01*
X024663Y025479D01*
X024744Y025398D01*
X024744Y017188D01*
X024663Y017107D01*
X024606Y016882D02*
X021204Y016882D01*
X021170Y016723D02*
X024645Y016723D01*
X024789Y016564D02*
X021057Y016564D01*
X020940Y016319D02*
X020871Y016342D01*
X020800Y016353D01*
X020484Y016353D01*
X020484Y015893D01*
X020484Y015893D01*
X021224Y015893D01*
X021224Y015857D01*
X021212Y015785D01*
X021190Y015716D01*
X021157Y015652D01*
X021115Y015593D01*
X021063Y015542D01*
X021005Y015500D01*
X020940Y015467D01*
X020871Y015444D01*
X020800Y015433D01*
X020484Y015433D01*
X020484Y015893D01*
X021224Y015893D01*
X021224Y015929D01*
X021212Y016001D01*
X021190Y016070D01*
X021157Y016134D01*
X021115Y016193D01*
X021063Y016244D01*
X021005Y016286D01*
X020940Y016319D01*
X021059Y016247D02*
X025936Y016247D01*
X025955Y016266D02*
X025831Y016142D01*
X025764Y015981D01*
X025764Y015806D01*
X025831Y015644D01*
X025955Y015520D01*
X026116Y015453D01*
X026851Y015453D01*
X027013Y015520D01*
X027137Y015644D01*
X027204Y015806D01*
X027204Y015981D01*
X027137Y016142D01*
X027013Y016266D01*
X026851Y016333D01*
X026116Y016333D01*
X025955Y016266D01*
X025809Y016089D02*
X021180Y016089D01*
X021224Y015930D02*
X025764Y015930D01*
X025778Y015772D02*
X021208Y015772D01*
X021129Y015613D02*
X025861Y015613D01*
X026112Y015455D02*
X020903Y015455D01*
X020851Y015333D02*
X020116Y015333D01*
X019955Y015266D01*
X019831Y015142D01*
X019764Y014981D01*
X019764Y014806D01*
X019831Y014644D01*
X019955Y014520D01*
X020116Y014453D01*
X020851Y014453D01*
X021013Y014520D01*
X021137Y014644D01*
X021204Y014806D01*
X021204Y014981D01*
X021137Y015142D01*
X021013Y015266D01*
X020851Y015333D01*
X020940Y015296D02*
X025982Y015296D01*
X025963Y015286D02*
X025904Y015244D01*
X025853Y015193D01*
X025810Y015134D01*
X025777Y015070D01*
X025755Y015001D01*
X025744Y014929D01*
X025744Y014893D01*
X025744Y014857D01*
X025755Y014785D01*
X025777Y014716D01*
X025810Y014652D01*
X025853Y014593D01*
X025904Y014542D01*
X025963Y014500D01*
X026027Y014467D01*
X026096Y014444D01*
X026168Y014433D01*
X026484Y014433D01*
X026800Y014433D01*
X026871Y014444D01*
X026940Y014467D01*
X027005Y014500D01*
X027063Y014542D01*
X027115Y014593D01*
X027157Y014652D01*
X027190Y014716D01*
X027212Y014785D01*
X027224Y014857D01*
X027224Y014893D01*
X026484Y014893D01*
X026484Y014893D01*
X027224Y014893D01*
X027224Y014929D01*
X027212Y015001D01*
X027190Y015070D01*
X027157Y015134D01*
X027115Y015193D01*
X027063Y015244D01*
X027005Y015286D01*
X026940Y015319D01*
X026871Y015342D01*
X026800Y015353D01*
X026484Y015353D01*
X026484Y014893D01*
X026484Y014433D01*
X026484Y014893D01*
X026484Y014893D01*
X026484Y014893D01*
X026484Y015353D01*
X026168Y015353D01*
X026096Y015342D01*
X026027Y015319D01*
X025963Y015286D01*
X025813Y015138D02*
X021139Y015138D01*
X021204Y014979D02*
X025752Y014979D01*
X025744Y014893D02*
X026483Y014893D01*
X025744Y014893D01*
X025750Y014821D02*
X021204Y014821D01*
X021144Y014662D02*
X025805Y014662D01*
X025957Y014503D02*
X020973Y014503D01*
X020851Y014333D02*
X020116Y014333D01*
X019955Y014266D01*
X019831Y014142D01*
X019764Y013981D01*
X019764Y013806D01*
X019831Y013644D01*
X019955Y013520D01*
X020116Y013453D01*
X020851Y013453D01*
X021013Y013520D01*
X021137Y013644D01*
X021204Y013806D01*
X021204Y013981D01*
X021137Y014142D01*
X021013Y014266D01*
X020851Y014333D01*
X021093Y014186D02*
X025875Y014186D01*
X025831Y014142D02*
X025955Y014266D01*
X026116Y014333D01*
X026851Y014333D01*
X027013Y014266D01*
X027137Y014142D01*
X027204Y013981D01*
X027204Y013806D01*
X027137Y013644D01*
X027013Y013520D01*
X026851Y013453D01*
X026116Y013453D01*
X025955Y013520D01*
X025831Y013644D01*
X025764Y013806D01*
X025764Y013981D01*
X025831Y014142D01*
X025783Y014028D02*
X021184Y014028D01*
X021204Y013869D02*
X025764Y013869D01*
X025803Y013711D02*
X021164Y013711D01*
X021045Y013552D02*
X025922Y013552D01*
X025955Y013266D02*
X025831Y013142D01*
X025764Y012981D01*
X025764Y012806D01*
X025831Y012644D01*
X025955Y012520D01*
X026116Y012453D01*
X026851Y012453D01*
X027013Y012520D01*
X027137Y012644D01*
X027204Y012806D01*
X027204Y012981D01*
X027137Y013142D01*
X027013Y013266D01*
X026851Y013333D01*
X026116Y013333D01*
X025955Y013266D01*
X025924Y013235D02*
X021044Y013235D01*
X021013Y013266D02*
X020851Y013333D01*
X020116Y013333D01*
X019955Y013266D01*
X019831Y013142D01*
X019764Y012981D01*
X019764Y012806D01*
X019831Y012644D01*
X019955Y012520D01*
X020116Y012453D01*
X020851Y012453D01*
X021013Y012520D01*
X021137Y012644D01*
X021204Y012806D01*
X021204Y012981D01*
X021137Y013142D01*
X021013Y013266D01*
X021164Y013077D02*
X025804Y013077D01*
X025764Y012918D02*
X021204Y012918D01*
X021185Y012759D02*
X025783Y012759D01*
X025874Y012601D02*
X021094Y012601D01*
X020970Y012284D02*
X025997Y012284D01*
X025955Y012266D02*
X025831Y012142D01*
X025764Y011981D01*
X025764Y011806D01*
X025831Y011644D01*
X025955Y011520D01*
X026116Y011453D01*
X026851Y011453D01*
X027013Y011520D01*
X027137Y011644D01*
X027204Y011806D01*
X027204Y011981D01*
X027137Y012142D01*
X027013Y012266D01*
X026851Y012333D01*
X026116Y012333D01*
X025955Y012266D01*
X025824Y012125D02*
X021144Y012125D01*
X021137Y012142D02*
X021013Y012266D01*
X020851Y012333D01*
X020116Y012333D01*
X019955Y012266D01*
X019831Y012142D01*
X019764Y011981D01*
X019764Y011806D01*
X019831Y011644D01*
X019955Y011520D01*
X020116Y011453D01*
X020851Y011453D01*
X021013Y011520D01*
X021137Y011644D01*
X021204Y011806D01*
X021204Y011981D01*
X021137Y012142D01*
X021204Y011967D02*
X025764Y011967D01*
X025764Y011808D02*
X021204Y011808D01*
X021139Y011650D02*
X025828Y011650D01*
X026024Y011491D02*
X020943Y011491D01*
X020852Y011333D02*
X026115Y011333D01*
X026116Y011333D02*
X025955Y011266D01*
X025831Y011142D01*
X025764Y010981D01*
X025764Y010806D01*
X025831Y010644D01*
X025955Y010520D01*
X026116Y010453D01*
X026851Y010453D01*
X027013Y010520D01*
X027137Y010644D01*
X027204Y010806D01*
X027204Y010981D01*
X027137Y011142D01*
X027013Y011266D01*
X026851Y011333D01*
X026116Y011333D01*
X025862Y011174D02*
X021105Y011174D01*
X021137Y011142D02*
X021013Y011266D01*
X020851Y011333D01*
X020116Y011333D01*
X019955Y011266D01*
X019831Y011142D01*
X019764Y010981D01*
X019764Y010806D01*
X019831Y010644D01*
X019955Y010520D01*
X020116Y010453D01*
X020851Y010453D01*
X021013Y010520D01*
X021137Y010644D01*
X021204Y010806D01*
X021204Y010981D01*
X021137Y011142D01*
X021189Y011015D02*
X025778Y011015D01*
X025764Y010857D02*
X021204Y010857D01*
X021159Y010698D02*
X025808Y010698D01*
X025935Y010540D02*
X021033Y010540D01*
X021013Y010266D02*
X020851Y010333D01*
X020116Y010333D01*
X019955Y010266D01*
X019831Y010142D01*
X019764Y009981D01*
X019764Y009806D01*
X019831Y009644D01*
X019955Y009520D01*
X020116Y009453D01*
X020851Y009453D01*
X021013Y009520D01*
X021137Y009644D01*
X021204Y009806D01*
X021204Y009981D01*
X021137Y010142D01*
X021013Y010266D01*
X021056Y010223D02*
X025911Y010223D01*
X025955Y010266D02*
X025831Y010142D01*
X025764Y009981D01*
X025764Y009806D01*
X025831Y009644D01*
X025955Y009520D01*
X026116Y009453D01*
X026851Y009453D01*
X027013Y009520D01*
X027137Y009644D01*
X027204Y009806D01*
X027204Y009981D01*
X027137Y010142D01*
X027013Y010266D01*
X026851Y010333D01*
X026116Y010333D01*
X025955Y010266D01*
X025798Y010064D02*
X021169Y010064D01*
X021204Y009906D02*
X025764Y009906D01*
X025788Y009747D02*
X021180Y009747D01*
X021082Y009589D02*
X025886Y009589D01*
X025968Y009271D02*
X021000Y009271D01*
X021013Y009266D02*
X020851Y009333D01*
X020116Y009333D01*
X019955Y009266D01*
X019831Y009142D01*
X019764Y008981D01*
X019764Y008806D01*
X019831Y008644D01*
X019955Y008520D01*
X020116Y008453D01*
X020851Y008453D01*
X021013Y008520D01*
X021137Y008644D01*
X021204Y008806D01*
X021204Y008981D01*
X021137Y009142D01*
X021013Y009266D01*
X021149Y009113D02*
X025819Y009113D01*
X025831Y009142D02*
X025764Y008981D01*
X025764Y008806D01*
X025831Y008644D01*
X025955Y008520D01*
X026116Y008453D01*
X026851Y008453D01*
X027013Y008520D01*
X027137Y008644D01*
X027204Y008806D01*
X027204Y008981D01*
X027137Y009142D01*
X027013Y009266D01*
X026851Y009333D01*
X026116Y009333D01*
X025955Y009266D01*
X025831Y009142D01*
X025764Y008954D02*
X021204Y008954D01*
X021200Y008796D02*
X025768Y008796D01*
X025837Y008637D02*
X021130Y008637D01*
X020913Y008479D02*
X026054Y008479D01*
X026116Y008333D02*
X025955Y008266D01*
X025831Y008142D01*
X025764Y007981D01*
X025764Y007806D01*
X025831Y007644D01*
X025955Y007520D01*
X026116Y007453D01*
X026851Y007453D01*
X027013Y007520D01*
X027137Y007644D01*
X027204Y007806D01*
X027204Y007981D01*
X027137Y008142D01*
X027013Y008266D01*
X026851Y008333D01*
X026116Y008333D01*
X026085Y008320D02*
X020882Y008320D01*
X020851Y008333D02*
X020116Y008333D01*
X019955Y008266D01*
X019831Y008142D01*
X019764Y007981D01*
X019764Y007806D01*
X019831Y007644D01*
X019955Y007520D01*
X020116Y007453D01*
X020851Y007453D01*
X021013Y007520D01*
X021137Y007644D01*
X021204Y007806D01*
X021204Y007981D01*
X021137Y008142D01*
X021013Y008266D01*
X020851Y008333D01*
X021117Y008162D02*
X025850Y008162D01*
X025773Y008003D02*
X021194Y008003D01*
X021204Y007845D02*
X025764Y007845D01*
X025813Y007686D02*
X021154Y007686D01*
X021020Y007528D02*
X025947Y007528D01*
X026116Y007333D02*
X025955Y007266D01*
X025831Y007142D01*
X025764Y006981D01*
X025764Y006806D01*
X025831Y006644D01*
X025955Y006520D01*
X026116Y006453D01*
X026851Y006453D01*
X027013Y006520D01*
X027137Y006644D01*
X027204Y006806D01*
X027204Y006981D01*
X027137Y007142D01*
X027013Y007266D01*
X026851Y007333D01*
X026116Y007333D01*
X025899Y007210D02*
X021069Y007210D01*
X021013Y007266D02*
X020851Y007333D01*
X020116Y007333D01*
X019955Y007266D01*
X019831Y007142D01*
X019764Y006981D01*
X019764Y006806D01*
X019831Y006644D01*
X019955Y006520D01*
X020116Y006453D01*
X020851Y006453D01*
X021013Y006520D01*
X021137Y006644D01*
X021204Y006806D01*
X021204Y006981D01*
X021137Y007142D01*
X021013Y007266D01*
X021174Y007052D02*
X025793Y007052D01*
X025764Y006893D02*
X021204Y006893D01*
X021174Y006735D02*
X025793Y006735D01*
X025898Y006576D02*
X021069Y006576D01*
X021013Y006266D02*
X020851Y006333D01*
X020116Y006333D01*
X019955Y006266D01*
X019831Y006142D01*
X019764Y005981D01*
X019764Y005806D01*
X019831Y005644D01*
X019955Y005520D01*
X020116Y005453D01*
X020851Y005453D01*
X021013Y005520D01*
X021137Y005644D01*
X021204Y005806D01*
X021204Y005981D01*
X021137Y006142D01*
X021013Y006266D01*
X021020Y006259D02*
X025948Y006259D01*
X025955Y006266D02*
X025831Y006142D01*
X025764Y005981D01*
X025764Y005806D01*
X025831Y005644D01*
X025955Y005520D01*
X026116Y005453D01*
X026851Y005453D01*
X027013Y005520D01*
X027137Y005644D01*
X027204Y005806D01*
X027204Y005981D01*
X027137Y006142D01*
X027013Y006266D01*
X026851Y006333D01*
X026116Y006333D01*
X025955Y006266D01*
X025814Y006101D02*
X021154Y006101D01*
X021204Y005942D02*
X025764Y005942D01*
X025773Y005784D02*
X021195Y005784D01*
X021118Y005625D02*
X025850Y005625D01*
X026084Y005466D02*
X020884Y005466D01*
X020084Y005466D02*
X015110Y005466D01*
X015269Y005308D02*
X030244Y005308D01*
X030244Y005466D02*
X026884Y005466D01*
X027118Y005625D02*
X030244Y005625D01*
X030244Y005784D02*
X027195Y005784D01*
X027204Y005942D02*
X030244Y005942D01*
X030244Y006101D02*
X027154Y006101D01*
X027020Y006259D02*
X030244Y006259D01*
X030244Y006418D02*
X014724Y006418D01*
X014724Y006576D02*
X019898Y006576D01*
X019793Y006735D02*
X014724Y006735D01*
X014724Y006893D02*
X019764Y006893D01*
X019793Y007052D02*
X014724Y007052D01*
X014724Y007210D02*
X019899Y007210D01*
X019947Y007528D02*
X014724Y007528D01*
X014724Y007369D02*
X030244Y007369D01*
X030244Y007528D02*
X027020Y007528D01*
X027154Y007686D02*
X030244Y007686D01*
X030244Y007845D02*
X027204Y007845D01*
X027194Y008003D02*
X030244Y008003D01*
X030244Y008162D02*
X027117Y008162D01*
X026882Y008320D02*
X030244Y008320D01*
X030244Y008479D02*
X026913Y008479D01*
X027130Y008637D02*
X030244Y008637D01*
X030244Y008796D02*
X027200Y008796D01*
X027204Y008954D02*
X030244Y008954D01*
X030244Y009113D02*
X027149Y009113D01*
X027000Y009271D02*
X030244Y009271D01*
X030244Y009430D02*
X012724Y009430D01*
X012724Y009271D02*
X019968Y009271D01*
X019819Y009113D02*
X013799Y009113D01*
X013862Y008954D02*
X019764Y008954D01*
X019768Y008796D02*
X013853Y008796D01*
X013763Y008637D02*
X019837Y008637D01*
X020054Y008479D02*
X013724Y008479D01*
X013724Y008320D02*
X020085Y008320D01*
X019850Y008162D02*
X014750Y008162D01*
X014847Y008003D02*
X019773Y008003D01*
X019764Y007845D02*
X014862Y007845D01*
X014807Y007686D02*
X019813Y007686D01*
X019948Y006259D02*
X014724Y006259D01*
X014724Y006101D02*
X019814Y006101D01*
X019764Y005942D02*
X014724Y005942D01*
X014793Y005784D02*
X019773Y005784D01*
X019850Y005625D02*
X014952Y005625D01*
X015427Y005149D02*
X030244Y005149D01*
X030244Y004991D02*
X015586Y004991D01*
X015745Y004832D02*
X030244Y004832D01*
X030244Y004674D02*
X015903Y004674D01*
X014244Y006418D02*
X014159Y006418D01*
X014244Y006576D02*
X014001Y006576D01*
X013842Y006735D02*
X014244Y006735D01*
X014244Y006893D02*
X013724Y006893D01*
X013724Y007052D02*
X014244Y007052D01*
X014244Y007210D02*
X013724Y007210D01*
X013724Y007369D02*
X014244Y007369D01*
X014244Y007528D02*
X013724Y007528D01*
X013724Y007686D02*
X014160Y007686D01*
X014106Y007845D02*
X013724Y007845D01*
X013724Y008003D02*
X014120Y008003D01*
X014218Y008162D02*
X013724Y008162D01*
X013244Y008162D02*
X012724Y008162D01*
X012724Y008320D02*
X013244Y008320D01*
X013244Y008479D02*
X012724Y008479D01*
X012724Y008637D02*
X013205Y008637D01*
X013115Y008796D02*
X012724Y008796D01*
X012724Y008954D02*
X013106Y008954D01*
X013169Y009113D02*
X012724Y009113D01*
X012724Y009589D02*
X019886Y009589D01*
X019788Y009747D02*
X012833Y009747D01*
X012862Y009906D02*
X019764Y009906D01*
X019798Y010064D02*
X012822Y010064D01*
X012676Y010223D02*
X019911Y010223D01*
X019935Y010540D02*
X011384Y010540D01*
X011384Y010698D02*
X019808Y010698D01*
X019764Y010857D02*
X011384Y010857D01*
X011384Y011015D02*
X019778Y011015D01*
X019862Y011174D02*
X011384Y011174D01*
X011384Y011333D02*
X020115Y011333D01*
X020024Y011491D02*
X011384Y011491D01*
X011384Y011650D02*
X019828Y011650D01*
X019764Y011808D02*
X011384Y011808D01*
X011384Y011967D02*
X019764Y011967D01*
X019824Y012125D02*
X011384Y012125D01*
X011384Y012284D02*
X019997Y012284D01*
X019874Y012601D02*
X011384Y012601D01*
X011384Y012759D02*
X019783Y012759D01*
X019764Y012918D02*
X011384Y012918D01*
X011384Y013077D02*
X019804Y013077D01*
X019924Y013235D02*
X011384Y013235D01*
X011384Y013394D02*
X030244Y013394D01*
X030244Y013552D02*
X027045Y013552D01*
X027164Y013711D02*
X030244Y013711D01*
X030244Y013869D02*
X027204Y013869D01*
X027184Y014028D02*
X030244Y014028D01*
X030244Y014186D02*
X027093Y014186D01*
X027010Y014503D02*
X030244Y014503D01*
X030244Y014345D02*
X018131Y014345D01*
X018198Y014373D02*
X018304Y014479D01*
X018362Y014618D01*
X018362Y014768D01*
X018304Y014907D01*
X018198Y015014D01*
X018059Y015071D01*
X017909Y015071D01*
X017770Y015014D01*
X017663Y014907D01*
X017606Y014768D01*
X017606Y014618D01*
X017663Y014479D01*
X017770Y014373D01*
X017909Y014315D01*
X018059Y014315D01*
X018198Y014373D01*
X018314Y014503D02*
X019995Y014503D01*
X019823Y014662D02*
X018362Y014662D01*
X018340Y014821D02*
X019764Y014821D01*
X019764Y014979D02*
X018232Y014979D01*
X017735Y014979D02*
X011384Y014979D01*
X011384Y014821D02*
X017627Y014821D01*
X017606Y014662D02*
X011384Y014662D01*
X011384Y014503D02*
X017653Y014503D01*
X017836Y014345D02*
X011384Y014345D01*
X011384Y014186D02*
X019875Y014186D01*
X019783Y014028D02*
X011384Y014028D01*
X011384Y013869D02*
X019764Y013869D01*
X019803Y013711D02*
X011384Y013711D01*
X011384Y013552D02*
X019922Y013552D01*
X019829Y015138D02*
X011384Y015138D01*
X011384Y015296D02*
X020027Y015296D01*
X020064Y015455D02*
X011384Y015455D01*
X011384Y015613D02*
X019838Y015613D01*
X019853Y015593D02*
X019810Y015652D01*
X019777Y015716D01*
X019755Y015785D01*
X019744Y015857D01*
X019744Y015893D01*
X020483Y015893D01*
X020483Y015893D01*
X019744Y015893D01*
X019744Y015929D01*
X019755Y016001D01*
X019777Y016070D01*
X019810Y016134D01*
X019853Y016193D01*
X019904Y016244D01*
X019963Y016286D01*
X020027Y016319D01*
X020096Y016342D01*
X020168Y016353D01*
X020484Y016353D01*
X020484Y015893D01*
X020484Y015893D01*
X020484Y015893D01*
X020484Y015433D01*
X020168Y015433D01*
X020096Y015444D01*
X020027Y015467D01*
X019963Y015500D01*
X019904Y015542D01*
X019853Y015593D01*
X019759Y015772D02*
X011384Y015772D01*
X011384Y015930D02*
X019744Y015930D01*
X019787Y016089D02*
X011384Y016089D01*
X011384Y016247D02*
X019909Y016247D01*
X019910Y016564D02*
X011384Y016564D01*
X011384Y016406D02*
X030244Y016406D01*
X030244Y016564D02*
X027057Y016564D01*
X027013Y016520D02*
X027137Y016644D01*
X027204Y016806D01*
X027204Y016981D01*
X027137Y017142D01*
X027013Y017266D01*
X026851Y017333D01*
X026116Y017333D01*
X025955Y017266D01*
X025831Y017142D01*
X025764Y016981D01*
X025764Y016806D01*
X025831Y016644D01*
X025955Y016520D01*
X026116Y016453D01*
X026851Y016453D01*
X027013Y016520D01*
X027170Y016723D02*
X030244Y016723D01*
X030244Y016882D02*
X027204Y016882D01*
X027179Y017040D02*
X030244Y017040D01*
X030244Y017199D02*
X027080Y017199D01*
X027003Y017516D02*
X030244Y017516D01*
X030244Y017674D02*
X027149Y017674D01*
X027137Y017644D02*
X027204Y017806D01*
X027204Y017981D01*
X027137Y018142D01*
X027013Y018266D01*
X026851Y018333D01*
X026116Y018333D01*
X025955Y018266D01*
X025831Y018142D01*
X025764Y017981D01*
X025764Y017806D01*
X025831Y017644D01*
X025955Y017520D01*
X026116Y017453D01*
X026851Y017453D01*
X027013Y017520D01*
X027137Y017644D01*
X027204Y017833D02*
X030244Y017833D01*
X030244Y017991D02*
X027199Y017991D01*
X027129Y018150D02*
X030244Y018150D01*
X030244Y018308D02*
X026911Y018308D01*
X026851Y018453D02*
X027013Y018520D01*
X027137Y018644D01*
X027204Y018806D01*
X027204Y018981D01*
X027137Y019142D01*
X027013Y019266D01*
X026851Y019333D01*
X026116Y019333D01*
X025955Y019266D01*
X025831Y019142D01*
X025764Y018981D01*
X025764Y018806D01*
X025831Y018644D01*
X025955Y018520D01*
X026116Y018453D01*
X026851Y018453D01*
X026885Y018467D02*
X030244Y018467D01*
X030244Y018626D02*
X027119Y018626D01*
X027195Y018784D02*
X030244Y018784D01*
X030244Y018943D02*
X027204Y018943D01*
X027154Y019101D02*
X030244Y019101D01*
X030244Y019260D02*
X027019Y019260D01*
X026851Y019453D02*
X027013Y019520D01*
X027137Y019644D01*
X027204Y019806D01*
X027204Y019981D01*
X027137Y020142D01*
X027013Y020266D01*
X026851Y020333D01*
X026116Y020333D01*
X025955Y020266D01*
X025831Y020142D01*
X025764Y019981D01*
X025764Y019806D01*
X025831Y019644D01*
X025955Y019520D01*
X026116Y019453D01*
X026851Y019453D01*
X027070Y019577D02*
X030244Y019577D01*
X030244Y019418D02*
X025224Y019418D01*
X025224Y019260D02*
X025948Y019260D01*
X025814Y019101D02*
X025224Y019101D01*
X025224Y018943D02*
X025764Y018943D01*
X025773Y018784D02*
X025224Y018784D01*
X025224Y018626D02*
X025849Y018626D01*
X026083Y018467D02*
X025224Y018467D01*
X025224Y018308D02*
X026057Y018308D01*
X025838Y018150D02*
X025224Y018150D01*
X025224Y017991D02*
X025768Y017991D01*
X025764Y017833D02*
X025224Y017833D01*
X025224Y017674D02*
X025818Y017674D01*
X025965Y017516D02*
X025224Y017516D01*
X025224Y017357D02*
X030244Y017357D01*
X030724Y017357D02*
X032784Y017357D01*
X032784Y017199D02*
X030724Y017199D01*
X030724Y017040D02*
X032784Y017040D01*
X032784Y016882D02*
X030724Y016882D01*
X030724Y016723D02*
X032784Y016723D01*
X032784Y016564D02*
X030724Y016564D01*
X030724Y016406D02*
X032784Y016406D01*
X032784Y016247D02*
X030724Y016247D01*
X030724Y016089D02*
X032784Y016089D01*
X032784Y015930D02*
X030724Y015930D01*
X030724Y015772D02*
X032784Y015772D01*
X032784Y015613D02*
X030724Y015613D01*
X030724Y015455D02*
X032784Y015455D01*
X032784Y015296D02*
X030724Y015296D01*
X030724Y015138D02*
X032784Y015138D01*
X032784Y014979D02*
X030724Y014979D01*
X030724Y014821D02*
X032784Y014821D01*
X032784Y014662D02*
X030724Y014662D01*
X030724Y014503D02*
X032784Y014503D01*
X032784Y014345D02*
X030724Y014345D01*
X030724Y014186D02*
X032784Y014186D01*
X032784Y014028D02*
X030724Y014028D01*
X030724Y013869D02*
X032784Y013869D01*
X032784Y013711D02*
X030724Y013711D01*
X030724Y013552D02*
X032784Y013552D01*
X032784Y013394D02*
X030724Y013394D01*
X030724Y013235D02*
X032784Y013235D01*
X032784Y013077D02*
X030724Y013077D01*
X030724Y012918D02*
X032784Y012918D01*
X032784Y012759D02*
X030724Y012759D01*
X030724Y012601D02*
X032784Y012601D01*
X032784Y012442D02*
X030724Y012442D01*
X030724Y012284D02*
X032784Y012284D01*
X032784Y012125D02*
X030724Y012125D01*
X030724Y011967D02*
X032784Y011967D01*
X032784Y011808D02*
X030724Y011808D01*
X030724Y011650D02*
X032784Y011650D01*
X032784Y011491D02*
X030724Y011491D01*
X030724Y011333D02*
X032784Y011333D01*
X032784Y011174D02*
X030724Y011174D01*
X030724Y011015D02*
X032784Y011015D01*
X032784Y010857D02*
X030724Y010857D01*
X030724Y010698D02*
X032784Y010698D01*
X032784Y010540D02*
X030724Y010540D01*
X030724Y010381D02*
X032784Y010381D01*
X032784Y010223D02*
X030724Y010223D01*
X030724Y010064D02*
X032784Y010064D01*
X032784Y009906D02*
X030724Y009906D01*
X030724Y009747D02*
X032784Y009747D01*
X032784Y009589D02*
X030724Y009589D01*
X030724Y009430D02*
X032784Y009430D01*
X032784Y009271D02*
X030724Y009271D01*
X030724Y009113D02*
X032784Y009113D01*
X032784Y008954D02*
X030724Y008954D01*
X030724Y008796D02*
X032784Y008796D01*
X032784Y008637D02*
X030724Y008637D01*
X030724Y008479D02*
X032784Y008479D01*
X032784Y008320D02*
X030724Y008320D01*
X030724Y008162D02*
X032784Y008162D01*
X032784Y008003D02*
X030724Y008003D01*
X030724Y007845D02*
X032784Y007845D01*
X032784Y007686D02*
X030724Y007686D01*
X030724Y007528D02*
X032784Y007528D01*
X032784Y007369D02*
X030724Y007369D01*
X030724Y007210D02*
X032784Y007210D01*
X032784Y007052D02*
X030724Y007052D01*
X030724Y006893D02*
X032784Y006893D01*
X032784Y006735D02*
X030724Y006735D01*
X030724Y006576D02*
X032784Y006576D01*
X032784Y006418D02*
X030724Y006418D01*
X030724Y006259D02*
X032784Y006259D01*
X032784Y006101D02*
X030724Y006101D01*
X030724Y005942D02*
X032784Y005942D01*
X032784Y005784D02*
X030724Y005784D01*
X030724Y005625D02*
X032784Y005625D01*
X032784Y005466D02*
X030724Y005466D01*
X030724Y005308D02*
X032784Y005308D01*
X032784Y005149D02*
X030724Y005149D01*
X030724Y004991D02*
X032784Y004991D01*
X032784Y004832D02*
X030724Y004832D01*
X030724Y004674D02*
X032784Y004674D01*
X034084Y004612D02*
X034803Y003893D01*
X034084Y004612D02*
X034084Y012893D01*
X033484Y013393D02*
X034803Y014393D01*
X036377Y014393D02*
X036484Y009893D01*
X036377Y008893D02*
X036384Y006893D01*
X035684Y005893D02*
X035684Y008012D01*
X034803Y008893D01*
X033484Y008893D02*
X033484Y013393D01*
X030244Y013235D02*
X027044Y013235D01*
X027164Y013077D02*
X030244Y013077D01*
X030244Y012918D02*
X027204Y012918D01*
X027185Y012759D02*
X030244Y012759D01*
X030244Y012601D02*
X027094Y012601D01*
X026970Y012284D02*
X030244Y012284D01*
X030244Y012442D02*
X011384Y012442D01*
X011384Y010381D02*
X030244Y010381D01*
X030244Y010223D02*
X027056Y010223D01*
X027169Y010064D02*
X030244Y010064D01*
X030244Y009906D02*
X027204Y009906D01*
X027180Y009747D02*
X030244Y009747D01*
X030244Y009589D02*
X027082Y009589D01*
X027033Y010540D02*
X030244Y010540D01*
X030244Y010698D02*
X027159Y010698D01*
X027204Y010857D02*
X030244Y010857D01*
X030244Y011015D02*
X027189Y011015D01*
X027105Y011174D02*
X030244Y011174D01*
X030244Y011333D02*
X026852Y011333D01*
X026943Y011491D02*
X030244Y011491D01*
X030244Y011650D02*
X027139Y011650D01*
X027204Y011808D02*
X030244Y011808D01*
X030244Y011967D02*
X027204Y011967D01*
X027144Y012125D02*
X030244Y012125D01*
X030244Y014662D02*
X027162Y014662D01*
X027218Y014821D02*
X030244Y014821D01*
X030244Y014979D02*
X027216Y014979D01*
X027155Y015138D02*
X030244Y015138D01*
X030244Y015296D02*
X026986Y015296D01*
X026855Y015455D02*
X030244Y015455D01*
X030244Y015613D02*
X027106Y015613D01*
X027190Y015772D02*
X030244Y015772D01*
X030244Y015930D02*
X027204Y015930D01*
X027159Y016089D02*
X030244Y016089D01*
X030244Y016247D02*
X027032Y016247D01*
X025910Y016564D02*
X025179Y016564D01*
X025323Y016723D02*
X025798Y016723D01*
X025764Y016882D02*
X025362Y016882D01*
X025332Y017040D02*
X025788Y017040D01*
X025887Y017199D02*
X025224Y017199D01*
X024984Y016893D02*
X024984Y025693D01*
X025268Y025443D02*
X030734Y025443D01*
X030892Y025284D02*
X026969Y025284D01*
X027013Y025266D02*
X026851Y025333D01*
X026116Y025333D01*
X025955Y025266D01*
X025831Y025142D01*
X025764Y024981D01*
X025764Y024806D01*
X025831Y024644D01*
X025955Y024520D01*
X026116Y024453D01*
X026851Y024453D01*
X027013Y024520D01*
X027137Y024644D01*
X027204Y024806D01*
X027204Y024981D01*
X027137Y025142D01*
X027013Y025266D01*
X027144Y025126D02*
X031051Y025126D01*
X031210Y024967D02*
X027204Y024967D01*
X027204Y024809D02*
X031368Y024809D01*
X031527Y024650D02*
X027139Y024650D01*
X026944Y024492D02*
X031685Y024492D01*
X032584Y023893D02*
X032584Y027493D01*
X033384Y025693D02*
X033384Y019693D01*
X032784Y019735D02*
X030828Y019735D01*
X030724Y019577D02*
X032784Y019577D01*
X032784Y019418D02*
X030724Y019418D01*
X030724Y019260D02*
X032784Y019260D01*
X032784Y019101D02*
X030724Y019101D01*
X030724Y018943D02*
X032784Y018943D01*
X032784Y018784D02*
X030724Y018784D01*
X030724Y018626D02*
X032784Y018626D01*
X032784Y018467D02*
X030724Y018467D01*
X030724Y018308D02*
X032784Y018308D01*
X032784Y018150D02*
X030724Y018150D01*
X030724Y017991D02*
X032784Y017991D01*
X032784Y017833D02*
X030724Y017833D01*
X030724Y017674D02*
X032784Y017674D01*
X032784Y017516D02*
X030724Y017516D01*
X030140Y019735D02*
X027175Y019735D01*
X027204Y019894D02*
X030106Y019894D01*
X030141Y020052D02*
X027174Y020052D01*
X027068Y020211D02*
X030267Y020211D01*
X032784Y020528D02*
X027021Y020528D01*
X027154Y020687D02*
X032784Y020687D01*
X032784Y020845D02*
X027204Y020845D01*
X027194Y021004D02*
X032784Y021004D01*
X032784Y021162D02*
X027117Y021162D01*
X026881Y021321D02*
X032784Y021321D01*
X032784Y021479D02*
X026915Y021479D01*
X027131Y021638D02*
X032784Y021638D01*
X032784Y021796D02*
X027200Y021796D01*
X027204Y021955D02*
X032784Y021955D01*
X032784Y022114D02*
X027149Y022114D01*
X026999Y022272D02*
X032784Y022272D01*
X032784Y023382D02*
X025224Y023382D01*
X024744Y023382D02*
X024324Y023382D01*
X024324Y023540D02*
X024744Y023540D01*
X024744Y023699D02*
X024324Y023699D01*
X024324Y023857D02*
X024744Y023857D01*
X024744Y024016D02*
X024324Y024016D01*
X024324Y024175D02*
X024744Y024175D01*
X024744Y024333D02*
X024324Y024333D01*
X024324Y024492D02*
X024744Y024492D01*
X024744Y024650D02*
X024324Y024650D01*
X024324Y024809D02*
X024744Y024809D01*
X024744Y024967D02*
X024324Y024967D01*
X024324Y025126D02*
X024744Y025126D01*
X024744Y025284D02*
X024324Y025284D01*
X024324Y025443D02*
X024699Y025443D01*
X024612Y025601D02*
X024324Y025601D01*
X024324Y025760D02*
X024606Y025760D01*
X024675Y025919D02*
X024344Y025919D01*
X024445Y026077D02*
X030100Y026077D01*
X030258Y025919D02*
X025293Y025919D01*
X025362Y025760D02*
X030417Y025760D01*
X030575Y025601D02*
X025355Y025601D01*
X025224Y025284D02*
X025999Y025284D01*
X025824Y025126D02*
X025224Y025126D01*
X025224Y024967D02*
X025764Y024967D01*
X025764Y024809D02*
X025224Y024809D01*
X025224Y024650D02*
X025828Y024650D01*
X026023Y024492D02*
X025224Y024492D01*
X024744Y023223D02*
X024324Y023223D01*
X024324Y023065D02*
X024744Y023065D01*
X024744Y022906D02*
X024324Y022906D01*
X024324Y022748D02*
X024744Y022748D01*
X023844Y022748D02*
X022833Y022748D01*
X022862Y022906D02*
X023844Y022906D01*
X023844Y023065D02*
X022822Y023065D01*
X022724Y023223D02*
X023844Y023223D01*
X023844Y023382D02*
X022724Y023382D01*
X022724Y023540D02*
X023844Y023540D01*
X023844Y023699D02*
X022724Y023699D01*
X022724Y023857D02*
X023844Y023857D01*
X023844Y024016D02*
X022724Y024016D01*
X022724Y024175D02*
X023844Y024175D01*
X023844Y024333D02*
X022724Y024333D01*
X022724Y024492D02*
X023844Y024492D01*
X023844Y024650D02*
X022724Y024650D01*
X022724Y024809D02*
X023844Y024809D01*
X023844Y024967D02*
X022724Y024967D01*
X022724Y025126D02*
X023844Y025126D01*
X023844Y025284D02*
X022724Y025284D01*
X022724Y025443D02*
X023844Y025443D01*
X023844Y025601D02*
X022724Y025601D01*
X022724Y025760D02*
X023844Y025760D01*
X023824Y025919D02*
X022724Y025919D01*
X022724Y026077D02*
X023723Y026077D01*
X023706Y026236D02*
X022724Y026236D01*
X022724Y026394D02*
X023758Y026394D01*
X024084Y026193D02*
X024084Y017893D01*
X023844Y019577D02*
X021070Y019577D01*
X021013Y019520D02*
X021137Y019644D01*
X021204Y019806D01*
X021204Y019981D01*
X021137Y020142D01*
X021013Y020266D01*
X020851Y020333D01*
X020116Y020333D01*
X019955Y020266D01*
X019831Y020142D01*
X019764Y019981D01*
X019764Y019806D01*
X019831Y019644D01*
X019955Y019520D01*
X020116Y019453D01*
X020851Y019453D01*
X021013Y019520D01*
X021175Y019735D02*
X023844Y019735D01*
X023844Y019894D02*
X021204Y019894D01*
X021174Y020052D02*
X023844Y020052D01*
X023844Y020211D02*
X021068Y020211D01*
X021013Y020520D02*
X021137Y020644D01*
X021204Y020806D01*
X021204Y020981D01*
X021137Y021142D01*
X021013Y021266D01*
X020851Y021333D01*
X020116Y021333D01*
X019955Y021266D01*
X019831Y021142D01*
X019764Y020981D01*
X019764Y020806D01*
X019831Y020644D01*
X019955Y020520D01*
X020116Y020453D01*
X020851Y020453D01*
X021013Y020520D01*
X021021Y020528D02*
X023844Y020528D01*
X023844Y020370D02*
X012460Y020370D01*
X012619Y020528D02*
X019946Y020528D01*
X019813Y020687D02*
X012777Y020687D01*
X012936Y020845D02*
X019764Y020845D01*
X019773Y021004D02*
X013094Y021004D01*
X013253Y021162D02*
X019851Y021162D01*
X020087Y021321D02*
X013411Y021321D01*
X013570Y021479D02*
X020053Y021479D01*
X020116Y021453D02*
X019955Y021520D01*
X019831Y021644D01*
X019764Y021806D01*
X019764Y021981D01*
X019831Y022142D01*
X019955Y022266D01*
X020116Y022333D01*
X020851Y022333D01*
X021013Y022266D01*
X021137Y022142D01*
X021204Y021981D01*
X021204Y021806D01*
X021137Y021644D01*
X021013Y021520D01*
X020851Y021453D01*
X020116Y021453D01*
X019837Y021638D02*
X013729Y021638D01*
X013887Y021796D02*
X019768Y021796D01*
X019764Y021955D02*
X014046Y021955D01*
X014204Y022114D02*
X019819Y022114D01*
X019969Y022272D02*
X014363Y022272D01*
X014521Y022431D02*
X023844Y022431D01*
X023844Y022589D02*
X022715Y022589D01*
X022484Y022893D02*
X022484Y026693D01*
X022244Y026394D02*
X022024Y026394D01*
X022024Y026236D02*
X022244Y026236D01*
X022244Y026077D02*
X022024Y026077D01*
X022024Y025919D02*
X022244Y025919D01*
X022244Y025760D02*
X022024Y025760D01*
X022024Y025601D02*
X022244Y025601D01*
X022244Y025443D02*
X022024Y025443D01*
X022024Y025284D02*
X022244Y025284D01*
X022244Y025126D02*
X022024Y025126D01*
X022024Y024967D02*
X022244Y024967D01*
X022244Y024809D02*
X022024Y024809D01*
X022024Y024650D02*
X022244Y024650D01*
X022244Y024492D02*
X022024Y024492D01*
X022024Y024333D02*
X022244Y024333D01*
X022244Y024175D02*
X022037Y024175D01*
X022142Y024016D02*
X022244Y024016D01*
X022244Y023857D02*
X022162Y023857D01*
X022113Y023699D02*
X022244Y023699D01*
X022244Y023540D02*
X021920Y023540D01*
X021647Y023540D02*
X021033Y023540D01*
X021013Y023520D02*
X021137Y023644D01*
X021204Y023806D01*
X021204Y023981D01*
X021137Y024142D01*
X021013Y024266D01*
X020851Y024333D01*
X020116Y024333D01*
X019955Y024266D01*
X019831Y024142D01*
X019764Y023981D01*
X019764Y023806D01*
X019831Y023644D01*
X019955Y023520D01*
X020116Y023453D01*
X020851Y023453D01*
X021013Y023520D01*
X021160Y023699D02*
X021455Y023699D01*
X021406Y023857D02*
X021204Y023857D01*
X021189Y024016D02*
X021425Y024016D01*
X021531Y024175D02*
X021104Y024175D01*
X020944Y024492D02*
X021544Y024492D01*
X021544Y024650D02*
X021139Y024650D01*
X021137Y024644D02*
X021204Y024806D01*
X021204Y024981D01*
X021137Y025142D01*
X021013Y025266D01*
X020851Y025333D01*
X020116Y025333D01*
X019955Y025266D01*
X019831Y025142D01*
X019764Y024981D01*
X019764Y024806D01*
X019831Y024644D01*
X019955Y024520D01*
X020116Y024453D01*
X020851Y024453D01*
X021013Y024520D01*
X021137Y024644D01*
X021204Y024809D02*
X021544Y024809D01*
X021544Y024967D02*
X021204Y024967D01*
X021144Y025126D02*
X021544Y025126D01*
X021544Y025284D02*
X020969Y025284D01*
X021544Y025443D02*
X017534Y025443D01*
X017692Y025601D02*
X021544Y025601D01*
X021544Y025760D02*
X017851Y025760D01*
X018009Y025919D02*
X021544Y025919D01*
X021544Y026077D02*
X018168Y026077D01*
X018326Y026236D02*
X021544Y026236D01*
X021544Y026394D02*
X018485Y026394D01*
X017375Y025284D02*
X019999Y025284D01*
X019824Y025126D02*
X017217Y025126D01*
X017058Y024967D02*
X019764Y024967D01*
X019764Y024809D02*
X016899Y024809D01*
X016741Y024650D02*
X019828Y024650D01*
X020023Y024492D02*
X016582Y024492D01*
X016424Y024333D02*
X021544Y024333D01*
X021784Y023893D02*
X021784Y030093D01*
X024410Y026394D02*
X029783Y026394D01*
X029941Y026236D02*
X024462Y026236D01*
X022244Y023382D02*
X015473Y023382D01*
X015631Y023540D02*
X019934Y023540D01*
X019808Y023699D02*
X015790Y023699D01*
X015948Y023857D02*
X019764Y023857D01*
X019778Y024016D02*
X016107Y024016D01*
X016265Y024175D02*
X019863Y024175D01*
X020116Y023333D02*
X019955Y023266D01*
X019831Y023142D01*
X019764Y022981D01*
X019764Y022806D01*
X019831Y022644D01*
X019955Y022520D01*
X020116Y022453D01*
X020851Y022453D01*
X021013Y022520D01*
X021137Y022644D01*
X021204Y022806D01*
X021204Y022981D01*
X021137Y023142D01*
X021013Y023266D01*
X020851Y023333D01*
X020116Y023333D01*
X019912Y023223D02*
X015314Y023223D01*
X015155Y023065D02*
X019799Y023065D01*
X019764Y022906D02*
X014997Y022906D01*
X014838Y022748D02*
X019788Y022748D01*
X019885Y022589D02*
X014680Y022589D01*
X014497Y022906D02*
X009984Y022906D01*
X009984Y022748D02*
X014338Y022748D01*
X014180Y022589D02*
X009984Y022589D01*
X009984Y022454D02*
X009984Y023333D01*
X009908Y023516D01*
X009767Y023657D01*
X009583Y023733D01*
X009384Y023733D01*
X009201Y023657D01*
X009060Y023516D01*
X008984Y023333D01*
X008984Y022454D01*
X009060Y022270D01*
X009201Y022129D01*
X009384Y022053D01*
X009583Y022053D01*
X009767Y022129D01*
X009908Y022270D01*
X009984Y022454D01*
X009974Y022431D02*
X014021Y022431D01*
X013863Y022272D02*
X009909Y022272D01*
X009729Y022114D02*
X013704Y022114D01*
X013546Y021955D02*
X001084Y021955D01*
X001084Y022114D02*
X002238Y022114D01*
X002201Y022129D02*
X002384Y022053D01*
X002583Y022053D01*
X002767Y022129D01*
X002908Y022270D01*
X002984Y022454D01*
X003060Y022270D01*
X003201Y022129D01*
X003384Y022053D01*
X003583Y022053D01*
X003767Y022129D01*
X003908Y022270D01*
X003984Y022454D01*
X004060Y022270D01*
X004201Y022129D01*
X004384Y022053D01*
X004583Y022053D01*
X004767Y022129D01*
X004908Y022270D01*
X004984Y022454D01*
X004984Y023333D01*
X004908Y023516D01*
X004767Y023657D01*
X004583Y023733D01*
X004384Y023733D01*
X004201Y023657D01*
X004060Y023516D01*
X003984Y023333D01*
X003908Y023516D01*
X003767Y023657D01*
X003583Y023733D01*
X003384Y023733D01*
X003201Y023657D01*
X003060Y023516D01*
X002984Y023333D01*
X002908Y023516D01*
X002767Y023657D01*
X002724Y023675D01*
X002724Y023698D01*
X002804Y023779D01*
X002862Y023918D01*
X002862Y024068D01*
X002804Y024207D01*
X002698Y024314D01*
X002559Y024371D01*
X002409Y024371D01*
X002270Y024314D01*
X002163Y024207D01*
X002106Y024068D01*
X002106Y023918D01*
X002163Y023779D01*
X002244Y023698D01*
X002244Y023675D01*
X002201Y023657D01*
X002060Y023516D01*
X001984Y023333D01*
X001984Y022454D01*
X002060Y022270D01*
X002201Y022129D01*
X002059Y022272D02*
X001084Y022272D01*
X001084Y022431D02*
X001993Y022431D01*
X001984Y022589D02*
X001084Y022589D01*
X001084Y022748D02*
X001984Y022748D01*
X001984Y022906D02*
X001084Y022906D01*
X001084Y023065D02*
X001984Y023065D01*
X001984Y023223D02*
X001084Y023223D01*
X001084Y023382D02*
X002004Y023382D01*
X002084Y023540D02*
X001084Y023540D01*
X001084Y023699D02*
X002243Y023699D01*
X002131Y023857D02*
X001084Y023857D01*
X001084Y024016D02*
X002106Y024016D01*
X002150Y024175D02*
X001084Y024175D01*
X001084Y024333D02*
X002317Y024333D01*
X002651Y024333D02*
X007244Y024333D01*
X007244Y024175D02*
X002818Y024175D01*
X002862Y024016D02*
X007244Y024016D01*
X007244Y023857D02*
X002837Y023857D01*
X002724Y023699D02*
X003302Y023699D01*
X003084Y023540D02*
X002884Y023540D01*
X002963Y023382D02*
X003004Y023382D01*
X002984Y023333D02*
X002984Y022454D01*
X002984Y023333D01*
X002984Y023223D02*
X002984Y023223D01*
X002984Y023065D02*
X002984Y023065D01*
X002984Y022906D02*
X002984Y022906D01*
X002984Y022748D02*
X002984Y022748D01*
X002984Y022589D02*
X002984Y022589D01*
X002974Y022431D02*
X002993Y022431D01*
X003059Y022272D02*
X002909Y022272D01*
X002729Y022114D02*
X003238Y022114D01*
X003729Y022114D02*
X004238Y022114D01*
X004059Y022272D02*
X003909Y022272D01*
X003974Y022431D02*
X003993Y022431D01*
X003984Y022454D02*
X003984Y023333D01*
X003984Y022454D01*
X003984Y022589D02*
X003984Y022589D01*
X003984Y022748D02*
X003984Y022748D01*
X003984Y022906D02*
X003984Y022906D01*
X003984Y023065D02*
X003984Y023065D01*
X003984Y023223D02*
X003984Y023223D01*
X003963Y023382D02*
X004004Y023382D01*
X004084Y023540D02*
X003884Y023540D01*
X003666Y023699D02*
X004302Y023699D01*
X004666Y023699D02*
X007244Y023699D01*
X007244Y023675D02*
X007201Y023657D01*
X007060Y023516D01*
X006984Y023333D01*
X006984Y022454D01*
X007060Y022270D01*
X007201Y022129D01*
X007384Y022053D01*
X007583Y022053D01*
X007767Y022129D01*
X007908Y022270D01*
X007984Y022454D01*
X008060Y022270D01*
X008201Y022129D01*
X008384Y022053D01*
X008583Y022053D01*
X008767Y022129D01*
X008908Y022270D01*
X008984Y022454D01*
X008984Y023333D01*
X008908Y023516D01*
X008767Y023657D01*
X008583Y023733D01*
X008384Y023733D01*
X008201Y023657D01*
X008060Y023516D01*
X007984Y023333D01*
X007984Y022454D01*
X007984Y023333D01*
X007908Y023516D01*
X007767Y023657D01*
X007724Y023675D01*
X007724Y026998D01*
X007804Y027079D01*
X007862Y027218D01*
X007862Y027368D01*
X007804Y027507D01*
X007698Y027614D01*
X007559Y027671D01*
X007409Y027671D01*
X007270Y027614D01*
X007163Y027507D01*
X007106Y027368D01*
X007106Y027218D01*
X007163Y027079D01*
X007244Y026998D01*
X007244Y023675D01*
X007084Y023540D02*
X004884Y023540D01*
X004963Y023382D02*
X007004Y023382D01*
X006984Y023223D02*
X004984Y023223D01*
X004984Y023065D02*
X006984Y023065D01*
X006984Y022906D02*
X004984Y022906D01*
X004984Y022748D02*
X006984Y022748D01*
X006984Y022589D02*
X004984Y022589D01*
X004974Y022431D02*
X006993Y022431D01*
X007059Y022272D02*
X004909Y022272D01*
X004729Y022114D02*
X007238Y022114D01*
X007729Y022114D02*
X008238Y022114D01*
X008059Y022272D02*
X007909Y022272D01*
X007974Y022431D02*
X007993Y022431D01*
X007984Y022589D02*
X007984Y022589D01*
X007984Y022748D02*
X007984Y022748D01*
X007984Y022906D02*
X007984Y022906D01*
X007984Y023065D02*
X007984Y023065D01*
X007984Y023223D02*
X007984Y023223D01*
X007963Y023382D02*
X008004Y023382D01*
X008084Y023540D02*
X007884Y023540D01*
X007724Y023699D02*
X008302Y023699D01*
X008666Y023699D02*
X009302Y023699D01*
X009084Y023540D02*
X008884Y023540D01*
X008963Y023382D02*
X009004Y023382D01*
X008984Y023223D02*
X008984Y023223D01*
X008984Y023065D02*
X008984Y023065D01*
X008984Y022906D02*
X008984Y022906D01*
X008984Y022748D02*
X008984Y022748D01*
X008984Y022589D02*
X008984Y022589D01*
X008974Y022431D02*
X008993Y022431D01*
X009059Y022272D02*
X008909Y022272D01*
X008729Y022114D02*
X009238Y022114D01*
X009984Y023065D02*
X014655Y023065D01*
X014814Y023223D02*
X009984Y023223D01*
X009963Y023382D02*
X014973Y023382D01*
X015131Y023540D02*
X009884Y023540D01*
X009666Y023699D02*
X015290Y023699D01*
X015448Y023857D02*
X007724Y023857D01*
X007724Y024016D02*
X015607Y024016D01*
X015765Y024175D02*
X007724Y024175D01*
X007724Y024333D02*
X015924Y024333D01*
X016082Y024492D02*
X007724Y024492D01*
X007724Y024650D02*
X016241Y024650D01*
X016284Y024693D02*
X016284Y031793D01*
X016184Y031893D01*
X001184Y031893D01*
X001084Y031793D01*
X001084Y019693D01*
X011284Y019693D01*
X016284Y024693D01*
X016284Y024809D02*
X007724Y024809D01*
X007724Y024967D02*
X016284Y024967D01*
X016284Y025126D02*
X007724Y025126D01*
X007724Y025284D02*
X016284Y025284D01*
X016284Y025443D02*
X007724Y025443D01*
X007724Y025601D02*
X016284Y025601D01*
X016284Y025760D02*
X007724Y025760D01*
X007724Y025919D02*
X016284Y025919D01*
X016284Y026077D02*
X007724Y026077D01*
X007724Y026236D02*
X016284Y026236D01*
X016284Y026394D02*
X007724Y026394D01*
X007724Y026553D02*
X016284Y026553D01*
X016284Y026711D02*
X007724Y026711D01*
X007724Y026870D02*
X016284Y026870D01*
X016284Y027028D02*
X007754Y027028D01*
X007849Y027187D02*
X016284Y027187D01*
X016284Y027345D02*
X007862Y027345D01*
X007806Y027504D02*
X016284Y027504D01*
X016284Y027663D02*
X007580Y027663D01*
X007388Y027663D02*
X001084Y027663D01*
X001084Y027821D02*
X016284Y027821D01*
X016284Y027980D02*
X001084Y027980D01*
X001084Y028138D02*
X002976Y028138D01*
X002816Y028181D02*
X003256Y028063D01*
X003712Y028063D01*
X004152Y028181D01*
X004546Y028409D01*
X004868Y028731D01*
X005096Y029125D01*
X005214Y029565D01*
X006754Y029565D01*
X006872Y029125D01*
X007099Y028731D01*
X007422Y028409D01*
X007816Y028181D01*
X008256Y028063D01*
X008712Y028063D01*
X009152Y028181D01*
X009546Y028409D01*
X009868Y028731D01*
X010096Y029125D01*
X010214Y029565D01*
X016284Y029565D01*
X016284Y029406D02*
X010171Y029406D01*
X010129Y029248D02*
X016284Y029248D01*
X016284Y029089D02*
X010075Y029089D01*
X009984Y028931D02*
X016284Y028931D01*
X016284Y028772D02*
X009892Y028772D01*
X009751Y028614D02*
X016284Y028614D01*
X016284Y028455D02*
X009593Y028455D01*
X009352Y028297D02*
X016284Y028297D01*
X016284Y028138D02*
X008992Y028138D01*
X007976Y028138D02*
X003992Y028138D01*
X004352Y028297D02*
X007616Y028297D01*
X007375Y028455D02*
X004593Y028455D01*
X004751Y028614D02*
X007216Y028614D01*
X007075Y028772D02*
X004892Y028772D01*
X004984Y028931D02*
X006984Y028931D01*
X006892Y029089D02*
X005075Y029089D01*
X005129Y029248D02*
X006839Y029248D01*
X006796Y029406D02*
X005171Y029406D01*
X005214Y029565D02*
X005214Y030021D01*
X005096Y030461D01*
X004868Y030855D01*
X004546Y031177D01*
X004152Y031405D01*
X003712Y031523D01*
X003256Y031523D01*
X002816Y031405D01*
X002422Y031177D01*
X002099Y030855D01*
X001872Y030461D01*
X001754Y030021D01*
X001754Y029565D01*
X001084Y029565D01*
X001084Y029406D02*
X001796Y029406D01*
X001839Y029248D02*
X001084Y029248D01*
X001084Y029089D02*
X001892Y029089D01*
X001872Y029125D02*
X002099Y028731D01*
X002422Y028409D01*
X002816Y028181D01*
X002616Y028297D02*
X001084Y028297D01*
X001084Y028455D02*
X002375Y028455D01*
X002216Y028614D02*
X001084Y028614D01*
X001084Y028772D02*
X002075Y028772D01*
X001984Y028931D02*
X001084Y028931D01*
X001084Y029724D02*
X001754Y029724D01*
X001754Y029882D02*
X001084Y029882D01*
X001084Y030041D02*
X001759Y030041D01*
X001802Y030199D02*
X001084Y030199D01*
X001084Y030358D02*
X001844Y030358D01*
X001904Y030516D02*
X001084Y030516D01*
X001084Y030675D02*
X001995Y030675D01*
X002087Y030833D02*
X001084Y030833D01*
X001084Y030992D02*
X002236Y030992D01*
X002395Y031150D02*
X001084Y031150D01*
X001084Y031309D02*
X002650Y031309D01*
X003049Y031468D02*
X001084Y031468D01*
X001084Y031626D02*
X016284Y031626D01*
X016284Y031468D02*
X008919Y031468D01*
X008712Y031523D02*
X009152Y031405D01*
X009546Y031177D01*
X009868Y030855D01*
X010096Y030461D01*
X010214Y030021D01*
X010214Y029565D01*
X010214Y029724D02*
X016284Y029724D01*
X016284Y029882D02*
X010214Y029882D01*
X010208Y030041D02*
X016284Y030041D01*
X016284Y030199D02*
X013568Y030199D01*
X013542Y030174D02*
X013603Y030235D01*
X013654Y030305D01*
X013693Y030382D01*
X013720Y030464D01*
X013734Y030550D01*
X013734Y030573D01*
X013204Y030573D01*
X013204Y030613D01*
X013734Y030613D01*
X013734Y030636D01*
X013720Y030722D01*
X013693Y030804D01*
X013654Y030881D01*
X013603Y030951D01*
X013542Y031013D01*
X013472Y031063D01*
X013395Y031103D01*
X013313Y031129D01*
X013227Y031143D01*
X013204Y031143D01*
X013204Y030613D01*
X013164Y030613D01*
X013164Y031143D01*
X013140Y031143D01*
X013055Y031129D01*
X012973Y031103D01*
X012896Y031063D01*
X012825Y031013D01*
X012764Y030951D01*
X012713Y030881D01*
X012674Y030804D01*
X012672Y030799D01*
X012633Y030893D01*
X012484Y031042D01*
X012289Y031123D01*
X012078Y031123D01*
X011884Y031042D01*
X011734Y030893D01*
X011654Y030699D01*
X011654Y030488D01*
X011734Y030293D01*
X011884Y030144D01*
X012078Y030063D01*
X012289Y030063D01*
X012484Y030144D01*
X012633Y030293D01*
X012672Y030387D01*
X012674Y030382D01*
X012713Y030305D01*
X012764Y030235D01*
X012825Y030174D01*
X012896Y030123D01*
X012973Y030083D01*
X013055Y030057D01*
X013140Y030043D01*
X013164Y030043D01*
X013164Y030573D01*
X013204Y030573D01*
X013204Y030043D01*
X013227Y030043D01*
X013313Y030057D01*
X013395Y030083D01*
X013472Y030123D01*
X013542Y030174D01*
X013681Y030358D02*
X016284Y030358D01*
X016284Y030516D02*
X013728Y030516D01*
X013728Y030675D02*
X016284Y030675D01*
X016284Y030833D02*
X013679Y030833D01*
X013563Y030992D02*
X016284Y030992D01*
X016284Y031150D02*
X009573Y031150D01*
X009731Y030992D02*
X011833Y030992D01*
X011710Y030833D02*
X009881Y030833D01*
X009972Y030675D02*
X011654Y030675D01*
X011654Y030516D02*
X010064Y030516D01*
X010123Y030358D02*
X011708Y030358D01*
X011828Y030199D02*
X010166Y030199D01*
X009318Y031309D02*
X016284Y031309D01*
X016284Y031785D02*
X001084Y031785D01*
X001754Y029565D02*
X001872Y029125D01*
X001084Y027504D02*
X007162Y027504D01*
X007106Y027345D02*
X001084Y027345D01*
X001084Y027187D02*
X007118Y027187D01*
X007214Y027028D02*
X001084Y027028D01*
X001084Y026870D02*
X007244Y026870D01*
X007244Y026711D02*
X001084Y026711D01*
X001084Y026553D02*
X007244Y026553D01*
X007244Y026394D02*
X001084Y026394D01*
X001084Y026236D02*
X007244Y026236D01*
X007244Y026077D02*
X001084Y026077D01*
X001084Y025919D02*
X007244Y025919D01*
X007244Y025760D02*
X001084Y025760D01*
X001084Y025601D02*
X007244Y025601D01*
X007244Y025443D02*
X001084Y025443D01*
X001084Y025284D02*
X007244Y025284D01*
X007244Y025126D02*
X001084Y025126D01*
X001084Y024967D02*
X007244Y024967D01*
X007244Y024809D02*
X001084Y024809D01*
X001084Y024650D02*
X007244Y024650D01*
X007244Y024492D02*
X001084Y024492D01*
X002484Y023993D02*
X002484Y022893D01*
X001084Y021796D02*
X013387Y021796D01*
X013229Y021638D02*
X001084Y021638D01*
X001084Y021479D02*
X013070Y021479D01*
X012911Y021321D02*
X001084Y021321D01*
X001084Y021162D02*
X012753Y021162D01*
X012594Y021004D02*
X001084Y021004D01*
X001084Y020845D02*
X004170Y020845D01*
X004196Y020863D02*
X004125Y020813D01*
X004064Y020751D01*
X004013Y020681D01*
X003974Y020604D01*
X003947Y020522D01*
X003934Y020436D01*
X003934Y020413D01*
X004464Y020413D01*
X004464Y020943D01*
X004440Y020943D01*
X004355Y020929D01*
X004273Y020903D01*
X004196Y020863D01*
X004017Y020687D02*
X001084Y020687D01*
X001084Y020528D02*
X003949Y020528D01*
X003934Y020373D02*
X003934Y020350D01*
X003947Y020264D01*
X003974Y020182D01*
X004013Y020105D01*
X004064Y020035D01*
X004125Y019974D01*
X004196Y019923D01*
X004273Y019883D01*
X004355Y019857D01*
X004440Y019843D01*
X004464Y019843D01*
X004464Y020373D01*
X004504Y020373D01*
X004504Y019843D01*
X004527Y019843D01*
X004613Y019857D01*
X004695Y019883D01*
X004772Y019923D01*
X004842Y019974D01*
X004903Y020035D01*
X004954Y020105D01*
X004993Y020182D01*
X004995Y020188D01*
X005034Y020093D01*
X005184Y019944D01*
X005378Y019863D01*
X005589Y019863D01*
X005784Y019944D01*
X005933Y020093D01*
X005972Y020188D01*
X005974Y020182D01*
X006013Y020105D01*
X006064Y020035D01*
X006125Y019974D01*
X006196Y019923D01*
X006273Y019883D01*
X006355Y019857D01*
X006440Y019843D01*
X006464Y019843D01*
X006464Y020373D01*
X006504Y020373D01*
X006504Y019843D01*
X006527Y019843D01*
X006613Y019857D01*
X006695Y019883D01*
X006772Y019923D01*
X006842Y019974D01*
X006903Y020035D01*
X006954Y020104D01*
X006954Y019957D01*
X007047Y019863D01*
X007920Y019863D01*
X008014Y019957D01*
X008014Y020829D01*
X007920Y020923D01*
X007047Y020923D01*
X006954Y020829D01*
X006954Y020682D01*
X006903Y020751D01*
X006842Y020813D01*
X006772Y020863D01*
X006695Y020903D01*
X006613Y020929D01*
X006527Y020943D01*
X006504Y020943D01*
X006504Y020413D01*
X006464Y020413D01*
X006464Y020943D01*
X006440Y020943D01*
X006355Y020929D01*
X006273Y020903D01*
X006196Y020863D01*
X006125Y020813D01*
X006064Y020751D01*
X006013Y020681D01*
X005974Y020604D01*
X005972Y020599D01*
X005933Y020693D01*
X005784Y020842D01*
X005589Y020923D01*
X005378Y020923D01*
X005184Y020842D01*
X005034Y020693D01*
X004995Y020599D01*
X004993Y020604D01*
X004954Y020681D01*
X004903Y020751D01*
X004842Y020813D01*
X004772Y020863D01*
X004695Y020903D01*
X004613Y020929D01*
X004527Y020943D01*
X004504Y020943D01*
X004504Y020413D01*
X004464Y020413D01*
X004464Y020373D01*
X003934Y020373D01*
X003934Y020370D02*
X001084Y020370D01*
X001084Y020211D02*
X003965Y020211D01*
X004051Y020052D02*
X001084Y020052D01*
X001084Y019894D02*
X004252Y019894D01*
X004464Y019894D02*
X004504Y019894D01*
X004504Y020052D02*
X004464Y020052D01*
X004464Y020211D02*
X004504Y020211D01*
X004504Y020370D02*
X004464Y020370D01*
X004464Y020528D02*
X004504Y020528D01*
X004504Y020687D02*
X004464Y020687D01*
X004464Y020845D02*
X004504Y020845D01*
X004797Y020845D02*
X005190Y020845D01*
X005032Y020687D02*
X004950Y020687D01*
X004916Y020052D02*
X005075Y020052D01*
X005304Y019894D02*
X004716Y019894D01*
X005664Y019894D02*
X006252Y019894D01*
X006464Y019894D02*
X006504Y019894D01*
X006504Y020052D02*
X006464Y020052D01*
X006464Y020211D02*
X006504Y020211D01*
X006504Y020370D02*
X006464Y020370D01*
X006464Y020528D02*
X006504Y020528D01*
X006504Y020687D02*
X006464Y020687D01*
X006464Y020845D02*
X006504Y020845D01*
X006797Y020845D02*
X006970Y020845D01*
X006954Y020687D02*
X006950Y020687D01*
X006916Y020052D02*
X006954Y020052D01*
X007017Y019894D02*
X006716Y019894D01*
X006051Y020052D02*
X005893Y020052D01*
X005936Y020687D02*
X006017Y020687D01*
X006170Y020845D02*
X005777Y020845D01*
X007998Y020845D02*
X012436Y020845D01*
X012277Y020687D02*
X008014Y020687D01*
X008014Y020528D02*
X012119Y020528D01*
X011960Y020370D02*
X008014Y020370D01*
X008014Y020211D02*
X011802Y020211D01*
X011643Y020052D02*
X008014Y020052D01*
X007951Y019894D02*
X011485Y019894D01*
X011326Y019735D02*
X001084Y019735D01*
X001984Y017393D02*
X000784Y016193D01*
X000784Y009993D01*
X001284Y009493D01*
X006284Y009493D01*
X007384Y009993D02*
X002484Y014893D01*
X001984Y017093D02*
X001984Y017393D01*
X007484Y022893D02*
X007484Y027293D01*
X006754Y029565D02*
X006754Y030021D01*
X006872Y030461D01*
X007099Y030855D01*
X007422Y031177D01*
X007816Y031405D01*
X008256Y031523D01*
X008712Y031523D01*
X008049Y031468D02*
X003919Y031468D01*
X004318Y031309D02*
X007650Y031309D01*
X007395Y031150D02*
X004573Y031150D01*
X004731Y030992D02*
X007236Y030992D01*
X007087Y030833D02*
X004881Y030833D01*
X004972Y030675D02*
X006995Y030675D01*
X006904Y030516D02*
X005064Y030516D01*
X005123Y030358D02*
X006844Y030358D01*
X006802Y030199D02*
X005166Y030199D01*
X005208Y030041D02*
X006759Y030041D01*
X006754Y029882D02*
X005214Y029882D01*
X005214Y029724D02*
X006754Y029724D01*
X012539Y030199D02*
X012800Y030199D01*
X012686Y030358D02*
X012660Y030358D01*
X013164Y030358D02*
X013204Y030358D01*
X013204Y030516D02*
X013164Y030516D01*
X013164Y030675D02*
X013204Y030675D01*
X013204Y030833D02*
X013164Y030833D01*
X013164Y030992D02*
X013204Y030992D01*
X012805Y030992D02*
X012534Y030992D01*
X012658Y030833D02*
X012689Y030833D01*
X013164Y030199D02*
X013204Y030199D01*
X021056Y023223D02*
X022244Y023223D01*
X022146Y023065D02*
X021169Y023065D01*
X021204Y022906D02*
X022106Y022906D01*
X022135Y022748D02*
X021180Y022748D01*
X021082Y022589D02*
X022253Y022589D01*
X021149Y022114D02*
X023844Y022114D01*
X023844Y022272D02*
X020999Y022272D01*
X021204Y021955D02*
X023844Y021955D01*
X023844Y021796D02*
X021200Y021796D01*
X021131Y021638D02*
X023844Y021638D01*
X023844Y021479D02*
X020915Y021479D01*
X020881Y021321D02*
X023844Y021321D01*
X023844Y021162D02*
X021117Y021162D01*
X021194Y021004D02*
X023844Y021004D01*
X023844Y020845D02*
X021204Y020845D01*
X021154Y020687D02*
X023844Y020687D01*
X025224Y020211D02*
X025899Y020211D01*
X025794Y020052D02*
X025224Y020052D01*
X025224Y019894D02*
X025764Y019894D01*
X025793Y019735D02*
X025224Y019735D01*
X025224Y019577D02*
X025898Y019577D01*
X026484Y015296D02*
X026484Y015296D01*
X026484Y015138D02*
X026484Y015138D01*
X026484Y014979D02*
X026484Y014979D01*
X026483Y014893D02*
X026483Y014893D01*
X026484Y014821D02*
X026484Y014821D01*
X026484Y014662D02*
X026484Y014662D01*
X026484Y014503D02*
X026484Y014503D01*
X020484Y015455D02*
X020484Y015455D01*
X020484Y015613D02*
X020484Y015613D01*
X020484Y015772D02*
X020484Y015772D01*
X020484Y015930D02*
X020484Y015930D01*
X020484Y016089D02*
X020484Y016089D01*
X020484Y016247D02*
X020484Y016247D01*
X019798Y016723D02*
X011384Y016723D01*
X011384Y016882D02*
X019764Y016882D01*
X019788Y017040D02*
X011384Y017040D01*
X011384Y017199D02*
X019887Y017199D01*
X019898Y019577D02*
X011668Y019577D01*
X011826Y019735D02*
X019793Y019735D01*
X019764Y019894D02*
X011985Y019894D01*
X012143Y020052D02*
X019794Y020052D01*
X019899Y020211D02*
X012302Y020211D01*
X012292Y010223D02*
X011384Y010223D01*
X011487Y010129D02*
X011487Y010129D01*
X011552Y010064D02*
X012145Y010064D01*
X012106Y009906D02*
X011711Y009906D01*
X011869Y009747D02*
X012135Y009747D01*
X012028Y009589D02*
X012244Y009589D01*
X012244Y009430D02*
X012124Y009430D01*
X012127Y009271D02*
X012244Y009271D01*
X012244Y009113D02*
X012130Y009113D01*
X012134Y008954D02*
X012244Y008954D01*
X012244Y008796D02*
X012137Y008796D01*
X012141Y008637D02*
X012244Y008637D01*
X012244Y008479D02*
X012144Y008479D01*
X012724Y008003D02*
X013244Y008003D01*
X013244Y007845D02*
X012732Y007845D01*
X012891Y007686D02*
X013244Y007686D01*
X013244Y007528D02*
X013049Y007528D01*
X013208Y007369D02*
X013244Y007369D01*
X014484Y007893D02*
X014484Y001893D01*
X014843Y001503D02*
X015124Y001503D01*
X015184Y001444D02*
X015378Y001363D01*
X015589Y001363D01*
X015784Y001444D01*
X015933Y001593D01*
X015934Y001595D01*
X015934Y001499D01*
X015946Y001454D01*
X015970Y001413D01*
X016003Y001379D01*
X016044Y001355D01*
X016090Y001343D01*
X016464Y001343D01*
X016464Y001873D01*
X016504Y001873D01*
X016504Y001913D01*
X017034Y001913D01*
X017034Y002287D01*
X017021Y002333D01*
X016998Y002374D01*
X016964Y002407D01*
X016923Y002431D01*
X016877Y002443D01*
X016504Y002443D01*
X016504Y001913D01*
X016464Y001913D01*
X016464Y002443D01*
X016090Y002443D01*
X016044Y002431D01*
X016003Y002407D01*
X015970Y002374D01*
X015946Y002333D01*
X015934Y002287D01*
X015934Y002191D01*
X015933Y002193D01*
X015784Y002342D01*
X015589Y002423D01*
X015378Y002423D01*
X015184Y002342D01*
X015034Y002193D01*
X014984Y002071D01*
X014933Y002193D01*
X014784Y002342D01*
X014724Y002367D01*
X014724Y002718D01*
X016684Y002793D01*
X017784Y002193D01*
X017784Y001293D01*
X016984Y000893D01*
X008684Y000893D01*
X008284Y001393D01*
X008284Y007093D01*
X008584Y007693D01*
X011682Y007693D01*
X011737Y005181D01*
X011663Y005107D01*
X011606Y004968D01*
X011606Y004818D01*
X011663Y004679D01*
X011770Y004573D01*
X011909Y004515D01*
X012059Y004515D01*
X012198Y004573D01*
X012244Y004618D01*
X012244Y002367D01*
X012184Y002342D01*
X012034Y002193D01*
X011995Y002099D01*
X011993Y002104D01*
X011954Y002181D01*
X011903Y002251D01*
X011842Y002313D01*
X011772Y002363D01*
X011695Y002403D01*
X011613Y002429D01*
X011527Y002443D01*
X011504Y002443D01*
X011504Y001913D01*
X011464Y001913D01*
X011464Y002443D01*
X011440Y002443D01*
X011355Y002429D01*
X011273Y002403D01*
X011196Y002363D01*
X011125Y002313D01*
X011064Y002251D01*
X011013Y002181D01*
X010974Y002104D01*
X010972Y002099D01*
X010933Y002193D01*
X010784Y002342D01*
X010589Y002423D01*
X010378Y002423D01*
X010184Y002342D01*
X010034Y002193D01*
X009995Y002099D01*
X009993Y002104D01*
X009954Y002181D01*
X009903Y002251D01*
X009842Y002313D01*
X009772Y002363D01*
X009695Y002403D01*
X009613Y002429D01*
X009527Y002443D01*
X009504Y002443D01*
X009504Y001913D01*
X009464Y001913D01*
X009464Y002443D01*
X009440Y002443D01*
X009355Y002429D01*
X009273Y002403D01*
X009196Y002363D01*
X009125Y002313D01*
X009064Y002251D01*
X009013Y002181D01*
X008974Y002104D01*
X008947Y002022D01*
X008934Y001936D01*
X008934Y001913D01*
X009464Y001913D01*
X009464Y001873D01*
X009504Y001873D01*
X009504Y001343D01*
X009527Y001343D01*
X009613Y001357D01*
X009695Y001383D01*
X009772Y001423D01*
X009842Y001474D01*
X009903Y001535D01*
X009954Y001605D01*
X009993Y001682D01*
X009995Y001688D01*
X010034Y001593D01*
X010184Y001444D01*
X010378Y001363D01*
X010589Y001363D01*
X010784Y001444D01*
X010933Y001593D01*
X010972Y001688D01*
X010974Y001682D01*
X011013Y001605D01*
X011064Y001535D01*
X011125Y001474D01*
X011196Y001423D01*
X011273Y001383D01*
X011355Y001357D01*
X011440Y001343D01*
X011464Y001343D01*
X011464Y001873D01*
X011504Y001873D01*
X011504Y001343D01*
X011527Y001343D01*
X011613Y001357D01*
X011695Y001383D01*
X011772Y001423D01*
X011842Y001474D01*
X011903Y001535D01*
X011954Y001605D01*
X011993Y001682D01*
X011995Y001688D01*
X012034Y001593D01*
X012184Y001444D01*
X012378Y001363D01*
X012589Y001363D01*
X012784Y001444D01*
X012933Y001593D01*
X012984Y001715D01*
X013034Y001593D01*
X013184Y001444D01*
X013378Y001363D01*
X013589Y001363D01*
X013784Y001444D01*
X013933Y001593D01*
X013984Y001715D01*
X014034Y001593D01*
X014184Y001444D01*
X014378Y001363D01*
X014589Y001363D01*
X014784Y001444D01*
X014933Y001593D01*
X014984Y001715D01*
X015034Y001593D01*
X015184Y001444D01*
X015006Y001661D02*
X014961Y001661D01*
X014956Y002137D02*
X015011Y002137D01*
X015137Y002296D02*
X014831Y002296D01*
X014724Y002454D02*
X017305Y002454D01*
X017031Y002296D02*
X017596Y002296D01*
X017784Y002137D02*
X017034Y002137D01*
X017034Y001979D02*
X017784Y001979D01*
X017784Y001820D02*
X017034Y001820D01*
X017034Y001873D02*
X016504Y001873D01*
X016504Y001343D01*
X016877Y001343D01*
X016923Y001355D01*
X016964Y001379D01*
X016998Y001413D01*
X017021Y001454D01*
X017034Y001499D01*
X017034Y001873D01*
X017034Y001661D02*
X017784Y001661D01*
X017784Y001503D02*
X017034Y001503D01*
X016882Y001344D02*
X017784Y001344D01*
X017569Y001186D02*
X008450Y001186D01*
X008576Y001027D02*
X017252Y001027D01*
X016504Y001344D02*
X016464Y001344D01*
X016464Y001503D02*
X016504Y001503D01*
X016504Y001661D02*
X016464Y001661D01*
X016464Y001820D02*
X016504Y001820D01*
X016504Y001979D02*
X016464Y001979D01*
X016464Y002137D02*
X016504Y002137D01*
X016504Y002296D02*
X016464Y002296D01*
X015936Y002296D02*
X015831Y002296D01*
X016116Y002771D02*
X016724Y002771D01*
X017014Y002613D02*
X014724Y002613D01*
X014006Y001661D02*
X013961Y001661D01*
X013843Y001503D02*
X014124Y001503D01*
X013484Y001893D02*
X013484Y008893D01*
X012484Y009893D02*
X012484Y001893D01*
X012843Y001503D02*
X013124Y001503D01*
X013006Y001661D02*
X012961Y001661D01*
X012124Y001503D02*
X011871Y001503D01*
X011983Y001661D02*
X012006Y001661D01*
X011977Y002137D02*
X012011Y002137D01*
X012137Y002296D02*
X011859Y002296D01*
X011504Y002296D02*
X011464Y002296D01*
X011464Y002137D02*
X011504Y002137D01*
X011504Y001979D02*
X011464Y001979D01*
X011464Y001820D02*
X011504Y001820D01*
X011504Y001661D02*
X011464Y001661D01*
X011464Y001503D02*
X011504Y001503D01*
X011504Y001344D02*
X011464Y001344D01*
X011432Y001344D02*
X009535Y001344D01*
X009504Y001344D02*
X009464Y001344D01*
X009464Y001343D02*
X009464Y001873D01*
X008934Y001873D01*
X008934Y001850D01*
X008947Y001764D01*
X008974Y001682D01*
X009013Y001605D01*
X009064Y001535D01*
X009125Y001474D01*
X009196Y001423D01*
X009273Y001383D01*
X009355Y001357D01*
X009440Y001343D01*
X009464Y001343D01*
X009432Y001344D02*
X008323Y001344D01*
X008284Y001503D02*
X009096Y001503D01*
X008984Y001661D02*
X008284Y001661D01*
X008284Y001820D02*
X008938Y001820D01*
X008940Y001979D02*
X008284Y001979D01*
X008284Y002137D02*
X008991Y002137D01*
X009109Y002296D02*
X008284Y002296D01*
X008284Y002454D02*
X012244Y002454D01*
X012244Y002613D02*
X008284Y002613D01*
X008284Y002771D02*
X012244Y002771D01*
X012244Y002930D02*
X008284Y002930D01*
X008284Y003088D02*
X012244Y003088D01*
X012244Y003247D02*
X008284Y003247D01*
X008284Y003405D02*
X009229Y003405D01*
X009196Y003423D02*
X009273Y003383D01*
X009355Y003357D01*
X009440Y003343D01*
X009464Y003343D01*
X009464Y003873D01*
X009504Y003873D01*
X009504Y003343D01*
X009527Y003343D01*
X009613Y003357D01*
X009695Y003383D01*
X009772Y003423D01*
X009842Y003474D01*
X009903Y003535D01*
X009954Y003605D01*
X009993Y003682D01*
X009995Y003687D01*
X010034Y003593D01*
X010184Y003444D01*
X010378Y003363D01*
X010589Y003363D01*
X010784Y003444D01*
X010933Y003593D01*
X010984Y003715D01*
X011034Y003593D01*
X011184Y003444D01*
X011378Y003363D01*
X011589Y003363D01*
X011784Y003444D01*
X011933Y003593D01*
X012014Y003788D01*
X012014Y003999D01*
X011933Y004193D01*
X011784Y004342D01*
X011589Y004423D01*
X011378Y004423D01*
X011184Y004342D01*
X011034Y004193D01*
X010984Y004071D01*
X010933Y004193D01*
X010784Y004342D01*
X010589Y004423D01*
X010378Y004423D01*
X010184Y004342D01*
X010034Y004193D01*
X009995Y004099D01*
X009993Y004104D01*
X009954Y004181D01*
X009903Y004251D01*
X009842Y004313D01*
X009772Y004363D01*
X009695Y004403D01*
X009613Y004429D01*
X009527Y004443D01*
X009504Y004443D01*
X009504Y003913D01*
X009464Y003913D01*
X009464Y004443D01*
X009440Y004443D01*
X009355Y004429D01*
X009273Y004403D01*
X009196Y004363D01*
X009125Y004313D01*
X009064Y004251D01*
X009013Y004181D01*
X008974Y004104D01*
X008947Y004022D01*
X008934Y003936D01*
X008934Y003913D01*
X009464Y003913D01*
X009464Y003873D01*
X008934Y003873D01*
X008934Y003850D01*
X008947Y003764D01*
X008974Y003682D01*
X009013Y003605D01*
X009064Y003535D01*
X009125Y003474D01*
X009196Y003423D01*
X009043Y003564D02*
X008284Y003564D01*
X008284Y003722D02*
X008961Y003722D01*
X008953Y004040D02*
X008284Y004040D01*
X008284Y004198D02*
X009026Y004198D01*
X009186Y004357D02*
X008284Y004357D01*
X008284Y004515D02*
X011908Y004515D01*
X012060Y004515D02*
X012244Y004515D01*
X012244Y004357D02*
X011749Y004357D01*
X011928Y004198D02*
X012244Y004198D01*
X012244Y004040D02*
X011997Y004040D01*
X012014Y003881D02*
X012244Y003881D01*
X012244Y003722D02*
X011987Y003722D01*
X011904Y003564D02*
X012244Y003564D01*
X012244Y003405D02*
X011691Y003405D01*
X011276Y003405D02*
X010691Y003405D01*
X010904Y003564D02*
X011063Y003564D01*
X010276Y003405D02*
X009738Y003405D01*
X009504Y003405D02*
X009464Y003405D01*
X009464Y003564D02*
X009504Y003564D01*
X009504Y003722D02*
X009464Y003722D01*
X009464Y003881D02*
X008284Y003881D01*
X008284Y004674D02*
X011668Y004674D01*
X011606Y004832D02*
X008284Y004832D01*
X008284Y004991D02*
X011615Y004991D01*
X011705Y005149D02*
X008284Y005149D01*
X008284Y005308D02*
X011734Y005308D01*
X011731Y005466D02*
X008284Y005466D01*
X008284Y005625D02*
X011727Y005625D01*
X011724Y005784D02*
X008284Y005784D01*
X008284Y005942D02*
X011720Y005942D01*
X011717Y006101D02*
X008284Y006101D01*
X008284Y006259D02*
X011713Y006259D01*
X011710Y006418D02*
X008284Y006418D01*
X008284Y006576D02*
X011706Y006576D01*
X011703Y006735D02*
X008284Y006735D01*
X008284Y006893D02*
X011699Y006893D01*
X011696Y007052D02*
X008284Y007052D01*
X008342Y007210D02*
X011692Y007210D01*
X011689Y007369D02*
X008422Y007369D01*
X008501Y007528D02*
X011685Y007528D01*
X011682Y007686D02*
X008580Y007686D01*
X007384Y009993D02*
X011284Y009993D01*
X011884Y009393D01*
X011984Y004893D01*
X011218Y004357D02*
X010749Y004357D01*
X010928Y004198D02*
X011039Y004198D01*
X010218Y004357D02*
X009781Y004357D01*
X009942Y004198D02*
X010039Y004198D01*
X009504Y004198D02*
X009464Y004198D01*
X009464Y004040D02*
X009504Y004040D01*
X009504Y004357D02*
X009464Y004357D01*
X009924Y003564D02*
X010063Y003564D01*
X010137Y002296D02*
X009859Y002296D01*
X009977Y002137D02*
X010011Y002137D01*
X009983Y001661D02*
X010006Y001661D01*
X010124Y001503D02*
X009871Y001503D01*
X009504Y001503D02*
X009464Y001503D01*
X009464Y001661D02*
X009504Y001661D01*
X009504Y001820D02*
X009464Y001820D01*
X009464Y001979D02*
X009504Y001979D01*
X009504Y002137D02*
X009464Y002137D01*
X009464Y002296D02*
X009504Y002296D01*
X010831Y002296D02*
X011109Y002296D01*
X010991Y002137D02*
X010956Y002137D01*
X010961Y001661D02*
X010984Y001661D01*
X011096Y001503D02*
X010843Y001503D01*
X011535Y001344D02*
X016085Y001344D01*
X015934Y001503D02*
X015843Y001503D01*
X027069Y006576D02*
X030244Y006576D01*
X030244Y006735D02*
X027174Y006735D01*
X027204Y006893D02*
X030244Y006893D01*
X030244Y007052D02*
X027174Y007052D01*
X027069Y007210D02*
X030244Y007210D01*
X037165Y003893D02*
X038884Y005593D01*
X038884Y011893D01*
X037984Y010893D02*
X037984Y013393D01*
X037165Y014393D01*
X034984Y022893D02*
X034984Y028293D01*
M02*
