G75*
G70*
%OFA0B0*%
%FSLAX24Y24*%
%IPPOS*%
%LPD*%
%AMOC8*
5,1,8,0,0,1.08239X$1,22.5*
%
%ADD10C,0.0040*%
%ADD11C,0.0070*%
%ADD12C,0.0060*%
%ADD13C,0.0080*%
%ADD14C,0.0010*%
%ADD15C,0.0050*%
%ADD16R,0.0800X0.0200*%
%ADD17C,0.0020*%
%ADD18R,0.0300X0.0250*%
%ADD19R,0.0500X0.1100*%
D10*
X001923Y004513D02*
X001923Y004973D01*
X002153Y004973D01*
X002230Y004897D01*
X002230Y004743D01*
X002153Y004666D01*
X001923Y004666D01*
X002076Y004666D02*
X002230Y004513D01*
X002383Y004513D02*
X002690Y004513D01*
X002536Y004513D02*
X002536Y004973D01*
X002383Y004820D01*
X002843Y004743D02*
X003074Y004973D01*
X003074Y004513D01*
X003150Y004743D02*
X002843Y004743D01*
X004304Y007913D02*
X004304Y008373D01*
X004534Y008373D01*
X004611Y008297D01*
X004611Y008143D01*
X004534Y008066D01*
X004304Y008066D01*
X004457Y008066D02*
X004611Y007913D01*
X004764Y007913D02*
X005071Y008220D01*
X005071Y008297D01*
X004994Y008373D01*
X004841Y008373D01*
X004764Y008297D01*
X004764Y007913D02*
X005071Y007913D01*
X005224Y007913D02*
X005531Y007913D01*
X005378Y007913D02*
X005378Y008373D01*
X005224Y008220D01*
X009403Y005533D02*
X009403Y005379D01*
X009480Y005303D01*
X009557Y005303D01*
X009634Y005379D01*
X009634Y005610D01*
X009787Y005610D02*
X009480Y005610D01*
X009403Y005533D01*
X009480Y005149D02*
X009403Y005072D01*
X009403Y004919D01*
X009480Y004842D01*
X009787Y004842D01*
X009864Y004919D01*
X009864Y005072D01*
X009787Y005149D01*
X009787Y005303D02*
X009864Y005379D01*
X009864Y005533D01*
X009787Y005610D01*
X010903Y005533D02*
X010980Y005610D01*
X011057Y005610D01*
X011134Y005533D01*
X011210Y005610D01*
X011287Y005610D01*
X011364Y005533D01*
X011364Y005379D01*
X011287Y005303D01*
X011287Y005149D02*
X011364Y005072D01*
X011364Y004919D01*
X011287Y004842D01*
X010980Y004842D01*
X010903Y004919D01*
X010903Y005072D01*
X010980Y005149D01*
X010980Y005303D02*
X010903Y005379D01*
X010903Y005533D01*
X011134Y005533D02*
X011134Y005456D01*
X016103Y006113D02*
X016103Y006343D01*
X016180Y006420D01*
X016334Y006420D01*
X016410Y006343D01*
X016410Y006113D01*
X016410Y006266D02*
X016564Y006420D01*
X016564Y006573D02*
X016257Y006880D01*
X016180Y006880D01*
X016103Y006804D01*
X016103Y006650D01*
X016180Y006573D01*
X016564Y006573D02*
X016564Y006880D01*
X016487Y007034D02*
X016564Y007110D01*
X016564Y007264D01*
X016487Y007341D01*
X016180Y007341D01*
X016103Y007264D01*
X016103Y007110D01*
X016180Y007034D01*
X016257Y007034D01*
X016334Y007110D01*
X016334Y007341D01*
X016564Y006113D02*
X016103Y006113D01*
X017580Y003760D02*
X017503Y003683D01*
X017503Y003529D01*
X017580Y003453D01*
X017580Y003299D02*
X017503Y003222D01*
X017503Y003069D01*
X017580Y002992D01*
X017580Y002839D02*
X017734Y002839D01*
X017810Y002762D01*
X017810Y002532D01*
X017810Y002685D02*
X017964Y002839D01*
X017964Y002992D02*
X017657Y003299D01*
X017580Y003299D01*
X017964Y003299D02*
X017964Y002992D01*
X017580Y002839D02*
X017503Y002762D01*
X017503Y002532D01*
X017964Y002532D01*
X017964Y003453D02*
X017657Y003760D01*
X017580Y003760D01*
X017964Y003760D02*
X017964Y003453D01*
X018480Y012842D02*
X018403Y012919D01*
X018403Y013072D01*
X018480Y013149D01*
X018403Y013303D02*
X018403Y013610D01*
X018480Y013610D01*
X018787Y013303D01*
X018864Y013303D01*
X018787Y013149D02*
X018864Y013072D01*
X018864Y012919D01*
X018787Y012842D01*
X018480Y012842D01*
X016200Y015013D02*
X015893Y015013D01*
X016047Y015013D02*
X016047Y015473D01*
X015893Y015320D01*
X015740Y015397D02*
X015663Y015473D01*
X015510Y015473D01*
X015433Y015397D01*
X015433Y015090D01*
X015510Y015013D01*
X015663Y015013D01*
X015740Y015090D01*
X014864Y015419D02*
X014787Y015342D01*
X014480Y015342D01*
X014403Y015419D01*
X014403Y015572D01*
X014480Y015649D01*
X014480Y015803D02*
X014403Y015879D01*
X014403Y016033D01*
X014480Y016110D01*
X014557Y016110D01*
X014864Y015803D01*
X014864Y016110D01*
X014787Y015649D02*
X014864Y015572D01*
X014864Y015419D01*
X012864Y015419D02*
X012787Y015342D01*
X012480Y015342D01*
X012403Y015419D01*
X012403Y015572D01*
X012480Y015649D01*
X012480Y015803D02*
X012403Y015879D01*
X012403Y016033D01*
X012480Y016110D01*
X012557Y016110D01*
X012634Y016033D01*
X012634Y015879D01*
X012557Y015803D01*
X012480Y015803D01*
X012634Y015879D02*
X012710Y015803D01*
X012787Y015803D01*
X012864Y015879D01*
X012864Y016033D01*
X012787Y016110D01*
X012710Y016110D01*
X012634Y016033D01*
X012787Y015649D02*
X012864Y015572D01*
X012864Y015419D01*
X015704Y018313D02*
X015704Y018773D01*
X015934Y018773D01*
X016011Y018697D01*
X016011Y018543D01*
X015934Y018466D01*
X015704Y018466D01*
X015857Y018466D02*
X016011Y018313D01*
X016164Y018313D02*
X016471Y018313D01*
X016318Y018313D02*
X016318Y018773D01*
X016164Y018620D01*
X016624Y018773D02*
X016931Y018773D01*
X016931Y018697D01*
X016624Y018390D01*
X016624Y018313D01*
X017704Y017773D02*
X017934Y017773D01*
X018011Y017697D01*
X018011Y017543D01*
X017934Y017466D01*
X017704Y017466D01*
X017704Y017313D02*
X017704Y017773D01*
X017857Y017466D02*
X018011Y017313D01*
X018164Y017313D02*
X018471Y017313D01*
X018318Y017313D02*
X018318Y017773D01*
X018164Y017620D01*
X018624Y017620D02*
X018624Y017697D01*
X018701Y017773D01*
X018855Y017773D01*
X018931Y017697D01*
X018931Y017620D01*
X018855Y017543D01*
X018701Y017543D01*
X018624Y017620D01*
X018701Y017543D02*
X018624Y017466D01*
X018624Y017390D01*
X018701Y017313D01*
X018855Y017313D01*
X018931Y017390D01*
X018931Y017466D01*
X018855Y017543D01*
X013664Y022632D02*
X013203Y022632D01*
X013203Y022862D01*
X013280Y022939D01*
X013434Y022939D01*
X013510Y022862D01*
X013510Y022632D01*
X013510Y022785D02*
X013664Y022939D01*
X013664Y023092D02*
X013357Y023399D01*
X013280Y023399D01*
X013203Y023322D01*
X013203Y023169D01*
X013280Y023092D01*
X013664Y023092D02*
X013664Y023399D01*
X013664Y023553D02*
X013587Y023553D01*
X013280Y023860D01*
X013203Y023860D01*
X013203Y023553D01*
X012237Y024663D02*
X012314Y024740D01*
X012314Y024893D01*
X012237Y024970D01*
X011930Y024970D01*
X011853Y024893D01*
X011853Y024740D01*
X011930Y024663D01*
X012237Y024663D01*
X012160Y024816D02*
X012314Y024970D01*
X012084Y025123D02*
X011853Y025354D01*
X012314Y025354D01*
X012084Y025430D02*
X012084Y025123D01*
X013003Y025932D02*
X013003Y026162D01*
X013080Y026239D01*
X013234Y026239D01*
X013310Y026162D01*
X013310Y025932D01*
X013310Y026085D02*
X013464Y026239D01*
X013464Y026392D02*
X013157Y026699D01*
X013080Y026699D01*
X013003Y026622D01*
X013003Y026469D01*
X013080Y026392D01*
X013203Y026713D02*
X013203Y026943D01*
X013280Y027020D01*
X013434Y027020D01*
X013510Y026943D01*
X013510Y026713D01*
X013464Y026699D02*
X013464Y026392D01*
X013664Y026713D02*
X013203Y026713D01*
X013157Y026853D02*
X013080Y026853D01*
X013003Y026929D01*
X013003Y027083D01*
X013080Y027160D01*
X013157Y027160D01*
X013234Y027083D01*
X013234Y026929D01*
X013157Y026853D01*
X013234Y026929D02*
X013310Y026853D01*
X013387Y026853D01*
X013464Y026929D01*
X013464Y027083D01*
X013387Y027160D01*
X013310Y027160D01*
X013234Y027083D01*
X013280Y027173D02*
X013203Y027250D01*
X013203Y027404D01*
X013280Y027480D01*
X013357Y027480D01*
X013664Y027173D01*
X013664Y027480D01*
X013587Y027634D02*
X013664Y027710D01*
X013664Y027864D01*
X013587Y027941D01*
X013434Y027941D01*
X013357Y027864D01*
X013357Y027787D01*
X013434Y027634D01*
X013203Y027634D01*
X013203Y027941D01*
X012214Y027940D02*
X012137Y027863D01*
X011830Y027863D01*
X011753Y027940D01*
X011753Y028093D01*
X011830Y028170D01*
X012137Y028170D01*
X012214Y028093D01*
X012214Y027940D01*
X012060Y028016D02*
X012214Y028170D01*
X012137Y028323D02*
X012214Y028400D01*
X012214Y028554D01*
X012137Y028630D01*
X012060Y028630D01*
X011984Y028554D01*
X011984Y028477D01*
X011984Y028554D02*
X011907Y028630D01*
X011830Y028630D01*
X011753Y028554D01*
X011753Y028400D01*
X011830Y028323D01*
X013510Y026866D02*
X013664Y027020D01*
X013464Y025932D02*
X013003Y025932D01*
X015803Y025560D02*
X015880Y025406D01*
X016034Y025253D01*
X016034Y025483D01*
X016110Y025560D01*
X016187Y025560D01*
X016264Y025483D01*
X016264Y025329D01*
X016187Y025253D01*
X016034Y025253D01*
X015957Y025099D02*
X015880Y025099D01*
X015803Y025022D01*
X015803Y024869D01*
X015880Y024792D01*
X015880Y024639D02*
X016034Y024639D01*
X016110Y024562D01*
X016110Y024332D01*
X016110Y024485D02*
X016264Y024639D01*
X016264Y024792D02*
X015957Y025099D01*
X016264Y025099D02*
X016264Y024792D01*
X015880Y024639D02*
X015803Y024562D01*
X015803Y024332D01*
X016264Y024332D01*
X016318Y023773D02*
X016318Y023313D01*
X016471Y023313D02*
X016164Y023313D01*
X016011Y023313D02*
X015857Y023466D01*
X015934Y023466D02*
X015704Y023466D01*
X015704Y023313D02*
X015704Y023773D01*
X015934Y023773D01*
X016011Y023697D01*
X016011Y023543D01*
X015934Y023466D01*
X016164Y023620D02*
X016318Y023773D01*
X016624Y023543D02*
X016624Y023390D01*
X016701Y023313D01*
X016855Y023313D01*
X016931Y023390D01*
X016931Y023466D01*
X016855Y023543D01*
X016624Y023543D01*
X016778Y023697D01*
X016931Y023773D01*
X017704Y024313D02*
X017704Y024773D01*
X017934Y024773D01*
X018011Y024697D01*
X018011Y024543D01*
X017934Y024466D01*
X017704Y024466D01*
X017857Y024466D02*
X018011Y024313D01*
X018164Y024313D02*
X018471Y024313D01*
X018318Y024313D02*
X018318Y024773D01*
X018164Y024620D01*
X018624Y024620D02*
X018701Y024543D01*
X018931Y024543D01*
X018931Y024390D02*
X018931Y024697D01*
X018855Y024773D01*
X018701Y024773D01*
X018624Y024697D01*
X018624Y024620D01*
X018624Y024390D02*
X018701Y024313D01*
X018855Y024313D01*
X018931Y024390D01*
X028804Y023773D02*
X028804Y023313D01*
X028804Y023466D02*
X029034Y023466D01*
X029111Y023543D01*
X029111Y023697D01*
X029034Y023773D01*
X028804Y023773D01*
X028957Y023466D02*
X029111Y023313D01*
X029264Y023313D02*
X029571Y023620D01*
X029571Y023697D01*
X029494Y023773D01*
X029341Y023773D01*
X029264Y023697D01*
X029264Y023313D02*
X029571Y023313D01*
X029724Y023543D02*
X030031Y023543D01*
X029955Y023313D02*
X029955Y023773D01*
X029724Y023543D01*
X030804Y024313D02*
X030804Y024773D01*
X031034Y024773D01*
X031111Y024697D01*
X031111Y024543D01*
X031034Y024466D01*
X030804Y024466D01*
X030957Y024466D02*
X031111Y024313D01*
X031264Y024390D02*
X031341Y024313D01*
X031494Y024313D01*
X031571Y024390D01*
X031571Y024697D01*
X031494Y024773D01*
X031341Y024773D01*
X031264Y024697D01*
X031264Y024620D01*
X031341Y024543D01*
X031571Y024543D01*
X029931Y020773D02*
X029624Y020773D01*
X029624Y020543D01*
X029778Y020620D01*
X029855Y020620D01*
X029931Y020543D01*
X029931Y020390D01*
X029855Y020313D01*
X029701Y020313D01*
X029624Y020390D01*
X029471Y020313D02*
X029164Y020313D01*
X029011Y020313D02*
X028857Y020466D01*
X028934Y020466D02*
X028704Y020466D01*
X028704Y020313D02*
X028704Y020773D01*
X028934Y020773D01*
X029011Y020697D01*
X029011Y020543D01*
X028934Y020466D01*
X029164Y020620D02*
X029318Y020773D01*
X029318Y020313D01*
X029421Y015773D02*
X029268Y015697D01*
X029114Y015543D01*
X029344Y015543D01*
X029421Y015466D01*
X029421Y015390D01*
X029344Y015313D01*
X029191Y015313D01*
X029114Y015390D01*
X029114Y015543D01*
X028961Y015390D02*
X028884Y015313D01*
X028730Y015313D01*
X028654Y015390D01*
X028654Y015697D01*
X028730Y015773D01*
X028884Y015773D01*
X028961Y015697D01*
X030704Y013773D02*
X030934Y013773D01*
X031011Y013697D01*
X031011Y013543D01*
X030934Y013466D01*
X030704Y013466D01*
X030704Y013313D02*
X030704Y013773D01*
X030857Y013466D02*
X031011Y013313D01*
X031164Y013313D02*
X031164Y013390D01*
X031471Y013697D01*
X031471Y013773D01*
X031164Y013773D01*
X029471Y012697D02*
X029471Y012620D01*
X029394Y012543D01*
X029241Y012543D01*
X029164Y012620D01*
X029164Y012697D01*
X029241Y012773D01*
X029394Y012773D01*
X029471Y012697D01*
X029394Y012543D02*
X029471Y012466D01*
X029471Y012390D01*
X029394Y012313D01*
X029241Y012313D01*
X029164Y012390D01*
X029164Y012466D01*
X029241Y012543D01*
X029011Y012543D02*
X029011Y012697D01*
X028934Y012773D01*
X028704Y012773D01*
X028704Y012313D01*
X028704Y012466D02*
X028934Y012466D01*
X029011Y012543D01*
X028857Y012466D02*
X029011Y012313D01*
X028934Y010773D02*
X029011Y010697D01*
X029011Y010543D01*
X028934Y010466D01*
X028704Y010466D01*
X028704Y010313D02*
X028704Y010773D01*
X028934Y010773D01*
X029164Y010773D02*
X029164Y010543D01*
X029318Y010620D01*
X029394Y010620D01*
X029471Y010543D01*
X029471Y010390D01*
X029394Y010313D01*
X029241Y010313D01*
X029164Y010390D01*
X029011Y010313D02*
X028857Y010466D01*
X029164Y010773D02*
X029471Y010773D01*
X030704Y011313D02*
X030704Y011773D01*
X030934Y011773D01*
X031011Y011697D01*
X031011Y011543D01*
X030934Y011466D01*
X030704Y011466D01*
X030857Y011466D02*
X031011Y011313D01*
X031164Y011390D02*
X031241Y011313D01*
X031394Y011313D01*
X031471Y011390D01*
X031471Y011466D01*
X031394Y011543D01*
X031164Y011543D01*
X031164Y011390D01*
X031164Y011543D02*
X031318Y011697D01*
X031471Y011773D01*
X031394Y009773D02*
X031164Y009543D01*
X031471Y009543D01*
X031394Y009313D02*
X031394Y009773D01*
X031011Y009697D02*
X031011Y009543D01*
X030934Y009466D01*
X030704Y009466D01*
X030704Y009313D02*
X030704Y009773D01*
X030934Y009773D01*
X031011Y009697D01*
X030857Y009466D02*
X031011Y009313D01*
X030934Y007773D02*
X030704Y007773D01*
X030704Y007313D01*
X030704Y007466D02*
X030934Y007466D01*
X031011Y007543D01*
X031011Y007697D01*
X030934Y007773D01*
X031164Y007697D02*
X031241Y007773D01*
X031394Y007773D01*
X031471Y007697D01*
X031471Y007620D01*
X031164Y007313D01*
X031471Y007313D01*
X031011Y007313D02*
X030857Y007466D01*
X029471Y008390D02*
X029394Y008313D01*
X029241Y008313D01*
X029164Y008390D01*
X029011Y008313D02*
X028857Y008466D01*
X028934Y008466D02*
X028704Y008466D01*
X028704Y008313D02*
X028704Y008773D01*
X028934Y008773D01*
X029011Y008697D01*
X029011Y008543D01*
X028934Y008466D01*
X029164Y008697D02*
X029241Y008773D01*
X029394Y008773D01*
X029471Y008697D01*
X029471Y008620D01*
X029394Y008543D01*
X029471Y008466D01*
X029471Y008390D01*
X029394Y008543D02*
X029318Y008543D01*
X029318Y006773D02*
X029318Y006313D01*
X029471Y006313D02*
X029164Y006313D01*
X029011Y006313D02*
X028857Y006466D01*
X028934Y006466D02*
X028704Y006466D01*
X028704Y006313D02*
X028704Y006773D01*
X028934Y006773D01*
X029011Y006697D01*
X029011Y006543D01*
X028934Y006466D01*
X029164Y006620D02*
X029318Y006773D01*
X035004Y005797D02*
X035004Y005720D01*
X035080Y005643D01*
X035234Y005643D01*
X035311Y005566D01*
X035311Y005490D01*
X035234Y005413D01*
X035080Y005413D01*
X035004Y005490D01*
X035004Y005797D02*
X035080Y005873D01*
X035234Y005873D01*
X035311Y005797D01*
X035464Y005873D02*
X035771Y005873D01*
X035618Y005873D02*
X035618Y005413D01*
X035924Y005413D02*
X035924Y005720D01*
X036078Y005873D01*
X036231Y005720D01*
X036231Y005413D01*
X036231Y005643D02*
X035924Y005643D01*
X036385Y005873D02*
X036692Y005873D01*
X036845Y005873D02*
X036845Y005490D01*
X036922Y005413D01*
X037075Y005413D01*
X037152Y005490D01*
X037152Y005873D01*
X037306Y005797D02*
X037306Y005720D01*
X037382Y005643D01*
X037536Y005643D01*
X037612Y005566D01*
X037612Y005490D01*
X037536Y005413D01*
X037382Y005413D01*
X037306Y005490D01*
X037306Y005797D02*
X037382Y005873D01*
X037536Y005873D01*
X037612Y005797D01*
X036538Y005873D02*
X036538Y005413D01*
X036462Y010413D02*
X036385Y010490D01*
X036462Y010413D02*
X036615Y010413D01*
X036692Y010490D01*
X036692Y010566D01*
X036615Y010643D01*
X036462Y010643D01*
X036385Y010720D01*
X036385Y010797D01*
X036462Y010873D01*
X036615Y010873D01*
X036692Y010797D01*
X036845Y010873D02*
X037152Y010873D01*
X036999Y010873D02*
X036999Y010413D01*
X036231Y010490D02*
X036231Y010797D01*
X036155Y010873D01*
X036001Y010873D01*
X035924Y010797D01*
X035924Y010490D01*
X036001Y010413D01*
X036155Y010413D01*
X036231Y010490D01*
X035771Y010490D02*
X035771Y010797D01*
X035694Y010873D01*
X035541Y010873D01*
X035464Y010797D01*
X035464Y010490D01*
X035541Y010413D01*
X035694Y010413D01*
X035771Y010490D01*
X035311Y010490D02*
X035311Y010566D01*
X035234Y010643D01*
X035004Y010643D01*
X035004Y010413D02*
X035004Y010873D01*
X035234Y010873D01*
X035311Y010797D01*
X035311Y010720D01*
X035234Y010643D01*
X035311Y010490D02*
X035234Y010413D01*
X035004Y010413D01*
X035004Y015913D02*
X035157Y016066D01*
X035311Y015913D01*
X035311Y016373D01*
X035464Y016220D02*
X035618Y016373D01*
X035771Y016220D01*
X035771Y015913D01*
X035771Y016143D02*
X035464Y016143D01*
X035464Y016220D02*
X035464Y015913D01*
X035004Y015913D02*
X035004Y016373D01*
X035924Y016373D02*
X036231Y016373D01*
X036078Y016373D02*
X036078Y015913D01*
X036385Y015913D02*
X036692Y015913D01*
X036845Y015913D02*
X036845Y016373D01*
X037075Y016373D01*
X037152Y016297D01*
X037152Y016143D01*
X037075Y016066D01*
X036845Y016066D01*
X036999Y016066D02*
X037152Y015913D01*
X037306Y015913D02*
X037306Y016373D01*
X037459Y016220D01*
X037612Y016373D01*
X037612Y015913D01*
X037766Y015913D02*
X038073Y015913D01*
X037919Y016143D02*
X037766Y016143D01*
X037766Y016373D02*
X037766Y015913D01*
X037766Y016373D02*
X038073Y016373D01*
X038226Y016373D02*
X038533Y016373D01*
X038380Y016373D02*
X038380Y015913D01*
X038687Y015913D02*
X038687Y016373D01*
X038687Y016143D02*
X038994Y016143D01*
X038994Y016373D02*
X038994Y015913D01*
X036692Y016373D02*
X036385Y016373D01*
X036385Y015913D01*
X036385Y016143D02*
X036538Y016143D01*
X015021Y035713D02*
X014868Y035866D01*
X014945Y035866D02*
X014714Y035866D01*
X014714Y035713D02*
X014714Y036173D01*
X014945Y036173D01*
X015021Y036097D01*
X015021Y035943D01*
X014945Y035866D01*
X014561Y035713D02*
X014254Y035713D01*
X014254Y036173D01*
X014561Y036173D01*
X014407Y035943D02*
X014254Y035943D01*
X014101Y035713D02*
X013794Y035713D01*
X013794Y036173D01*
X013333Y036173D02*
X013333Y035713D01*
X013640Y035713D01*
X013180Y035790D02*
X013180Y036097D01*
X013103Y036173D01*
X012950Y036173D01*
X012873Y036097D01*
X012873Y035790D01*
X012950Y035713D01*
X013103Y035713D01*
X013180Y035790D01*
X012720Y035713D02*
X012566Y035866D01*
X012643Y035866D02*
X012413Y035866D01*
X012413Y035713D02*
X012413Y036173D01*
X012643Y036173D01*
X012720Y036097D01*
X012720Y035943D01*
X012643Y035866D01*
X012259Y036173D02*
X011952Y036173D01*
X011799Y036173D02*
X011799Y035713D01*
X011492Y036173D01*
X011492Y035713D01*
X011338Y035790D02*
X011338Y036097D01*
X011262Y036173D01*
X011108Y036173D01*
X011032Y036097D01*
X011032Y035790D01*
X011108Y035713D01*
X011262Y035713D01*
X011338Y035790D01*
X010878Y035790D02*
X010801Y035713D01*
X010648Y035713D01*
X010571Y035790D01*
X010571Y036097D01*
X010648Y036173D01*
X010801Y036173D01*
X010878Y036097D01*
X009957Y036173D02*
X009651Y036173D01*
X009804Y036173D02*
X009804Y035713D01*
X009497Y035790D02*
X009420Y035713D01*
X009267Y035713D01*
X009190Y035790D01*
X009037Y035790D02*
X009037Y036097D01*
X008960Y036173D01*
X008806Y036173D01*
X008730Y036097D01*
X008730Y035790D01*
X008806Y035713D01*
X008960Y035713D01*
X009037Y035790D01*
X009190Y036020D02*
X009267Y035943D01*
X009420Y035943D01*
X009497Y035866D01*
X009497Y035790D01*
X009497Y036097D02*
X009420Y036173D01*
X009267Y036173D01*
X009190Y036097D01*
X009190Y036020D01*
X008576Y036097D02*
X008500Y036173D01*
X008346Y036173D01*
X008269Y036097D01*
X008269Y035790D01*
X008346Y035713D01*
X008500Y035713D01*
X008576Y035790D01*
X008576Y036097D01*
X008116Y036097D02*
X008116Y036020D01*
X008039Y035943D01*
X007809Y035943D01*
X007809Y035713D02*
X008039Y035713D01*
X008116Y035790D01*
X008116Y035866D01*
X008039Y035943D01*
X008116Y036097D02*
X008039Y036173D01*
X007809Y036173D01*
X007809Y035713D01*
X007195Y035790D02*
X007195Y036097D01*
X007119Y036173D01*
X006888Y036173D01*
X006888Y035713D01*
X007119Y035713D01*
X007195Y035790D01*
X006735Y035713D02*
X006735Y036173D01*
X006428Y036173D02*
X006428Y035713D01*
X006275Y035713D02*
X006275Y036020D01*
X006121Y036173D01*
X005968Y036020D01*
X005968Y035713D01*
X005968Y035943D02*
X006275Y035943D01*
X006428Y036173D02*
X006735Y035713D01*
X006605Y035273D02*
X006375Y035273D01*
X006375Y034813D01*
X006375Y034966D02*
X006605Y034966D01*
X006681Y035043D01*
X006681Y035197D01*
X006605Y035273D01*
X006528Y034966D02*
X006681Y034813D01*
X006221Y034813D02*
X005914Y034813D01*
X005914Y035273D01*
X006221Y035273D01*
X006068Y035043D02*
X005914Y035043D01*
X005761Y035043D02*
X005454Y035043D01*
X005300Y034890D02*
X005224Y034813D01*
X005070Y034813D01*
X004994Y034890D01*
X004994Y035197D01*
X005070Y035273D01*
X005224Y035273D01*
X005300Y035197D01*
X005454Y035273D02*
X005454Y034813D01*
X005761Y034813D02*
X005761Y035273D01*
X005354Y035713D02*
X005354Y036173D01*
X005354Y035943D02*
X005047Y035943D01*
X005047Y035713D02*
X005047Y036173D01*
X004894Y036173D02*
X004587Y036173D01*
X004740Y036173D02*
X004740Y035713D01*
X004433Y035713D02*
X004126Y035713D01*
X004126Y036173D01*
X004433Y036173D01*
X004280Y035943D02*
X004126Y035943D01*
X003973Y036173D02*
X003973Y035713D01*
X003666Y035713D02*
X003666Y036173D01*
X003819Y036020D01*
X003973Y036173D01*
X003512Y035943D02*
X003206Y035943D01*
X003052Y035943D02*
X002975Y035866D01*
X002745Y035866D01*
X002745Y035713D02*
X002745Y036173D01*
X002975Y036173D01*
X003052Y036097D01*
X003052Y035943D01*
X002899Y035866D02*
X003052Y035713D01*
X003075Y035273D02*
X003152Y035197D01*
X003152Y035120D01*
X003075Y035043D01*
X002845Y035043D01*
X002845Y034813D02*
X003075Y034813D01*
X003152Y034890D01*
X003152Y034966D01*
X003075Y035043D01*
X003075Y035273D02*
X002845Y035273D01*
X002845Y034813D01*
X002692Y034813D02*
X002385Y034813D01*
X002385Y035273D01*
X002692Y035273D01*
X002538Y035043D02*
X002385Y035043D01*
X002231Y034813D02*
X001924Y034813D01*
X001924Y035273D01*
X001771Y035120D02*
X001771Y034813D01*
X001771Y035043D02*
X001464Y035043D01*
X001464Y035120D02*
X001618Y035273D01*
X001771Y035120D01*
X001464Y035120D02*
X001464Y034813D01*
X001311Y034813D02*
X001080Y035043D01*
X001004Y034966D02*
X001311Y035273D01*
X001004Y035273D02*
X001004Y034813D01*
X001034Y034173D02*
X000804Y034173D01*
X000804Y033713D01*
X000804Y033866D02*
X001034Y033866D01*
X001111Y033943D01*
X001111Y034097D01*
X001034Y034173D01*
X001264Y034173D02*
X001264Y033713D01*
X001571Y033713D01*
X001724Y033790D02*
X001801Y033713D01*
X001955Y033713D01*
X002031Y033790D01*
X002031Y033943D01*
X001878Y033943D01*
X001724Y034097D02*
X001724Y033790D01*
X001724Y034097D02*
X001801Y034173D01*
X001955Y034173D01*
X002031Y034097D01*
X002185Y034173D02*
X002338Y034173D01*
X002262Y034173D02*
X002262Y033713D01*
X002338Y033713D02*
X002185Y033713D01*
X002492Y033790D02*
X002568Y033713D01*
X002722Y033713D01*
X002799Y033790D01*
X002799Y033866D01*
X002722Y033943D01*
X002568Y033943D01*
X002492Y034020D01*
X002492Y034097D01*
X002568Y034173D01*
X002722Y034173D01*
X002799Y034097D01*
X003412Y034173D02*
X003412Y033790D01*
X003489Y033713D01*
X003643Y033713D01*
X003719Y033790D01*
X003719Y034173D01*
X003873Y034173D02*
X004180Y033713D01*
X004180Y034173D01*
X004333Y034173D02*
X004487Y034173D01*
X004410Y034173D02*
X004410Y033713D01*
X004333Y033713D02*
X004487Y033713D01*
X004640Y033866D02*
X004640Y034173D01*
X004640Y033866D02*
X004793Y033713D01*
X004947Y033866D01*
X004947Y034173D01*
X005100Y034173D02*
X005100Y033713D01*
X005407Y033713D01*
X005561Y033713D02*
X005561Y034173D01*
X005791Y034173D01*
X005868Y034097D01*
X005868Y033943D01*
X005791Y033866D01*
X005561Y033866D01*
X005714Y033866D02*
X005868Y033713D01*
X006021Y033790D02*
X006098Y033713D01*
X006251Y033713D01*
X006328Y033790D01*
X006328Y033866D01*
X006251Y033943D01*
X006098Y033943D01*
X006021Y034020D01*
X006021Y034097D01*
X006098Y034173D01*
X006251Y034173D01*
X006328Y034097D01*
X006481Y034173D02*
X006635Y034173D01*
X006558Y034173D02*
X006558Y033713D01*
X006481Y033713D02*
X006635Y033713D01*
X006942Y033713D02*
X006942Y034173D01*
X007095Y034173D02*
X006788Y034173D01*
X007249Y034173D02*
X007249Y034097D01*
X007402Y033943D01*
X007402Y033713D01*
X007402Y033943D02*
X007556Y034097D01*
X007556Y034173D01*
X008169Y034097D02*
X008246Y034173D01*
X008400Y034173D01*
X008476Y034097D01*
X008476Y034020D01*
X008169Y033713D01*
X008476Y033713D01*
X008630Y033790D02*
X008937Y034097D01*
X008937Y033790D01*
X008860Y033713D01*
X008706Y033713D01*
X008630Y033790D01*
X008630Y034097D01*
X008706Y034173D01*
X008860Y034173D01*
X008937Y034097D01*
X009090Y034020D02*
X009244Y034173D01*
X009244Y033713D01*
X009397Y033713D02*
X009090Y033713D01*
X009550Y033790D02*
X009550Y034097D01*
X009627Y034173D01*
X009781Y034173D01*
X009857Y034097D01*
X009550Y033790D01*
X009627Y033713D01*
X009781Y033713D01*
X009857Y033790D01*
X009857Y034097D01*
X012106Y035713D02*
X012106Y036173D01*
X005407Y034173D02*
X005100Y034173D01*
X005100Y033943D02*
X005254Y033943D01*
X004840Y034813D02*
X004687Y034966D01*
X004763Y034966D02*
X004533Y034966D01*
X004533Y034813D02*
X004533Y035273D01*
X004763Y035273D01*
X004840Y035197D01*
X004840Y035043D01*
X004763Y034966D01*
X004380Y034813D02*
X004226Y034813D01*
X004303Y034813D02*
X004303Y035273D01*
X004226Y035273D02*
X004380Y035273D01*
X004073Y035273D02*
X003766Y034966D01*
X003843Y035043D02*
X004073Y034813D01*
X003766Y034813D02*
X003766Y035273D01*
X003873Y034173D02*
X003873Y033713D01*
X001571Y034173D02*
X001264Y034173D01*
X001264Y033943D02*
X001418Y033943D01*
X001111Y033713D02*
X000957Y033866D01*
X000904Y035713D02*
X001057Y035866D01*
X001211Y035713D01*
X001211Y036173D01*
X001364Y036020D02*
X001518Y036173D01*
X001671Y036020D01*
X001671Y035713D01*
X001671Y035943D02*
X001364Y035943D01*
X001364Y036020D02*
X001364Y035713D01*
X000904Y035713D02*
X000904Y036173D01*
X001824Y036173D02*
X002131Y036173D01*
X001978Y036173D02*
X001978Y035713D01*
X002285Y035713D02*
X002592Y035713D01*
X002438Y035943D02*
X002285Y035943D01*
X002285Y036173D02*
X002285Y035713D01*
X002285Y036173D02*
X002592Y036173D01*
X006523Y017673D02*
X006753Y017673D01*
X006830Y017597D01*
X006830Y017443D01*
X006753Y017366D01*
X006523Y017366D01*
X006523Y017213D02*
X006523Y017673D01*
X006676Y017366D02*
X006830Y017213D01*
X006983Y017213D02*
X007290Y017520D01*
X007290Y017597D01*
X007213Y017673D01*
X007060Y017673D01*
X006983Y017597D01*
X006983Y017213D02*
X007290Y017213D01*
X007443Y017290D02*
X007750Y017597D01*
X007750Y017290D01*
X007674Y017213D01*
X007520Y017213D01*
X007443Y017290D01*
X007443Y017597D01*
X007520Y017673D01*
X007674Y017673D01*
X007750Y017597D01*
X005974Y015473D02*
X006050Y015397D01*
X005743Y015090D01*
X005820Y015013D01*
X005974Y015013D01*
X006050Y015090D01*
X006050Y015397D01*
X005974Y015473D02*
X005820Y015473D01*
X005743Y015397D01*
X005743Y015090D01*
X005590Y015013D02*
X005283Y015013D01*
X005436Y015013D02*
X005436Y015473D01*
X005283Y015320D01*
X005130Y015397D02*
X005130Y015243D01*
X005053Y015166D01*
X004823Y015166D01*
X004823Y015013D02*
X004823Y015473D01*
X005053Y015473D01*
X005130Y015397D01*
X004976Y015166D02*
X005130Y015013D01*
D11*
X007124Y027478D02*
X007019Y027583D01*
X007019Y028004D01*
X007124Y028109D01*
X007334Y028109D01*
X007439Y028004D01*
X007439Y027583D01*
X007334Y027478D01*
X007124Y027478D01*
X007229Y027688D02*
X007439Y027478D01*
X007663Y027478D02*
X008084Y027478D01*
X007873Y027478D02*
X007873Y028109D01*
X007663Y027898D01*
X003084Y027898D02*
X003084Y028004D01*
X002979Y028109D01*
X002768Y028109D01*
X002663Y028004D01*
X002439Y028004D02*
X002439Y027583D01*
X002334Y027478D01*
X002124Y027478D01*
X002019Y027583D01*
X002019Y028004D01*
X002124Y028109D01*
X002334Y028109D01*
X002439Y028004D01*
X002229Y027688D02*
X002439Y027478D01*
X002663Y027478D02*
X003084Y027898D01*
X003084Y027478D02*
X002663Y027478D01*
X024300Y004859D02*
X024510Y004859D01*
X024405Y004859D02*
X024405Y004228D01*
X024300Y004228D02*
X024510Y004228D01*
X024730Y004333D02*
X024835Y004228D01*
X025045Y004228D01*
X025150Y004333D01*
X025374Y004228D02*
X025795Y004228D01*
X025584Y004228D02*
X025584Y004859D01*
X025374Y004648D01*
X025150Y004754D02*
X025045Y004859D01*
X024835Y004859D01*
X024730Y004754D01*
X024730Y004333D01*
D12*
X023984Y004993D02*
X026084Y004993D01*
X026084Y025793D01*
X020884Y025793D01*
X020884Y004993D01*
X022984Y004993D01*
X022986Y005037D01*
X022992Y005080D01*
X023001Y005122D01*
X023014Y005164D01*
X023031Y005204D01*
X023051Y005243D01*
X023074Y005280D01*
X023101Y005314D01*
X023130Y005347D01*
X023163Y005376D01*
X023197Y005403D01*
X023234Y005426D01*
X023273Y005446D01*
X023313Y005463D01*
X023355Y005476D01*
X023397Y005485D01*
X023440Y005491D01*
X023484Y005493D01*
X023528Y005491D01*
X023571Y005485D01*
X023613Y005476D01*
X023655Y005463D01*
X023695Y005446D01*
X023734Y005426D01*
X023771Y005403D01*
X023805Y005376D01*
X023838Y005347D01*
X023867Y005314D01*
X023894Y005280D01*
X023917Y005243D01*
X023937Y005204D01*
X023954Y005164D01*
X023967Y005122D01*
X023976Y005080D01*
X023982Y005037D01*
X023984Y004993D01*
X008384Y012493D02*
X008384Y012693D01*
X007984Y012693D01*
X007584Y012693D01*
X007584Y012493D01*
X008384Y012493D01*
X008234Y012793D02*
X008234Y012993D01*
X008134Y012893D02*
X008334Y012893D01*
X007984Y012943D02*
X007984Y012693D01*
X007450Y013523D02*
X007388Y013492D01*
X007329Y013457D01*
X007271Y013420D01*
X007216Y013379D01*
X007162Y013335D01*
X007112Y013288D01*
X007064Y013239D01*
X007019Y013187D01*
X006976Y013133D01*
X006937Y013076D01*
X006901Y013018D01*
X006868Y012957D01*
X006839Y012895D01*
X006813Y012831D01*
X006791Y012766D01*
X006772Y012700D01*
X006757Y012632D01*
X006746Y012565D01*
X006738Y012496D01*
X006734Y012427D01*
X006734Y012359D01*
X006738Y012290D01*
X006746Y012221D01*
X006757Y012154D01*
X006772Y012086D01*
X006791Y012020D01*
X006813Y011955D01*
X006839Y011891D01*
X006868Y011829D01*
X006901Y011768D01*
X006937Y011710D01*
X006976Y011653D01*
X007019Y011599D01*
X007064Y011547D01*
X007112Y011498D01*
X007162Y011451D01*
X007216Y011407D01*
X007271Y011366D01*
X007329Y011329D01*
X007388Y011294D01*
X007450Y011263D01*
X007984Y011843D02*
X007984Y012143D01*
X008518Y011263D02*
X008580Y011294D01*
X008639Y011329D01*
X008697Y011366D01*
X008752Y011407D01*
X008806Y011451D01*
X008856Y011498D01*
X008904Y011547D01*
X008949Y011599D01*
X008992Y011653D01*
X009031Y011710D01*
X009067Y011768D01*
X009100Y011829D01*
X009129Y011891D01*
X009155Y011955D01*
X009177Y012020D01*
X009196Y012086D01*
X009211Y012154D01*
X009222Y012221D01*
X009230Y012290D01*
X009234Y012359D01*
X009234Y012427D01*
X009230Y012496D01*
X009222Y012565D01*
X009211Y012632D01*
X009196Y012700D01*
X009177Y012766D01*
X009155Y012831D01*
X009129Y012895D01*
X009100Y012957D01*
X009067Y013018D01*
X009031Y013076D01*
X008992Y013133D01*
X008949Y013187D01*
X008904Y013239D01*
X008856Y013288D01*
X008806Y013335D01*
X008752Y013379D01*
X008697Y013420D01*
X008639Y013457D01*
X008580Y013492D01*
X008518Y013523D01*
X006234Y002993D02*
X006234Y002793D01*
X006134Y002893D02*
X006334Y002893D01*
X006384Y002693D02*
X005984Y002693D01*
X005584Y002693D01*
X005584Y002493D01*
X006384Y002493D01*
X006384Y002693D01*
X005984Y002693D02*
X005984Y002943D01*
X005450Y003523D02*
X005388Y003492D01*
X005329Y003457D01*
X005271Y003420D01*
X005216Y003379D01*
X005162Y003335D01*
X005112Y003288D01*
X005064Y003239D01*
X005019Y003187D01*
X004976Y003133D01*
X004937Y003076D01*
X004901Y003018D01*
X004868Y002957D01*
X004839Y002895D01*
X004813Y002831D01*
X004791Y002766D01*
X004772Y002700D01*
X004757Y002632D01*
X004746Y002565D01*
X004738Y002496D01*
X004734Y002427D01*
X004734Y002359D01*
X004738Y002290D01*
X004746Y002221D01*
X004757Y002154D01*
X004772Y002086D01*
X004791Y002020D01*
X004813Y001955D01*
X004839Y001891D01*
X004868Y001829D01*
X004901Y001768D01*
X004937Y001710D01*
X004976Y001653D01*
X005019Y001599D01*
X005064Y001547D01*
X005112Y001498D01*
X005162Y001451D01*
X005216Y001407D01*
X005271Y001366D01*
X005329Y001329D01*
X005388Y001294D01*
X005450Y001263D01*
X005984Y001843D02*
X005984Y002143D01*
X006518Y001263D02*
X006580Y001294D01*
X006639Y001329D01*
X006697Y001366D01*
X006752Y001407D01*
X006806Y001451D01*
X006856Y001498D01*
X006904Y001547D01*
X006949Y001599D01*
X006992Y001653D01*
X007031Y001710D01*
X007067Y001768D01*
X007100Y001829D01*
X007129Y001891D01*
X007155Y001955D01*
X007177Y002020D01*
X007196Y002086D01*
X007211Y002154D01*
X007222Y002221D01*
X007230Y002290D01*
X007234Y002359D01*
X007234Y002427D01*
X007230Y002496D01*
X007222Y002565D01*
X007211Y002632D01*
X007196Y002700D01*
X007177Y002766D01*
X007155Y002831D01*
X007129Y002895D01*
X007100Y002957D01*
X007067Y003018D01*
X007031Y003076D01*
X006992Y003133D01*
X006949Y003187D01*
X006904Y003239D01*
X006856Y003288D01*
X006806Y003335D01*
X006752Y003379D01*
X006697Y003420D01*
X006639Y003457D01*
X006580Y003492D01*
X006518Y003523D01*
X015774Y026463D02*
X017194Y026463D01*
X017194Y028323D02*
X015774Y028323D01*
D13*
X016817Y026683D02*
X016819Y026698D01*
X016825Y026711D01*
X016834Y026723D01*
X016845Y026732D01*
X016859Y026738D01*
X016874Y026740D01*
X016889Y026738D01*
X016902Y026732D01*
X016914Y026723D01*
X016923Y026712D01*
X016929Y026698D01*
X016931Y026683D01*
X016929Y026668D01*
X016923Y026655D01*
X016914Y026643D01*
X016903Y026634D01*
X016889Y026628D01*
X016874Y026626D01*
X016859Y026628D01*
X016846Y026634D01*
X016834Y026643D01*
X016825Y026654D01*
X016819Y026668D01*
X016817Y026683D01*
X013434Y030093D02*
X012934Y030093D01*
X012684Y030343D01*
X012434Y030093D01*
X011934Y030093D01*
X011684Y030343D01*
X011684Y030843D01*
X011934Y031093D01*
X012434Y031093D01*
X012684Y030843D01*
X012934Y031093D01*
X013434Y031093D01*
X013684Y030843D01*
X013684Y030343D01*
X013434Y030093D01*
X007734Y020893D02*
X007234Y020893D01*
X006984Y020643D01*
X006734Y020893D01*
X006234Y020893D01*
X005984Y020643D01*
X005734Y020893D01*
X005234Y020893D01*
X004984Y020643D01*
X004734Y020893D01*
X004234Y020893D01*
X003984Y020643D01*
X003984Y020143D01*
X004234Y019893D01*
X004734Y019893D01*
X004984Y020143D01*
X005234Y019893D01*
X005734Y019893D01*
X005984Y020143D01*
X006234Y019893D01*
X006734Y019893D01*
X006984Y020143D01*
X007234Y019893D01*
X007734Y019893D01*
X007984Y020143D01*
X007984Y020643D01*
X007734Y020893D01*
X008334Y017183D02*
X009634Y017183D01*
X009634Y014603D01*
X008334Y014603D01*
X008334Y017183D01*
X003984Y015143D02*
X003984Y014643D01*
X003734Y014393D01*
X003234Y014393D01*
X002984Y014643D01*
X002734Y014393D01*
X002234Y014393D01*
X001984Y014643D01*
X001734Y014393D01*
X001234Y014393D01*
X000984Y014643D01*
X000984Y015143D01*
X001234Y015393D01*
X001734Y015393D01*
X001984Y015143D01*
X002234Y015393D01*
X002734Y015393D01*
X002984Y015143D01*
X003234Y015393D01*
X003734Y015393D01*
X003984Y015143D01*
X003234Y016893D02*
X002734Y016893D01*
X002484Y017143D01*
X002234Y016893D01*
X001734Y016893D01*
X001484Y017143D01*
X001484Y017643D01*
X001734Y017893D01*
X002234Y017893D01*
X002484Y017643D01*
X002734Y017893D01*
X003234Y017893D01*
X003484Y017643D01*
X003484Y017143D01*
X003234Y016893D01*
X002934Y011293D02*
X002434Y011293D01*
X002184Y011043D01*
X001934Y011293D01*
X001434Y011293D01*
X001184Y011043D01*
X001184Y010543D01*
X001434Y010293D01*
X001934Y010293D01*
X002184Y010543D01*
X002434Y010293D01*
X002934Y010293D01*
X003184Y010543D01*
X003184Y011043D01*
X002934Y011293D01*
X005334Y006683D02*
X006634Y006683D01*
X006634Y004103D01*
X005334Y004103D01*
X005334Y006683D01*
X008984Y004143D02*
X008984Y003643D01*
X009234Y003393D01*
X009734Y003393D01*
X009984Y003643D01*
X010234Y003393D01*
X010734Y003393D01*
X010984Y003643D01*
X011234Y003393D01*
X011734Y003393D01*
X011984Y003643D01*
X011984Y004143D01*
X011734Y004393D01*
X011234Y004393D01*
X010984Y004143D01*
X010734Y004393D01*
X010234Y004393D01*
X009984Y004143D01*
X009734Y004393D01*
X009234Y004393D01*
X008984Y004143D01*
X009234Y002393D02*
X008984Y002143D01*
X008984Y001643D01*
X009234Y001393D01*
X009734Y001393D01*
X009984Y001643D01*
X010234Y001393D01*
X010734Y001393D01*
X010984Y001643D01*
X011234Y001393D01*
X011734Y001393D01*
X011984Y001643D01*
X012234Y001393D01*
X012734Y001393D01*
X012984Y001643D01*
X013234Y001393D01*
X013734Y001393D01*
X013984Y001643D01*
X014234Y001393D01*
X014734Y001393D01*
X014984Y001643D01*
X015234Y001393D01*
X015734Y001393D01*
X015984Y001643D01*
X016234Y001393D01*
X016734Y001393D01*
X016984Y001643D01*
X016984Y002143D01*
X016734Y002393D01*
X016234Y002393D01*
X015984Y002143D01*
X015734Y002393D01*
X015234Y002393D01*
X014984Y002143D01*
X014734Y002393D01*
X014234Y002393D01*
X013984Y002143D01*
X013734Y002393D01*
X013234Y002393D01*
X012984Y002143D01*
X012734Y002393D01*
X012234Y002393D01*
X011984Y002143D01*
X011734Y002393D01*
X011234Y002393D01*
X010984Y002143D01*
X010734Y002393D01*
X010234Y002393D01*
X009984Y002143D01*
X009734Y002393D01*
X009234Y002393D01*
X036484Y018405D02*
X036484Y019393D01*
X036877Y019893D02*
X038090Y019893D01*
X038484Y019381D02*
X038484Y018405D01*
X038090Y017893D02*
X036877Y017893D01*
X036984Y018893D02*
X036986Y018937D01*
X036992Y018981D01*
X037002Y019024D01*
X037015Y019066D01*
X037032Y019107D01*
X037053Y019146D01*
X037077Y019183D01*
X037104Y019218D01*
X037134Y019250D01*
X037167Y019280D01*
X037203Y019306D01*
X037240Y019330D01*
X037280Y019349D01*
X037321Y019366D01*
X037364Y019378D01*
X037407Y019387D01*
X037451Y019392D01*
X037495Y019393D01*
X037539Y019390D01*
X037583Y019383D01*
X037626Y019372D01*
X037668Y019358D01*
X037708Y019340D01*
X037747Y019318D01*
X037783Y019294D01*
X037817Y019266D01*
X037849Y019235D01*
X037878Y019201D01*
X037904Y019165D01*
X037926Y019127D01*
X037945Y019087D01*
X037960Y019045D01*
X037972Y019003D01*
X037980Y018959D01*
X037984Y018915D01*
X037984Y018871D01*
X037980Y018827D01*
X037972Y018783D01*
X037960Y018741D01*
X037945Y018699D01*
X037926Y018659D01*
X037904Y018621D01*
X037878Y018585D01*
X037849Y018551D01*
X037817Y018520D01*
X037783Y018492D01*
X037747Y018468D01*
X037708Y018446D01*
X037668Y018428D01*
X037626Y018414D01*
X037583Y018403D01*
X037539Y018396D01*
X037495Y018393D01*
X037451Y018394D01*
X037407Y018399D01*
X037364Y018408D01*
X037321Y018420D01*
X037280Y018437D01*
X037240Y018456D01*
X037203Y018480D01*
X037167Y018506D01*
X037134Y018536D01*
X037104Y018568D01*
X037077Y018603D01*
X037053Y018640D01*
X037032Y018679D01*
X037015Y018720D01*
X037002Y018762D01*
X036992Y018805D01*
X036986Y018849D01*
X036984Y018893D01*
X036877Y021393D02*
X038090Y021393D01*
X038484Y021905D02*
X038484Y022881D01*
X038090Y023393D02*
X036877Y023393D01*
X036484Y022893D02*
X036484Y021905D01*
X036984Y022393D02*
X036986Y022437D01*
X036992Y022481D01*
X037002Y022524D01*
X037015Y022566D01*
X037032Y022607D01*
X037053Y022646D01*
X037077Y022683D01*
X037104Y022718D01*
X037134Y022750D01*
X037167Y022780D01*
X037203Y022806D01*
X037240Y022830D01*
X037280Y022849D01*
X037321Y022866D01*
X037364Y022878D01*
X037407Y022887D01*
X037451Y022892D01*
X037495Y022893D01*
X037539Y022890D01*
X037583Y022883D01*
X037626Y022872D01*
X037668Y022858D01*
X037708Y022840D01*
X037747Y022818D01*
X037783Y022794D01*
X037817Y022766D01*
X037849Y022735D01*
X037878Y022701D01*
X037904Y022665D01*
X037926Y022627D01*
X037945Y022587D01*
X037960Y022545D01*
X037972Y022503D01*
X037980Y022459D01*
X037984Y022415D01*
X037984Y022371D01*
X037980Y022327D01*
X037972Y022283D01*
X037960Y022241D01*
X037945Y022199D01*
X037926Y022159D01*
X037904Y022121D01*
X037878Y022085D01*
X037849Y022051D01*
X037817Y022020D01*
X037783Y021992D01*
X037747Y021968D01*
X037708Y021946D01*
X037668Y021928D01*
X037626Y021914D01*
X037583Y021903D01*
X037539Y021896D01*
X037495Y021893D01*
X037451Y021894D01*
X037407Y021899D01*
X037364Y021908D01*
X037321Y021920D01*
X037280Y021937D01*
X037240Y021956D01*
X037203Y021980D01*
X037167Y022006D01*
X037134Y022036D01*
X037104Y022068D01*
X037077Y022103D01*
X037053Y022140D01*
X037032Y022179D01*
X037015Y022220D01*
X037002Y022262D01*
X036992Y022305D01*
X036986Y022349D01*
X036984Y022393D01*
X036877Y024893D02*
X038090Y024893D01*
X038484Y025405D02*
X038484Y026381D01*
X038090Y026893D02*
X036877Y026893D01*
X036484Y026393D02*
X036484Y025405D01*
X036984Y025893D02*
X036986Y025937D01*
X036992Y025981D01*
X037002Y026024D01*
X037015Y026066D01*
X037032Y026107D01*
X037053Y026146D01*
X037077Y026183D01*
X037104Y026218D01*
X037134Y026250D01*
X037167Y026280D01*
X037203Y026306D01*
X037240Y026330D01*
X037280Y026349D01*
X037321Y026366D01*
X037364Y026378D01*
X037407Y026387D01*
X037451Y026392D01*
X037495Y026393D01*
X037539Y026390D01*
X037583Y026383D01*
X037626Y026372D01*
X037668Y026358D01*
X037708Y026340D01*
X037747Y026318D01*
X037783Y026294D01*
X037817Y026266D01*
X037849Y026235D01*
X037878Y026201D01*
X037904Y026165D01*
X037926Y026127D01*
X037945Y026087D01*
X037960Y026045D01*
X037972Y026003D01*
X037980Y025959D01*
X037984Y025915D01*
X037984Y025871D01*
X037980Y025827D01*
X037972Y025783D01*
X037960Y025741D01*
X037945Y025699D01*
X037926Y025659D01*
X037904Y025621D01*
X037878Y025585D01*
X037849Y025551D01*
X037817Y025520D01*
X037783Y025492D01*
X037747Y025468D01*
X037708Y025446D01*
X037668Y025428D01*
X037626Y025414D01*
X037583Y025403D01*
X037539Y025396D01*
X037495Y025393D01*
X037451Y025394D01*
X037407Y025399D01*
X037364Y025408D01*
X037321Y025420D01*
X037280Y025437D01*
X037240Y025456D01*
X037203Y025480D01*
X037167Y025506D01*
X037134Y025536D01*
X037104Y025568D01*
X037077Y025603D01*
X037053Y025640D01*
X037032Y025679D01*
X037015Y025720D01*
X037002Y025762D01*
X036992Y025805D01*
X036986Y025849D01*
X036984Y025893D01*
X036877Y028393D02*
X038090Y028393D01*
X038484Y028905D02*
X038484Y029881D01*
X038090Y030393D02*
X036877Y030393D01*
X036484Y029893D02*
X036484Y028905D01*
X036984Y029393D02*
X036986Y029437D01*
X036992Y029481D01*
X037002Y029524D01*
X037015Y029566D01*
X037032Y029607D01*
X037053Y029646D01*
X037077Y029683D01*
X037104Y029718D01*
X037134Y029750D01*
X037167Y029780D01*
X037203Y029806D01*
X037240Y029830D01*
X037280Y029849D01*
X037321Y029866D01*
X037364Y029878D01*
X037407Y029887D01*
X037451Y029892D01*
X037495Y029893D01*
X037539Y029890D01*
X037583Y029883D01*
X037626Y029872D01*
X037668Y029858D01*
X037708Y029840D01*
X037747Y029818D01*
X037783Y029794D01*
X037817Y029766D01*
X037849Y029735D01*
X037878Y029701D01*
X037904Y029665D01*
X037926Y029627D01*
X037945Y029587D01*
X037960Y029545D01*
X037972Y029503D01*
X037980Y029459D01*
X037984Y029415D01*
X037984Y029371D01*
X037980Y029327D01*
X037972Y029283D01*
X037960Y029241D01*
X037945Y029199D01*
X037926Y029159D01*
X037904Y029121D01*
X037878Y029085D01*
X037849Y029051D01*
X037817Y029020D01*
X037783Y028992D01*
X037747Y028968D01*
X037708Y028946D01*
X037668Y028928D01*
X037626Y028914D01*
X037583Y028903D01*
X037539Y028896D01*
X037495Y028893D01*
X037451Y028894D01*
X037407Y028899D01*
X037364Y028908D01*
X037321Y028920D01*
X037280Y028937D01*
X037240Y028956D01*
X037203Y028980D01*
X037167Y029006D01*
X037134Y029036D01*
X037104Y029068D01*
X037077Y029103D01*
X037053Y029140D01*
X037032Y029179D01*
X037015Y029220D01*
X037002Y029262D01*
X036992Y029305D01*
X036986Y029349D01*
X036984Y029393D01*
D14*
X037164Y030098D02*
X037139Y030123D01*
X037164Y030098D02*
X037214Y030098D01*
X037239Y030123D01*
X037239Y030148D01*
X037214Y030173D01*
X037164Y030173D01*
X037139Y030198D01*
X037139Y030223D01*
X037164Y030248D01*
X037214Y030248D01*
X037239Y030223D01*
X037286Y030198D02*
X037336Y030248D01*
X037336Y030098D01*
X037286Y030098D02*
X037386Y030098D01*
X037361Y026748D02*
X037311Y026748D01*
X037286Y026723D01*
X037239Y026723D02*
X037214Y026748D01*
X037164Y026748D01*
X037139Y026723D01*
X037139Y026698D01*
X037164Y026673D01*
X037214Y026673D01*
X037239Y026648D01*
X037239Y026623D01*
X037214Y026598D01*
X037164Y026598D01*
X037139Y026623D01*
X037286Y026598D02*
X037386Y026698D01*
X037386Y026723D01*
X037361Y026748D01*
X037386Y026598D02*
X037286Y026598D01*
X037311Y023248D02*
X037361Y023248D01*
X037386Y023223D01*
X037386Y023198D01*
X037361Y023173D01*
X037386Y023148D01*
X037386Y023123D01*
X037361Y023098D01*
X037311Y023098D01*
X037286Y023123D01*
X037239Y023123D02*
X037214Y023098D01*
X037164Y023098D01*
X037139Y023123D01*
X037164Y023173D02*
X037214Y023173D01*
X037239Y023148D01*
X037239Y023123D01*
X037164Y023173D02*
X037139Y023198D01*
X037139Y023223D01*
X037164Y023248D01*
X037214Y023248D01*
X037239Y023223D01*
X037286Y023223D02*
X037311Y023248D01*
X037336Y023173D02*
X037361Y023173D01*
X037361Y019748D02*
X037286Y019673D01*
X037386Y019673D01*
X037361Y019598D02*
X037361Y019748D01*
X037239Y019723D02*
X037214Y019748D01*
X037164Y019748D01*
X037139Y019723D01*
X037139Y019698D01*
X037164Y019673D01*
X037214Y019673D01*
X037239Y019648D01*
X037239Y019623D01*
X037214Y019598D01*
X037164Y019598D01*
X037139Y019623D01*
X016479Y026898D02*
X016479Y026948D01*
X016479Y026923D02*
X016329Y026923D01*
X016329Y026898D02*
X016329Y026948D01*
X016354Y026996D02*
X016454Y026996D01*
X016479Y027021D01*
X016479Y027071D01*
X016454Y027096D01*
X016479Y027144D02*
X016379Y027244D01*
X016354Y027244D01*
X016329Y027219D01*
X016329Y027169D01*
X016354Y027144D01*
X016354Y027096D02*
X016329Y027071D01*
X016329Y027021D01*
X016354Y026996D01*
X016479Y027144D02*
X016479Y027244D01*
X010889Y016176D02*
X010839Y016176D01*
X010839Y016126D01*
X010889Y016176D02*
X010914Y016151D01*
X010914Y016101D01*
X010889Y016076D01*
X010789Y016076D01*
X010764Y016101D01*
X010764Y016151D01*
X010789Y016176D01*
X010764Y016029D02*
X010764Y015928D01*
X010914Y015928D01*
X010914Y016029D01*
X010839Y015978D02*
X010839Y015928D01*
X010839Y015881D02*
X010864Y015856D01*
X010864Y015781D01*
X010864Y015734D02*
X010764Y015734D01*
X010764Y015781D02*
X010764Y015856D01*
X010789Y015881D01*
X010839Y015881D01*
X010864Y015831D02*
X010914Y015881D01*
X010914Y015781D02*
X010764Y015781D01*
X010864Y015734D02*
X010914Y015684D01*
X010864Y015634D01*
X010764Y015634D01*
X010764Y015587D02*
X010764Y015486D01*
X010839Y015486D01*
X010814Y015536D01*
X010814Y015561D01*
X010839Y015587D01*
X010889Y015587D01*
X010914Y015561D01*
X010914Y015511D01*
X010889Y015486D01*
X007889Y005676D02*
X007839Y005676D01*
X007839Y005626D01*
X007889Y005676D02*
X007914Y005651D01*
X007914Y005601D01*
X007889Y005576D01*
X007789Y005576D01*
X007764Y005601D01*
X007764Y005651D01*
X007789Y005676D01*
X007764Y005529D02*
X007764Y005428D01*
X007914Y005428D01*
X007914Y005529D01*
X007839Y005478D02*
X007839Y005428D01*
X007839Y005381D02*
X007864Y005356D01*
X007864Y005281D01*
X007864Y005234D02*
X007764Y005234D01*
X007764Y005281D02*
X007764Y005356D01*
X007789Y005381D01*
X007839Y005381D01*
X007864Y005331D02*
X007914Y005381D01*
X007914Y005281D02*
X007764Y005281D01*
X007864Y005234D02*
X007914Y005184D01*
X007864Y005134D01*
X007764Y005134D01*
X007789Y005087D02*
X007814Y005087D01*
X007839Y005061D01*
X007864Y005087D01*
X007889Y005087D01*
X007914Y005061D01*
X007914Y005011D01*
X007889Y004986D01*
X007889Y004938D02*
X007914Y004938D01*
X007914Y004913D01*
X007889Y004913D01*
X007889Y004938D01*
X007889Y004866D02*
X007914Y004841D01*
X007914Y004790D01*
X007889Y004765D01*
X007839Y004816D02*
X007839Y004841D01*
X007864Y004866D01*
X007889Y004866D01*
X007839Y004841D02*
X007814Y004866D01*
X007789Y004866D01*
X007764Y004841D01*
X007764Y004790D01*
X007789Y004765D01*
X007789Y004986D02*
X007764Y005011D01*
X007764Y005061D01*
X007789Y005087D01*
X007839Y005061D02*
X007839Y005036D01*
D15*
X010658Y003148D02*
X010658Y002698D01*
X010958Y002698D01*
X011118Y002773D02*
X011118Y003073D01*
X011193Y003148D01*
X011343Y003148D01*
X011418Y003073D01*
X011578Y003148D02*
X011578Y002698D01*
X011804Y002698D01*
X011879Y002773D01*
X011879Y003073D01*
X011804Y003148D01*
X011578Y003148D01*
X011418Y002773D02*
X011343Y002698D01*
X011193Y002698D01*
X011118Y002773D01*
X014737Y000998D02*
X014737Y000698D01*
X014737Y000923D02*
X015037Y000923D01*
X015037Y000998D02*
X015037Y000698D01*
X015197Y000773D02*
X015272Y000698D01*
X015422Y000698D01*
X015497Y000773D01*
X015658Y000773D02*
X015733Y000698D01*
X015883Y000698D01*
X015958Y000773D01*
X016118Y000698D02*
X016418Y000698D01*
X016578Y000698D02*
X016879Y000698D01*
X016578Y000698D02*
X016578Y001148D01*
X016418Y001148D02*
X016118Y001148D01*
X016118Y000698D01*
X016118Y000923D02*
X016268Y000923D01*
X015958Y001073D02*
X015883Y001148D01*
X015733Y001148D01*
X015658Y001073D01*
X015658Y000773D01*
X015497Y001073D02*
X015422Y001148D01*
X015272Y001148D01*
X015197Y001073D01*
X015197Y000773D01*
X015037Y000998D02*
X014887Y001148D01*
X014737Y000998D01*
X007159Y000983D02*
X007159Y000833D01*
X007084Y000758D01*
X006934Y000758D02*
X006859Y000908D01*
X006859Y000983D01*
X006934Y001058D01*
X007084Y001058D01*
X007159Y000983D01*
X006934Y000758D02*
X006708Y000758D01*
X006708Y001058D01*
X006783Y000598D02*
X006708Y000522D01*
X006708Y000372D01*
X006783Y000297D01*
X007084Y000297D01*
X007159Y000372D01*
X007159Y000522D01*
X007084Y000598D01*
X008783Y010297D02*
X008708Y010372D01*
X008708Y010522D01*
X008783Y010598D01*
X008934Y010758D02*
X008934Y011058D01*
X009159Y010983D02*
X008708Y010983D01*
X008934Y010758D01*
X009084Y010598D02*
X009159Y010522D01*
X009159Y010372D01*
X009084Y010297D01*
X008783Y010297D01*
X003320Y011988D02*
X003020Y011988D01*
X003170Y011988D02*
X003170Y011538D01*
X002710Y011538D02*
X002710Y011988D01*
X002560Y011988D02*
X002860Y011988D01*
X002400Y011838D02*
X002400Y011538D01*
X002400Y011763D02*
X002099Y011763D01*
X002099Y011838D02*
X002250Y011988D01*
X002400Y011838D01*
X002099Y011838D02*
X002099Y011538D01*
X001939Y011613D02*
X001864Y011538D01*
X001639Y011538D01*
X001639Y011988D01*
X001864Y011988D01*
X001939Y011913D01*
X001939Y011838D01*
X001864Y011763D01*
X001639Y011763D01*
X001479Y011688D02*
X001479Y011988D01*
X001479Y011688D02*
X001329Y011538D01*
X001179Y011688D01*
X001179Y011988D01*
X001864Y011763D02*
X001939Y011688D01*
X001939Y011613D01*
X002050Y015638D02*
X002050Y016088D01*
X002200Y016088D02*
X001899Y016088D01*
X001739Y016013D02*
X001664Y016088D01*
X001514Y016088D01*
X001439Y016013D01*
X001439Y015938D01*
X001514Y015863D01*
X001664Y015863D01*
X001739Y015788D01*
X001739Y015713D01*
X001664Y015638D01*
X001514Y015638D01*
X001439Y015713D01*
X001279Y015713D02*
X001204Y015638D01*
X000979Y015638D01*
X000979Y016088D01*
X001204Y016088D01*
X001279Y016013D01*
X001279Y015938D01*
X001204Y015863D01*
X000979Y015863D01*
X001204Y015863D02*
X001279Y015788D01*
X001279Y015713D01*
X002360Y015713D02*
X002435Y015638D01*
X002585Y015638D01*
X002660Y015713D01*
X002660Y015788D01*
X002585Y015863D01*
X002435Y015863D01*
X002360Y015938D01*
X002360Y016013D01*
X002435Y016088D01*
X002585Y016088D01*
X002660Y016013D01*
X002820Y016088D02*
X003120Y015638D01*
X003120Y016088D01*
X003281Y016013D02*
X003281Y015938D01*
X003356Y015863D01*
X003506Y015863D01*
X003581Y015788D01*
X003581Y015713D01*
X003506Y015638D01*
X003356Y015638D01*
X003281Y015713D01*
X003281Y016013D02*
X003356Y016088D01*
X003506Y016088D01*
X003581Y016013D01*
X003741Y016088D02*
X003741Y015638D01*
X003741Y015788D02*
X003966Y015788D01*
X004041Y015863D01*
X004041Y016013D01*
X003966Y016088D01*
X003741Y016088D01*
X003891Y015788D02*
X004041Y015638D01*
X002820Y015638D02*
X002820Y016088D01*
X002860Y018138D02*
X002860Y018588D01*
X003160Y018138D01*
X003160Y018588D01*
X003320Y018513D02*
X003320Y018438D01*
X003395Y018363D01*
X003545Y018363D01*
X003620Y018288D01*
X003620Y018213D01*
X003545Y018138D01*
X003395Y018138D01*
X003320Y018213D01*
X003320Y018513D02*
X003395Y018588D01*
X003545Y018588D01*
X003620Y018513D01*
X003781Y018588D02*
X003781Y018138D01*
X003781Y018288D02*
X004006Y018288D01*
X004081Y018363D01*
X004081Y018513D01*
X004006Y018588D01*
X003781Y018588D01*
X003931Y018288D02*
X004081Y018138D01*
X002700Y018213D02*
X002625Y018138D01*
X002475Y018138D01*
X002399Y018213D01*
X002475Y018363D02*
X002625Y018363D01*
X002700Y018288D01*
X002700Y018213D01*
X002475Y018363D02*
X002399Y018438D01*
X002399Y018513D01*
X002475Y018588D01*
X002625Y018588D01*
X002700Y018513D01*
X002239Y018588D02*
X002239Y018138D01*
X001939Y018138D02*
X001939Y018588D01*
X002089Y018438D01*
X002239Y018588D01*
X001779Y018588D02*
X001779Y018138D01*
X001629Y018288D01*
X001479Y018138D01*
X001479Y018588D01*
X006658Y019273D02*
X006733Y019198D01*
X006808Y019198D01*
X006883Y019273D01*
X006883Y019648D01*
X006808Y019648D02*
X006958Y019648D01*
X007118Y019648D02*
X007343Y019648D01*
X007418Y019573D01*
X007418Y019423D01*
X007343Y019348D01*
X007118Y019348D01*
X007118Y019198D02*
X007118Y019648D01*
X007578Y019498D02*
X007728Y019648D01*
X007728Y019198D01*
X007578Y019198D02*
X007879Y019198D01*
X006434Y024893D02*
X006434Y029793D01*
X006784Y029793D01*
X006784Y030393D01*
X006434Y030393D01*
X006434Y031143D01*
X010534Y031143D01*
X010534Y030393D01*
X010184Y030393D01*
X010184Y029793D01*
X010534Y029793D01*
X010534Y024893D01*
X006434Y024893D01*
X005534Y024893D02*
X005534Y029793D01*
X005184Y029793D01*
X005184Y030393D01*
X005534Y030393D01*
X005534Y031143D01*
X001434Y031143D01*
X001434Y030393D01*
X001784Y030393D01*
X001784Y029793D01*
X001434Y029793D01*
X001434Y024893D01*
X005534Y024893D01*
X006759Y028518D02*
X006759Y028745D01*
X006872Y028858D01*
X006986Y028745D01*
X006986Y028518D01*
X007118Y028518D02*
X007345Y028518D01*
X007231Y028518D02*
X007231Y028858D01*
X007118Y028745D01*
X006986Y028688D02*
X006759Y028688D01*
X007477Y028575D02*
X007477Y028518D01*
X007477Y028575D02*
X007704Y028802D01*
X007704Y028858D01*
X007477Y028858D01*
X007893Y028575D02*
X007893Y028518D01*
X007949Y028518D01*
X007949Y028575D01*
X007893Y028575D01*
X007949Y028518D02*
X007836Y028405D01*
X008075Y028575D02*
X008132Y028518D01*
X008246Y028518D01*
X008302Y028575D01*
X008302Y028688D01*
X008246Y028745D01*
X008189Y028745D01*
X008075Y028688D01*
X008075Y028858D01*
X008302Y028858D01*
X008435Y028745D02*
X008491Y028745D01*
X008548Y028688D01*
X008605Y028745D01*
X008661Y028688D01*
X008661Y028518D01*
X008548Y028518D02*
X008548Y028688D01*
X008435Y028745D02*
X008435Y028518D01*
X008794Y028518D02*
X008794Y028745D01*
X008850Y028745D01*
X008907Y028688D01*
X008964Y028745D01*
X009020Y028688D01*
X009020Y028518D01*
X008907Y028518D02*
X008907Y028688D01*
X007774Y029793D02*
X007776Y029846D01*
X007782Y029899D01*
X007792Y029951D01*
X007806Y030002D01*
X007823Y030052D01*
X007844Y030101D01*
X007869Y030148D01*
X007897Y030193D01*
X007929Y030236D01*
X007964Y030276D01*
X008001Y030313D01*
X008041Y030348D01*
X008084Y030380D01*
X008129Y030408D01*
X008176Y030433D01*
X008225Y030454D01*
X008275Y030471D01*
X008326Y030485D01*
X008378Y030495D01*
X008431Y030501D01*
X008484Y030503D01*
X008537Y030501D01*
X008590Y030495D01*
X008642Y030485D01*
X008693Y030471D01*
X008743Y030454D01*
X008792Y030433D01*
X008839Y030408D01*
X008884Y030380D01*
X008927Y030348D01*
X008967Y030313D01*
X009004Y030276D01*
X009039Y030236D01*
X009071Y030193D01*
X009099Y030148D01*
X009124Y030101D01*
X009145Y030052D01*
X009162Y030002D01*
X009176Y029951D01*
X009186Y029899D01*
X009192Y029846D01*
X009194Y029793D01*
X009192Y029740D01*
X009186Y029687D01*
X009176Y029635D01*
X009162Y029584D01*
X009145Y029534D01*
X009124Y029485D01*
X009099Y029438D01*
X009071Y029393D01*
X009039Y029350D01*
X009004Y029310D01*
X008967Y029273D01*
X008927Y029238D01*
X008884Y029206D01*
X008839Y029178D01*
X008792Y029153D01*
X008743Y029132D01*
X008693Y029115D01*
X008642Y029101D01*
X008590Y029091D01*
X008537Y029085D01*
X008484Y029083D01*
X008431Y029085D01*
X008378Y029091D01*
X008326Y029101D01*
X008275Y029115D01*
X008225Y029132D01*
X008176Y029153D01*
X008129Y029178D01*
X008084Y029206D01*
X008041Y029238D01*
X008001Y029273D01*
X007964Y029310D01*
X007929Y029350D01*
X007897Y029393D01*
X007869Y029438D01*
X007844Y029485D01*
X007823Y029534D01*
X007806Y029584D01*
X007792Y029635D01*
X007782Y029687D01*
X007776Y029740D01*
X007774Y029793D01*
X004020Y028688D02*
X004020Y028518D01*
X003907Y028518D02*
X003907Y028688D01*
X003964Y028745D01*
X004020Y028688D01*
X003907Y028688D02*
X003850Y028745D01*
X003794Y028745D01*
X003794Y028518D01*
X003661Y028518D02*
X003661Y028688D01*
X003605Y028745D01*
X003548Y028688D01*
X003548Y028518D01*
X003435Y028518D02*
X003435Y028745D01*
X003491Y028745D01*
X003548Y028688D01*
X003302Y028688D02*
X003302Y028575D01*
X003246Y028518D01*
X003132Y028518D01*
X003075Y028575D01*
X003075Y028688D02*
X003189Y028745D01*
X003246Y028745D01*
X003302Y028688D01*
X003302Y028858D02*
X003075Y028858D01*
X003075Y028688D01*
X002949Y028575D02*
X002893Y028575D01*
X002893Y028518D01*
X002949Y028518D01*
X002949Y028575D01*
X002949Y028518D02*
X002836Y028405D01*
X002477Y028518D02*
X002477Y028575D01*
X002704Y028802D01*
X002704Y028858D01*
X002477Y028858D01*
X002231Y028858D02*
X002231Y028518D01*
X002118Y028518D02*
X002345Y028518D01*
X002118Y028745D02*
X002231Y028858D01*
X001986Y028745D02*
X001872Y028858D01*
X001759Y028745D01*
X001759Y028518D01*
X001759Y028688D02*
X001986Y028688D01*
X001986Y028745D02*
X001986Y028518D01*
X002774Y029793D02*
X002776Y029846D01*
X002782Y029899D01*
X002792Y029951D01*
X002806Y030002D01*
X002823Y030052D01*
X002844Y030101D01*
X002869Y030148D01*
X002897Y030193D01*
X002929Y030236D01*
X002964Y030276D01*
X003001Y030313D01*
X003041Y030348D01*
X003084Y030380D01*
X003129Y030408D01*
X003176Y030433D01*
X003225Y030454D01*
X003275Y030471D01*
X003326Y030485D01*
X003378Y030495D01*
X003431Y030501D01*
X003484Y030503D01*
X003537Y030501D01*
X003590Y030495D01*
X003642Y030485D01*
X003693Y030471D01*
X003743Y030454D01*
X003792Y030433D01*
X003839Y030408D01*
X003884Y030380D01*
X003927Y030348D01*
X003967Y030313D01*
X004004Y030276D01*
X004039Y030236D01*
X004071Y030193D01*
X004099Y030148D01*
X004124Y030101D01*
X004145Y030052D01*
X004162Y030002D01*
X004176Y029951D01*
X004186Y029899D01*
X004192Y029846D01*
X004194Y029793D01*
X004192Y029740D01*
X004186Y029687D01*
X004176Y029635D01*
X004162Y029584D01*
X004145Y029534D01*
X004124Y029485D01*
X004099Y029438D01*
X004071Y029393D01*
X004039Y029350D01*
X004004Y029310D01*
X003967Y029273D01*
X003927Y029238D01*
X003884Y029206D01*
X003839Y029178D01*
X003792Y029153D01*
X003743Y029132D01*
X003693Y029115D01*
X003642Y029101D01*
X003590Y029091D01*
X003537Y029085D01*
X003484Y029083D01*
X003431Y029085D01*
X003378Y029091D01*
X003326Y029101D01*
X003275Y029115D01*
X003225Y029132D01*
X003176Y029153D01*
X003129Y029178D01*
X003084Y029206D01*
X003041Y029238D01*
X003001Y029273D01*
X002964Y029310D01*
X002929Y029350D01*
X002897Y029393D01*
X002869Y029438D01*
X002844Y029485D01*
X002823Y029534D01*
X002806Y029584D01*
X002792Y029635D01*
X002782Y029687D01*
X002776Y029740D01*
X002774Y029793D01*
X011679Y031338D02*
X011679Y031788D01*
X011979Y031338D01*
X011979Y031788D01*
X012139Y031713D02*
X012139Y031413D01*
X012214Y031338D01*
X012364Y031338D01*
X012439Y031413D01*
X012439Y031713D01*
X012364Y031788D01*
X012214Y031788D01*
X012139Y031713D01*
X012599Y031788D02*
X012750Y031788D01*
X012675Y031788D02*
X012675Y031338D01*
X012750Y031338D02*
X012599Y031338D01*
X012906Y031413D02*
X012981Y031338D01*
X013132Y031338D01*
X013207Y031413D01*
X013207Y031488D01*
X013132Y031563D01*
X012981Y031563D01*
X012906Y031638D01*
X012906Y031713D01*
X012981Y031788D01*
X013132Y031788D01*
X013207Y031713D01*
X013367Y031713D02*
X013517Y031563D01*
X013517Y031338D01*
X013517Y031563D02*
X013667Y031713D01*
X013667Y031788D01*
X013827Y031788D02*
X014052Y031788D01*
X014127Y031713D01*
X014127Y031563D01*
X014052Y031488D01*
X013827Y031488D01*
X013827Y031338D02*
X013827Y031788D01*
X013367Y031788D02*
X013367Y031713D01*
X014287Y031788D02*
X014287Y031338D01*
X014438Y031488D01*
X014588Y031338D01*
X014588Y031788D01*
X014748Y031788D02*
X014973Y031788D01*
X015048Y031713D01*
X015048Y031563D01*
X014973Y031488D01*
X014748Y031488D01*
X014748Y031338D02*
X014748Y031788D01*
X014898Y031488D02*
X015048Y031338D01*
X034685Y015180D02*
X034685Y013606D01*
X034684Y013605D02*
X034728Y013544D01*
X034774Y013486D01*
X034823Y013429D01*
X034875Y013376D01*
X034930Y013325D01*
X034988Y013277D01*
X035048Y013233D01*
X035110Y013191D01*
X035174Y013153D01*
X035240Y013118D01*
X035308Y013087D01*
X035378Y013060D01*
X035449Y013036D01*
X035521Y013016D01*
X035594Y012999D01*
X035667Y012987D01*
X035742Y012978D01*
X035816Y012974D01*
X035891Y012973D01*
X035966Y012977D01*
X036040Y012984D01*
X036114Y012995D01*
X036187Y013010D01*
X036260Y013029D01*
X036331Y013051D01*
X036401Y013078D01*
X036469Y013108D01*
X036536Y013141D01*
X036601Y013178D01*
X036664Y013218D01*
X036725Y013262D01*
X036783Y013309D01*
X036839Y013359D01*
X036892Y013411D01*
X036942Y013467D01*
X036989Y013524D01*
X037034Y013585D01*
X037074Y013647D01*
X037112Y013712D01*
X037146Y013779D01*
X037177Y013847D01*
X037204Y013916D01*
X037227Y013988D01*
X037246Y014060D01*
X037262Y014133D01*
X037274Y014207D01*
X037282Y014281D01*
X037286Y014356D01*
X037286Y014430D01*
X037282Y014505D01*
X037274Y014579D01*
X037262Y014653D01*
X037246Y014726D01*
X037227Y014798D01*
X037204Y014870D01*
X037177Y014939D01*
X037146Y015007D01*
X037112Y015074D01*
X037074Y015139D01*
X037034Y015201D01*
X036989Y015262D01*
X036942Y015319D01*
X036892Y015375D01*
X036839Y015427D01*
X036783Y015477D01*
X036725Y015524D01*
X036664Y015568D01*
X036601Y015608D01*
X036536Y015645D01*
X036469Y015678D01*
X036401Y015708D01*
X036331Y015735D01*
X036260Y015757D01*
X036187Y015776D01*
X036114Y015791D01*
X036040Y015802D01*
X035966Y015809D01*
X035891Y015813D01*
X035816Y015812D01*
X035742Y015808D01*
X035667Y015799D01*
X035594Y015787D01*
X035521Y015770D01*
X035449Y015750D01*
X035378Y015726D01*
X035308Y015699D01*
X035240Y015668D01*
X035174Y015633D01*
X035110Y015595D01*
X035048Y015553D01*
X034988Y015509D01*
X034930Y015461D01*
X034875Y015410D01*
X034823Y015357D01*
X034774Y015300D01*
X034728Y015242D01*
X034684Y015181D01*
X034685Y009680D02*
X034685Y008106D01*
X034684Y008105D02*
X034728Y008044D01*
X034774Y007986D01*
X034823Y007929D01*
X034875Y007876D01*
X034930Y007825D01*
X034988Y007777D01*
X035048Y007733D01*
X035110Y007691D01*
X035174Y007653D01*
X035240Y007618D01*
X035308Y007587D01*
X035378Y007560D01*
X035449Y007536D01*
X035521Y007516D01*
X035594Y007499D01*
X035667Y007487D01*
X035742Y007478D01*
X035816Y007474D01*
X035891Y007473D01*
X035966Y007477D01*
X036040Y007484D01*
X036114Y007495D01*
X036187Y007510D01*
X036260Y007529D01*
X036331Y007551D01*
X036401Y007578D01*
X036469Y007608D01*
X036536Y007641D01*
X036601Y007678D01*
X036664Y007718D01*
X036725Y007762D01*
X036783Y007809D01*
X036839Y007859D01*
X036892Y007911D01*
X036942Y007967D01*
X036989Y008024D01*
X037034Y008085D01*
X037074Y008147D01*
X037112Y008212D01*
X037146Y008279D01*
X037177Y008347D01*
X037204Y008416D01*
X037227Y008488D01*
X037246Y008560D01*
X037262Y008633D01*
X037274Y008707D01*
X037282Y008781D01*
X037286Y008856D01*
X037286Y008930D01*
X037282Y009005D01*
X037274Y009079D01*
X037262Y009153D01*
X037246Y009226D01*
X037227Y009298D01*
X037204Y009370D01*
X037177Y009439D01*
X037146Y009507D01*
X037112Y009574D01*
X037074Y009639D01*
X037034Y009701D01*
X036989Y009762D01*
X036942Y009819D01*
X036892Y009875D01*
X036839Y009927D01*
X036783Y009977D01*
X036725Y010024D01*
X036664Y010068D01*
X036601Y010108D01*
X036536Y010145D01*
X036469Y010178D01*
X036401Y010208D01*
X036331Y010235D01*
X036260Y010257D01*
X036187Y010276D01*
X036114Y010291D01*
X036040Y010302D01*
X035966Y010309D01*
X035891Y010313D01*
X035816Y010312D01*
X035742Y010308D01*
X035667Y010299D01*
X035594Y010287D01*
X035521Y010270D01*
X035449Y010250D01*
X035378Y010226D01*
X035308Y010199D01*
X035240Y010168D01*
X035174Y010133D01*
X035110Y010095D01*
X035048Y010053D01*
X034988Y010009D01*
X034930Y009961D01*
X034875Y009910D01*
X034823Y009857D01*
X034774Y009800D01*
X034728Y009742D01*
X034684Y009681D01*
X034685Y004680D02*
X034685Y003106D01*
X034684Y003105D02*
X034728Y003044D01*
X034774Y002986D01*
X034823Y002929D01*
X034875Y002876D01*
X034930Y002825D01*
X034988Y002777D01*
X035048Y002733D01*
X035110Y002691D01*
X035174Y002653D01*
X035240Y002618D01*
X035308Y002587D01*
X035378Y002560D01*
X035449Y002536D01*
X035521Y002516D01*
X035594Y002499D01*
X035667Y002487D01*
X035742Y002478D01*
X035816Y002474D01*
X035891Y002473D01*
X035966Y002477D01*
X036040Y002484D01*
X036114Y002495D01*
X036187Y002510D01*
X036260Y002529D01*
X036331Y002551D01*
X036401Y002578D01*
X036469Y002608D01*
X036536Y002641D01*
X036601Y002678D01*
X036664Y002718D01*
X036725Y002762D01*
X036783Y002809D01*
X036839Y002859D01*
X036892Y002911D01*
X036942Y002967D01*
X036989Y003024D01*
X037034Y003085D01*
X037074Y003147D01*
X037112Y003212D01*
X037146Y003279D01*
X037177Y003347D01*
X037204Y003416D01*
X037227Y003488D01*
X037246Y003560D01*
X037262Y003633D01*
X037274Y003707D01*
X037282Y003781D01*
X037286Y003856D01*
X037286Y003930D01*
X037282Y004005D01*
X037274Y004079D01*
X037262Y004153D01*
X037246Y004226D01*
X037227Y004298D01*
X037204Y004370D01*
X037177Y004439D01*
X037146Y004507D01*
X037112Y004574D01*
X037074Y004639D01*
X037034Y004701D01*
X036989Y004762D01*
X036942Y004819D01*
X036892Y004875D01*
X036839Y004927D01*
X036783Y004977D01*
X036725Y005024D01*
X036664Y005068D01*
X036601Y005108D01*
X036536Y005145D01*
X036469Y005178D01*
X036401Y005208D01*
X036331Y005235D01*
X036260Y005257D01*
X036187Y005276D01*
X036114Y005291D01*
X036040Y005302D01*
X035966Y005309D01*
X035891Y005313D01*
X035816Y005312D01*
X035742Y005308D01*
X035667Y005299D01*
X035594Y005287D01*
X035521Y005270D01*
X035449Y005250D01*
X035378Y005226D01*
X035308Y005199D01*
X035240Y005168D01*
X035174Y005133D01*
X035110Y005095D01*
X035048Y005053D01*
X034988Y005009D01*
X034930Y004961D01*
X034875Y004910D01*
X034823Y004857D01*
X034774Y004800D01*
X034728Y004742D01*
X034684Y004681D01*
D16*
X007984Y012193D03*
X005984Y002193D03*
D17*
X006684Y025143D02*
X006684Y028393D01*
X010284Y028393D01*
X010284Y025143D01*
X006684Y025143D01*
X005284Y025143D02*
X005284Y028393D01*
X001684Y028393D01*
X001684Y025143D01*
X005284Y025143D01*
D18*
X004484Y023668D03*
X003484Y023668D03*
X002484Y023668D03*
X007484Y023668D03*
X008484Y023668D03*
X009484Y023668D03*
D19*
X009484Y024343D03*
X008484Y024343D03*
X007484Y024343D03*
X004484Y024343D03*
X003484Y024343D03*
X002484Y024343D03*
M02*
