%
M48
M72
T01C0.0236
T02C0.0320
T03C0.0394
T04C0.0400
T05C0.0440
T06C0.1300
%
T01
X10484Y7093
X11984Y4893
X14484Y7893
X13484Y8893
X12484Y9893
X16384Y14693
X17984Y14693
X16684Y16893
X13984Y17693
X15684Y21593
X14884Y24093
X14584Y25893
X17684Y25093
X21784Y23893
X22484Y22893
X24984Y25693
X24084Y26193
X22484Y26693
X21784Y30093
X11484Y26693
X7484Y27293
X2484Y23993
X6284Y9493
X18184Y5793
X28684Y13893
X24984Y16893
X24084Y17893
X30484Y19893
X33384Y19693
X34984Y22893
X32584Y23893
X33384Y25693
X32584Y27493
X34984Y28293
X34084Y12893
X36484Y9893
X37984Y10893
X38884Y11893
X36384Y6893
X35684Y5893
X33484Y8893
X30484Y3893
T02
X26484Y5893
X26484Y6893
X26484Y7893
X26484Y8893
X26484Y9893
X26484Y10893
X26484Y11893
X26484Y12893
X26484Y13893
X26484Y14893
X26484Y15893
X26484Y16893
X26484Y17893
X26484Y18893
X26484Y19893
X26484Y20893
X26484Y21893
X26484Y22893
X26484Y23893
X26484Y24893
X20484Y24893
X20484Y23893
X20484Y22893
X20484Y21893
X20484Y20893
X20484Y19893
X20484Y18893
X20484Y17893
X20484Y16893
X20484Y15893
X20484Y14893
X20484Y13893
X20484Y12893
X20484Y11893
X20484Y10893
X20484Y9893
X20484Y8893
X20484Y7893
X20484Y6893
X20484Y5893
X7984Y11393
X7984Y13393
X5984Y3393
X5984Y1393
T03
X34803Y3893
X35590Y3893
X36377Y3893
X37165Y3893
X37165Y8893
X36377Y8893
X35590Y8893
X34803Y8893
X34803Y14393
X35590Y14393
X36377Y14393
X37165Y14393
T04
X16484Y1893
X15484Y1893
X14484Y1893
X13484Y1893
X12484Y1893
X11484Y1893
X10484Y1893
X9484Y1893
X9484Y3893
X10484Y3893
X11484Y3893
X2684Y10793
X1684Y10793
X1484Y14893
X2484Y14893
X3484Y14893
X2984Y17393
X1984Y17393
X4484Y20393
X5484Y20393
X6484Y20393
X7484Y20393
X12184Y30593
X13184Y30593
T05
X9484Y22893
X8484Y22893
X7484Y22893
X4484Y22893
X3484Y22893
X2484Y22893
T06
X2984Y2893
X3484Y29793
X8484Y29793
X2984Y37893
X42984Y37893
X42984Y2893
M30
